<mxfile host="Electron" agent="Mozilla/5.0 (Windows NT 10.0; Win64; x64) AppleWebKit/537.36 (KHTML, like Gecko) draw.io/24.7.17 Chrome/128.0.6613.36 Electron/32.0.1 Safari/537.36" version="24.7.17">
  <diagram name="Page-1" id="wkUNj3JBt_0hRZhOPefi">
    <mxGraphModel dx="2390" dy="2493" grid="1" gridSize="10" guides="1" tooltips="1" connect="1" arrows="1" fold="1" page="1" pageScale="1" pageWidth="850" pageHeight="1100" math="0" shadow="0">
      <root>
        <mxCell id="0" />
        <mxCell id="1" parent="0" />
        <mxCell id="OAs59v_ub1j7-5ITEAdP-1" value="" style="shape=image;verticalLabelPosition=bottom;labelBackgroundColor=default;verticalAlign=top;aspect=fixed;imageAspect=0;image=data:image/png,iVBORw0KGgoAAAANSUhEUgAAA9AAAAGXCAIAAADUDi9CAAAgAElEQVR4Ae2dwbIUObKmWbKfgiqoWUwX51CzmNtdRY+xmdv3rngwHoPX5AnGqkU5qgiXQiHXn6lUfGbYMR2F5HJ9+kPpckTy4sef3//48/uf/uevqdBRfv7f/7e7b2TcK/SFbVyfFZ08/fpPqf2LvxcJb4X/xfkEtff06z9hG2RY+bxj79Wx/el//sreW9Fe/L1m740zLOk/wvZFMhr5aW9OxAh9XQKwdbGMqgTvKJKuHfC6WEZVgncUSdcOeF0soyrBO4qkawe8LpYhlRG2L9I5IPIzZQIiFuhbIgDbEpkh9ZYjHGLNMhZYSwRQr1QJqFf6xqFe1CslgHqlBHRrF9kZyHD/caNm2j+Rs9S0k5rHMfBK1wK84JUSkBpHveCVEpAaR706vBG23wLudBpILp4tp3i/r+/Zsa7WHrZSXdmbczVd3Wa+Ce9txpLqJBm3fMwkY1mGexJ/ZuMT9Ie9V6or9t6gPuv7KntvnU9E2xG2ZLjnTW//+PN725WSPvg5lgB4x/LcWAPvBsjYX8E7lufGGng3QMb+Ct6xPDfWwLsBMvDXCFvucH/7hpZ0HprtZ+S20GxzmdAfyxFO6JvlPx7XN9QrXTvUK31HUC/qlRJAvVICurWL7AxkuMlwT01g4MF0bypyVN1bo2ZDALwbIGN/Be9Ynhtr4N0AGfsreMfy3FgD7wbIwF8jbAm4pw43I0s7UGGrmgKvdGXBC14pAalx1AteKQGpcdSrwxthS8BNwD01Ad1rwxV5KVvwgldNQGo/8rEqdWwN4+CVriN4dXgjbLnDzR3uqQnobmKl/+1Mav9B76iNYhK56zbKh4XtcIdb+n6hXum7g3pRr5SATr2RnYEM99T53chZSnfCW8YyeKVLCV7wSglIjaNe8EoJSI2jXh3eCFsCbgLuqQnoXhvuPEjZghe8agJS+5GPValjaxgHr3QdwavDG2FLwD11uBlZWp3glrEMXulSghe8UgJS46gXvFICUuOoV4c3wpY73FPfYI7cFtLdYVrGMvcIpbfoUK/0TUG9qFdKAPVKCUjXjr1Xt3YRtmS4yXBPTUB3TuXOg5QteMGrJiC1H8ljSR1bwzh4pesIXh3eCFsC7qnDzcjS6gS3jGXwSpcSvOCVEpAaR73glRKQGke9OrwRtgTcBNxTE9C9NqRgpWzBC141Aan9yMeq1LE1jINXuo7g1eGNsP0WcKf7LsnFs+V0o6Wv79mxrtYetlJd2ZtzNV3dZr4J723GkuokGbc7l5OMZXe4J/FnNj5Bf9h7pbpi7w3qs76vsvfW+US0HWFLhnvq/K7tSkkf/BxLALxjeW6sgXcDZOyv4B3Lc2MNvBsgY38F71ieG2vg3QAZ+GuE7YunX/8Z/PPbP/87aIHuJQKwLZEZUg/eIRhLRsBbIjOkHrxDMJaMgLdEZkg9eIdgLBkBb4lMvD7Clgw3Ge6pCQw8mO5NRY6qe2vUbAiAdwNk7K/gHctzYw28GyBjfwXvWJ4ba+DdABn4a4Qtd7i/fQ93Wg/dvZ8++9wj7OPWuI725jS2t5eW9i3rkvDCqoVVRxvucEvfR/beDk2230tm721n1aFz9l7d506ELRnuqfO7tivZK0dhIAHwDoS5NwXePZOBNeAdCHNvCrx7JgNrwDsQ5t4UePdMRtVE2BJwE3BPTWDUS+Laibw5rkEqcwLgzWkML4N3ONLcIHhzGsPL4B2ONDcI3pzG2HKELQH31OFmZGnHimxJa+CVLit4wSslIDWOesErJSA1jnp1eCNsCbgJuKcmoHtt+J9ZpGzBC141Aan9yMeq1LE1jINXuo7g1eGNsCXgnjrcjCytTnDLWAavdCnBC14pAalx1AteKQGpcdSrwxthS8BNwD01Ad1rQwpWyha84FUTkNqPfKxKHVvDOHil6wheHd4IWwLuqcPNyNLqBLeMZfBKlxK84JUSkBpHveCVEpAaR706vBG2BNwE3FMT0L02pGClbMELXjUBqf3Ix6rUsTWMg1e6juDV4Y2w/R5wv377bC6eKj/9+s9T7X/8+T3tE+pDDrDt02Sjxt69/yC1f7i+jX4+qB3bmB7U/8m1kfDCtnEvPfuusfdK9c/eK9Jt0jl779n3vb19hO33gNverrMFG/5sR9ofEoDtIaJIA/BG6B32Be8hokgD8EboHfYF7yGiSAPwRugd9gXvIaLuBhG2BNxTX6iILG23nq7TEbzStQYveKUEpMZRL3ilBKTGUa8Ob4QtATcB99QEdK8Nl4ylbMELXjUBqf3Ix6rUsTWMg1e6juDV4Y2w/R5wd98F5K6bLW03w9L9Idjq2P7483vuESa8w3XLPUKpbtN6pX1ftHY38F+qvbj/7L1xhqXPNfZeKdvXb58tKGR/GL7PRNh+D7hNAWcLNvzZjrQ/JADbQ0SRBuCN0DvsC95DRJEG4I3QO+wL3kNEkQbgjdA77AveQ0TdDSJsCbinvlARWdpuPV2nI3ilaw1e8EoJSI2jXvBKCUiNo14d3ghbAm4C7qkJ6F4bLhlL2YIXvGoCUvuRj1WpY2sYB690HcGrwxth+0fAnW75dP+0u27dFuI+rGoBttKVTXe40a2IAOpFvVICIt0mn1GvdO3Ye1GvlIBOvZGdgQz31PndyFlKd8JbxjJ4pUsJXvBKCUiNo17wSglIjaNeHd4IWz/gTiePvcduvcX7je3t5EF7l2fOZ7O0h+03SGmfgJQ45N9SkqMrtae+znPDx9S7qTfU1J/iueFmeDf19qsV4JxQnOLA55pUP7l6T61L/vloHnas79p2crxGCc5DdGJsO3j6AbetUEvBhm9pTJtTBGB7CtfZxuA9S+xUe/CewnW2MXjPEjvVHryncJ1tDN6zxE61B+8pXKcaR9hyh/vZTrrpvDLVT8uyTOXVzMRO+cY9QqmuUO8pNZ5dC9R7ltip9qgX9UoJnFLjWU9Q71li7e0jbMlwc4d7agKnjp5nG0eOqmfHumB78EoXHbzglRKQGke94JUS0BmPSNcPuNPZa++xW2/xfmN7O0nQ3uWZ89ks7WH7DVLaJyAlDtzhrvMpcWusN/U2tjf10r5lXQwv3IxAC7dN43y/zR/xuWY0FO9jrl6FfXO+tL5r1+d4DQWcE4ogB2PbYccPuG2FWgo2fEtj2pwiANtTuM42Bu9ZYqfag/cUrrONwXuW2Kn24D2F62xj8J4ldqo9eE/hOtU4wpY73NzhnpqA5SHSaXLsT27BjuW5sWY5wk29dE2vMxbqla416pW+p6gX9UoJ6NQb2RnIcE99gzlyljp1aLtmY/BK1x284JUSkBpHveCVEpAaR706vBG22wx38nJ/8qjUu/F+pb178qB9Yr7hYGw39caQepdbI599lgWeEZ6bfcM2pk19gmxrlD+Ffzv/XL1wa+fWqDfbexvbo+dT73VSL7odrtukw4164TyQc+RzjQw3Ge6pCdgmrijYm6Mwjk3wSjUAXvBKCUiNo17wSgnojEeku81w56f5xvLmLNXYy80H0HdDALZSneQ5wg156bgXGQv1SlWEeqXvEepFvVICqFdKQLd2kZ3hxdOv/wz++e2f/x20QPcSAdiWyAypB+8QjCUj4C2RGVIP3iEYS0bAWyIzpB68QzCWjIC3RCZeH2G7zXCnPPz+5FGpd+P9Snv35EH7xHzDwdhu6o0h9S63Rj77HCE8Izw3+4b91dumPkG2Ncqfwr+df65euLVza9Sb7b2N7dHzqfc6qRfdDtdt0uFGvXAeyDnyucYd7qlvMNvS2l5GYSAB8A6EuTcF3j2TgTXgHQhzbwq8eyYDa8A7EObeFHj3TEbVRNhuM9z5ab6xvDlLNfZy8wH03RCArVQneY5wQ1467kXGQr1SFaFe6XuEelGvlADqlRLQrV1kZyDDTYZ7agKjTqWunchR1TVIZU4AvDmN4WXwDkeaGwRvTmN4GbzDkeYGwZvTGFuOsCXDPfX/sxg5S+lOeMtYJkcozTGgXumbgnpRr5QA6pUSkK4de69u7SJsyXBPnd+NnKXGnuqWtAZe6bKCF7xSAlLjqBe8UgJS46hXhzfC9sWPPz8XTlqt9X/G+63t/zx50P79v8nXOPzJNrU8bv8nW9rnBIrc/p0jrPGHZ2R/+Kt6H5Lzyy+f939MFV8/ftr/+fOpfL6FDLd83ODnxc34BP38U73wLO6fh59ff651vht/47lTL5xHcn769UNQ/3+uHeuyXZc/d4Zt/Z/EavVkuMlwT01Ad0798ef3kaOq1LE1jC+Adx9tv/zy2VZnH21//fjJnqoLC+BVI4rYB2+E3mFf8B4iijQAb4RevW+ELXe4ucM9NYG/nhrT2XHYz12WZZjlQnbhWvb/mgl4yLmXAu60vqWA+zarj3qlnBdQr5RPcGdGvdLVQb1BfVZWJ8KWDPfU+d3IWap+SuMpGW61BhZQbyngTuhKAbcabLK/AN7bgOobBbx93Bp7gbcRVF8z8PZxa+kVYfvi9ds/7ujkf9LJIK9J5VJ9ivfb25fsUL/n/O79Hzex9vVWaeewvIb2OY2KrnK81qXS3trkBdonGnsOCe++vtR+wno34DY/SwF3arD5OZzDRr3D7av9n9w+n2tpgUS6MvWK7Ju6rmnf8F6cg03fCnE9RD7XyHCT4Z6aQMuJs7tN5KjaPeh1Oi6A1w24bQVLAbc1kBYWwCvlEzQO3iDAenfw1vkEn4I3CLDSPcKWO9xT32CO3BZKJzl+Vghwj9D+hqRCqbvNAuotBdyJSSng7iZ2ahVQr5TzAuqV8jml1b0nqHfPZGAN6g3qs7IWEbZkuKfO70bOUpUjGo8SAfBKlbAA3lLAnbiVAm4pVTO+AF6by4QF8EoXBbzglRLQGY9Ilzvc3zLcdsXHCumEZL9a4Zb1+U2sW45rk7VzXl6Tygv4k+O1CS4wL5tLXrj9vCJ33XLPU/n2/r9+++wG3OZPKeDeO694jzbqvQsfxbw29O41r5TH2jiz8HxvzNnUe+NxbUHXHtfwXmS+Nk0r6NY38rlGhpsM99QEdOdUvqVEynYNvG7AbdxKAbc1kBYiiRapY2sYB690HcELXikBnfGIdLnDzR3uqQmkc6roJ/cILWOnIBy566bwp8NmKeBO3EoBt5SqzQL1SjkvoF4pH9Nh3yiot49bYy/UG9RnhXOELRnuqfO7kbOU7oS3jGXwSpdyAbylgDtxKwXcUqpmfAG8NpcJC+CVLgp4wSsloDMeka5zh9suwTQW9reFGjvS7JAAbA8RRRqAN0LvsO8CeN2A2ybuBtz2VF1YAK8aUcQ+eCP0DvuC9xBRpAF4I/TqfSNsyXCT4Z6agO6cusYlYymfoPFIJiA49KjubsBtxt2A256qCwvgVSOK2AdvhN5hX/AeIoo0AG+EXr1vhO23DHe675Li+rPldKOlr+/Zsa7WHrZSXdlR9Wq6us18E97bjCXSiRtw21ilgDs1sFuA1n5svd2CFdlX+z+5ffZeqa7Ye6X6X2DvlfKJaDvClgz31PndyFmqfkrjKRlutQYWUK8bcBu3UsBtDaSFBfBK+QSNgzcIsN4dvHU+wafgDQKsdI+w5Q73s6WdJixYGmBC3xZwCbzSRVwArxtwGzQ34Lan6sICeNWIIvbBG6F32Be8h4giDcAboVfvG2FLhpsM99QEKgfN+KPIUTU++vIWJsT79eOnU9jdgNssuAG3PVUXJsSrnvIt7YNXShu84JUS0BmPSJc73H/5nyZnu2/KPcJ01hStix1VRfbtoHxN+wnvVHNPAXf7urgBt2myFHC324/cU+QOt5Qze6/pXMGZvTfy7h/2nXDvPfRZqreBGo6wJcM9dX43cpbSnfCWsQxe6VJOiJcMt3TFVzI+oXrBuxIB6VxQrw5vhC13uLnDPTUBO5gqCpZlURjH5oR4v378dGpdKhnu12+f3Qz3KfuRxhPijUxntr7gla4IeMErJaAzHpEuGW4y3FMT0J1T+ZYSKds58ZLhVi/6MvYjeaxlIOgmAl4d2zn3Xul8b2k8Il0y3FPndyNnKd0JbxnL4JUu5YR4yXBLV3wl4xOqF7wrEZDOBfXq8EbYkuGeOr8bOUvd8sz3oGOBV7pwE+Ilwy1d8ZWMT6he8K5EQDoX1KvDG2FLhpsM99QEdOfU12+fI0dVqWNrGJ8QLxnuNaR1g1lMqN4bzPpmQ4BXihq8OrwRtmS4yXBPTUB3TuWim5TtnHjJcKsXfRn7kTzWMhB0EwGvju2ce690vrc0HpHui3fvPwT//OPDfwUt0L1EALYlMkPqwTsEY8nIhHi/fvxU8tatd7+lxFq631JiT61wdlDrWC9MiLfu8GM9Ba90vcALXikBnfGIdMlwT53fjZylbnnme9CxwCtduLvgffnlc2VSd8lwnx204n/+6C54cwfWLovw1vW5NtJ8diK8+RBXLoNXt/oRttzhnvoGc+S2kO4O0zKWwStdylvidVPRNjs3FW1PK4UhZs9eHK/4kz+6Jd583IuURXhffvl8EYD1aYrw1ge9zlPw6tY6wvZ7hjv9x5vpWHCqnP4LXDtPnOqb/ttn+pY4wFaqjfSfY3dovrRe1OfrZZmAG+wJpcg4+eMG3Pt1z7OPyWfXrM2xZHYzX8twb+rNTl99wtvXdz937GyYiPbevcY2415kD2Hvla77LffeNJGL6Pb12+cIWzLcZLinJqA7p/ItJVK2N8brRsY2QTcytqdW2Gcfh5glw22EH6gQyWNVprnXWKXxwo9EeBcmdmpq4D2F61TjCNvvGW47ppwtWLx/tiPtDwnA9hBRpAF4I/QO+94SrxsZm4duwG1PrZBnH1PlELOW4baBhhRuiXeIw49lRIR3r7HHwjLKWxHeUe49uh3w6lYwwpYM99T53chZ6tSh7ZqNwStd91vidSNjm50bcNtTK+yzj0PMkuE2wg9UEKl3r7EHYjLQVRHegR4+tCnw6pYvwvZ7hrv7Dp/orlu3PyvdJYKtnVMVeuAeYcKrYBu863Z23UuRcbLjBtw290pf95H5VjK74WkZ7k292emrT4mWvr4296APC9sR7b15hvvKa8feK313LAt7ZY2J5h5hS4abDPfUBHTn1BtfMpZOZE7jkUzA2Rm5kbEZcSNje1rvm5q5icm6WbNPhttQPFBBpF5XSA+EZZSrIryj3Ht0O+DVrWCE7fcMt6U6zhYs3j/bkfaHBGB7iCjSALwReod9b4nXDZrNQzcytqf1vqlZnpi0jnWzeTMrDyzcEu9Atx/FlAivK6RHYTLQTxHegR4+tCnw6pYvwpYM99T53chZSnfCW8YyeKVLeUu8btBss3MjY3ta75uauYnJulmzT4bbUDxQQaReV0iGRSQVsz9PQYR3ngne1xPw6vhH2P6R4U43Xbp/2l23bgtxH1a1AFvpyqZ7hOhWROCW6i0FzUk/pcg4Pa33tTZ7Sq5ZU2z9qVlLMZb1svrDGtTbzqqjpUi9KcNd8idd9y89Xake9UpXU6Reqc+HO94ko0fYkuEmwz01Ad05lTvcUrY3xlsKmtMc3djXpl/va80qBTcxWR/UrLl97em+UPe2cdC9WWo2BCJ5rI2p/Fcy3ImGCG+O+spl8OpWP8KWO9zvdXd94pYjt4Xioy9vAbzSJb4lXjcMtdm5Yag9rfe1ZpWCfQ9J3qY+qLV0+9rTfaHubeOge7PUbAiI1Fu/w31WDBufH+hXEd4HIiB1Fbw6vBG2ZLinzu9GzlK6E94ylsErXcpb4nXDUJudG4ba03pfa1YpuFnq+qD1p5Wx6t52m62MeM1HIvWS4U5yEuG9plb3swbvnsmomghb7nA/z3xzKHJbaOZ5TeIb9wilt+Juqd5SGJqUVgpD09N63xat1u9hu09dl1rGqnvrmpWucovPj9imW73uPWxWbaMB9l7pW9mtXqlXGw086FgRtmS4yXBPTWDUqdS1EzmqugapzAncEm8poEn+lMLQ9LTeN59RX7kj/21u70ese1uf6d4aNSUC3ep1l5tV23Duxruxw68uAfC6WIZURtj6d7jTyWN/Ccatt3i/sb2dcmjv8sz5bG4LHbbfIKV9AlLikLIsG2g5/82jkh3qXc6m3hvwKQU0yTE3DLXFdfva07ge7GJuzqHukrmdu5HKFW9fv312zebjmpH4vMy3vf306KHruz/XbLlzPu6qGR931ay7Fay91aTCI9bb5oAObTUHrmOOV2HfbOaFgf7nZq08iX1j2+EPGe6p87uRs9SQw9zaRsArXd9b4i0FNGmCbkBjc6/3tWbdBTflWXfJ3N4PWve2xezrt8+Vm8Sut3s3lq/pVq8LcMiqrcS8G+9KEHRzAe+cbLnDzR3uqQlY/iOdJsf+5B7hWJ4ba5Yj3NQr1rQU0KSxSmFoelrvq/D2x5/fuy5txtLdBq58G3SKFzee3GAFZxuxW726VVtpFdh7pavZrV6pV7O9433+RNiS4SbDPTUB3Tn1xl8ULZ3InMZvmWUpBc2JjBvdGrR6X2s2tlBxqfIoJaf3Dptv9b7WjAy3oSgV6uo9C3C/ZLmFxlUrufqI9XW8jzijqXwGr245Imy3Ge50XWZ/yqnUu/F+pb17qqB9Yr7hYGw39caQepdbI599lgWeEZ6bfWNz1y1/OpxzKaBJSigFNOlppe9wP02ZxnmfUa54++PP711vzc9K35x/KcOdUu95S/Nz4/ny9bb35jSMcwqXjYnVJ4D7enfVzPLhquX2rVeqTGNV/HHbm4fp6aH94e3zfz+Te3gvfxYbd6Pe26/vYjxz/Uc+117YObu7kOL97u7pIEL3/GIlNKDBe3H2LdjHNMYwBTQvv3zOC6axfcdUY92lha8fP21mmmpyVzdt9g6bh/teKaDfDFGZ4GYss0xhj90wbqRlK9iusf3CtQB3XbJBKbQwpM1mc0A2dUm8e/+hm9g2w70/ax7WbM5Sh+3zswLlOgHY1vkEn+4z3Kh3IIFbqrcUeSSFpGhm89NmWu8b1JiNUrJzKsOdPgv3DtsomzmmX+3pvmP65Gi8U252SnNZqd5VrwswzbqbfP27ZerMK/5MvhbsvfWVDT511Ru0Obmibja7CFvucE99gzlyWyid0vhZIQDeCpz4o1vidSMPm0IpGEoN6n3NiKiQAu7ceMTb7r71jrl7Fym76q1IpQ6w0rEScB+irps97H7HBi7eO/qz2NDg1S1ohO02w91x18eN9zvsuOeni9sxthfnYNoYy2GfZRlrf3/mvpT9yF03W/HE8JBbKfJIdkrBUHpa6Xs47lk/9+1PZbiDd7grM3URmbc34GBj5W/NHce1vTf3xwWYnCwBTPNyO5plt689TfZdPq7ZSvs78tz4zx3ulvXtXq+NervtbFYNO6/fPkc+18hwk+GemoDunMq3lEjZ6vDa/bncfzfysAalgCY1qPc1I6LC2Ay3Obk3a4/cQh2R22XtSjePVZFKHWClY3uGe6/8utmZF8jFO7PDj+UbeHXrFWG7zXDnp67G8uYs1dhrc3Kil0sAtlKd7DPc7ipIfVh4RJF63W/YKEUeae1KwVB6Wu97+9Uf4q37bdCVubiDVtovrNs0a1e9rlRSexegUXI72tN6X1uFvfJds9be7E9Yw94rXR1XvdIRJ9SYaL4RtmS4p87vRs5SuhPeMpbBK11KEd59nq/yTwnTBEsBTXrqRi1SMnXjQ7wlw12HfPjUVW9FKpFVq/c1V/fKr/hjveYsuHjndPURvQKvbtUibMlwT/3/LEbOUtc5cXbPlCyLKAeQVkSk3n2erxJwJ09KAU16WopaunUVpDrEWzLcwVVw1etKJa6x+oqbDvfKr/hjvYIcRHbYe6Xr4qpXOqJIJxP6HGFLhpsM99QEdOdU3SVjqc8PZDySCahMc5/nqwTcGzv1vK9reWPhBr+Wwq80tBtjxb2qDxq3/3AWXPVW4NcBVjpyh/vhtDG/w65653f7ITyMsCXDTYZ7agLSczNZFmn+IJIJqKz7Ps9XCbg3dup5X9fyxoKUWBqrFLqlp6XQLeinO2jQ5g1Y6Tx01evCTz64AI2A29Ge1vvaHPf6dM1ae7M/YQ17r3R1XPVKR5xQY6L5RtiS4Z46vxs5Sz3EYfG+ToJXyl+E181Du5HHfnYPkeHeu+3WjMVbivncoa9Q6UqlIrM6wEpHMtxXkNON5zh2c7ix85MPF2H74unXf757/yHy87d//nfQQmT0tfvCVrq+//jwX1L7F38vROp9+eXzftXcgGZt/mPV68aLe87Xqfn68dNeP67MEhMXoFlwO9rTel9jvle+a9bam/0Ja8aqd+aZ3sU30d57l7nMpt4IWzLcZLinJiA97EaOqlLH1jA+Fq8bWxio+lNrtlJhLF435lsJ19m5kOE+S+xU+7HqPTX0FRqDV7fKEbbfAu4ff/4edaW7OMndlvp0o6W9/Vn7V27/9OsH082VObTosIOPvTki+9na9b9fHfOaZNyEd5T/pZB6Y98unGzqMybvs/IDr8u/b8EO898NuK/8XuQBt3EoidBui6b7IdY+r/93+dnVpws/tc+0+j7r+23dW/zZ28lsDtNPZrPp/cr23qb2Z+1fvP2fe+/d1ndh/n+y7dEtGe7vijSJzFOwXWkel1byBLzS1RyLtxJb5LOwoCSvXLI8Fm8p5lsSXcuk8oDb2reI0O2YW7CyFRrh77Xd4o+NMlVhrHqnmtoMzoBXtwoRtnxLydTf0RH597Apw8fPCgH+pbxl4CqUutuMVW8ptth4vv8mh27/N5ZnszNWvW7MNzmB4Iqk+LU0xxQ3b566Ity06fgmHBf+fnZ7bbf4s7czQ81Y9c4wo6l8GLv3bhQ+1Uxv71uELRluMtxTE9CdU/kebinb4Xjd2GI/hX0WcN9mjZpIomVPoBTz7VsuU1OXipuobhGh29GguYM2wt/3bfHHhp6qMFa9U01tBmfAq1uFCFsn4E4nhr27pfoU77e3L9mhPjHMOeRLm9fntKnfc2vkk+O1LnrAZQUAACAASURBVPDs5mkMUyHhHcWzFFuMsv9wdjbqDfp/GPMF7Zs25rGT4teSP27cXBKh5fzSHW6bbF6fKi1ozsc9hJ/sWF+z3+KPNU6FfNz80Y3rTb03HtemvPa4hvci87VpWkG3vpHPNSfgNo8bC/ulbexIs0MCsD1EFGkA3gi9w75j8VZii0NPlmwwFm9LzLcYxn38mk/wbMBtfd2O9tQdtA6/ovzKIxtxzsJY9c45xzt6BV4d/Ahb7nBzh3tqAumcKvrJPULLwCkIR+667f0pxRb7lhepGateN+Y7SzLFmmd73at9in1Lo7tzcUW4sTD8Drc7qPTN3cxIMdZY9So8fGibY/feG+jhgWhH2JLhnvoGc+QspTvhLWMZvNKlHIu3FHZIpzCz8bF43YD77PTryd2z1tTt3WSzDerOpUWEbkcz6xbq8FsGdc3OXDlWvTPP9C6+gVeHPcKWgJuAe2oCutdm+L/qk7r6iMYjG9N+vkuGHftptteMxVuP+cyrjiDV+s5W6JiLSIR1+KJB77scY9V737lMODp4dYsSYUvAPXW4GVlaneCWsQxe6VKOxbtk2BHhPxZvPeYzPzuCVOs7W6FjLiIR1uGLBr3vcoxV733nMuHo4NUtSoTtt4A73dFJLp4t599ScrYv7evMYVvnE9SPvTlBO/ZuYydfr4R3FJNS2DHK/sPZsVuwOfPushvz7ZmkIHVfn8bNb1Ns2lh0u6lPHe0GZ7f/HXY65lISYdB/F77ZrAxqbW7JbchY7L3StRu7987zzg7RXsdekY8bYUuGmwz31ATs3VAUbNNXGMfmWLz1sOOCtMfiLcV8G7AWN2/q0695wL1pUO+4aXybX+suuXMRibAOXzTobSCXRhmr3tIol60Hr27pI2wJuKcONyNLqxPcMpbBK13KsXiXDDsi/MfijcR89b5pjvXoNsLhbN+6kOpzqfc964m1v8ugNvpdCmPVe5cpzDwoeHWrE2FLwE3APTUB3WvDP5qUsh2OVxTrqCHo7Ef2/b1XkZiv3jeNRcC9Z241dYBLKn+seo0khUQAvDolRNhyh/vbt1Cn5ZntrhJ3uKXrYm/ObOu+hj8J76i5lMKOUfYfzs7YO9z2+ZRfpdgzSXHzpt6NFzdtLODe1Nu4N6svCSndqa3Ppd63ey7uoHbHtzKotZHuk93zqqwpe6907cbuvZV1VGhjcpsRtmS4p87v2q5kEqQwkAB4B8LcmxqLtx527EdfvmYsXsOVB9xWaQWLm60m/Wfm+5Axb/D67bPb0drUB7VmQwp1Ie0nkvtW79vt3l0G7fZ2SEeReof4toAR8OoWMcKWgJuAe2oCutdm+J0HqauPaDyyMe3nK4p19gM9Ss1YvDbrPL60Siu4cXM9Xkx93Y5mtj6oNXMLZ/vWhVSfS72v615L5V0GbXFM10akXp3Dj2UZvLr1irAl4J463IwsrU5wy1gGr3Qpx+IVxTpSAlLjY/Gaq/X41Y2bK/FifdUqHc2fw0Ld4X33iEv1vvuxGmvqHESDNvomaiZSr8jbhzMLXt2SRdgScBNwT01A99qQ4ZayHY53ybAjsgSRfb8ybj1+XT7gNjIdHKzv2QIB91litK8TEG0O9UEv8jTCloB76nAzsrQXUX9kmuCN0Dvs24G3ElVXHh16smSDDrwtHDoCzUq8WF+1SscWV1ObusN7O3WXrH0dr3vwsL5nC3UOjQ6fHfS+7et47+vbAqODV7eIEbYE3ATcUxPQvTbDU7BSVx/ReMfG1BJbjI11HhFs8rkDb8tk6/GrC78SL9YXtNIxd9Ud1BrUHbZmVqi7ZM3qeOsumZHGQp1Do8ONY03SrI53Eicf1w3w6tYuwpaAe+pwM7K0OsEtYxm80qXswNsSW4yNdaQEpMY78Lb4U49fXfiVeLG+oJWOuavuoNag4rDbse6Sma3jdS1b37OFOodGh88Oet/2dbz39W2B0cGrW8QIWwJuAu6pCeheGzLcUrZ9eJeMLUScI/t+xaVK/Fr6dr9KvFhf0ErHNNa+u3le75uauWHx3qbbrI7X7WK+nS3U59Lo8NlB79u+jve+vi0wOnh1ixhh6wfcr948ue669e/ef3DrX799pj5h7OawWdpuO5vVxE4C8sv73zdkguu1sXZxzqbedg712KLdzhXW0fCa6obw+frxU8WOG2iW4sVXb57cBTX7pY5pRm5fm2ylr9nfeJvq62bNfv1zbWM59bJxzUhjfWUuhwePB/2czdXbze0s5+u0z/HarOHc+D4aMbe9se3g6Qfcm/Hqv9rw9WY87SAA2w5o7V3A286qo2UH3sZgqMOZ9bp04G2BQIY7UarjdQPuFrz1NnX49b6P9bSO97HmMqG34NUtSoQtAffUFyoiS6sT3DKWwStdyg68BNztK9KBt8V4PeZzA81Kgra+oJWOh5ndSt/6oPWnhqiO1+VgfbsLdfjdZifsWMc7ocOP5RJ4desVYUvATcA9NQHda9N3yVjqz2LGOzamxmBoMVB90+nA2zJQPeZzA83u2LfSMRJw2zRdbxuf1vHWLdsQZwt1+Getzdy+jndmzx/CN/DqlinC1g+4T91Nqd91c6d9yv6D3lHLJ949383SdtvJnbkyzw0H7nAnICJdmXrb7dcD7nY70nmZiu7rj+Ed68+j3OG2fWwfpNq6bMJiq0/E7OmmPj3lc22srmy9DK/UvhnfjHuR+v3mcE0O+XJb2X3f2/kY2w47fsBtnrUUbPiWxrQ5RQC2p3CdbQzes8ROte/AWw+4T42+fOMOvC1M9vFr3suC1LyykqiuL2il42GG2xyoOOx6ax3rT0V4bfSLF8ArFQB4dXgjbAm4p75QEVlaneCWsQxe6VJ24K3HZ1JvH854B96WOVbi1xQE741U4ub6glY6EnDvOa9UI1LvSogicwFvhF69b4Tti3fvPwT//OPDfwUt0L1EALYlMkPqwTsEY8lIB143PivZv3h9B944sZdfPu+NuHFzalZf0ErHd+8/1Pvu3djXuN5as/rTu+A135YvgFe6xODV4Y2w/SPDnW6idP+0u27dFuI+rGoBttKVTXe40a2IQId63RhLqgHR3G/g813U+/LL5z0xN25OBNwFNQtuR3ta79tC2PU2t2/lvbUO9Vas7e1fvOYu6r0Oc9SrW+sIW66UcKVkagL1v9wJPo383VBw6Ct0r9+Rda8uuDHWFVh1zPEu6nXX1I2b04zqC1rp2H6lpILO9dba15/eBa/5tnwBvNIlBq8Ob4QtAffU4WZkaXWCW8YyeKVLWQ9oCLiD8O+iXndNK3HzzAF3nf9d8NZdWukpeKWrCV4d3ghbAm4C7qkJ6F4bvodbyrb0D+xsUAJuQ9FXiOz7fSOW1pSAu5vnZTveRb3XoQ1e3VpH2HKH+0l31yduOXJbKD768ha4Ryi9dVq/QWvf95z7UEqI5m0oJwJ3Ua+7pqWA+9WbJ3dBbQXdjva03rdld3K9Nft1C+y9dT7Bp3dRb9DnRuXMMArq1a1ChC0Z7qnzu5GzlO6Et4xl8EqX0r1+YCOS4TYUfYW7qNddUzduTpNyg2abb6XjDe5wmxtu4S54XU+WrASvdFnBq8MbYUvATcA9NQHda8OVEinb0vUDG5SA21D0FSL7ft+IpTWtxM33Dbi7p8nmEEHX0vcu6m1xbI024NWtY4QtAffU4WZkaXWCW8YyeKVL6WZDbUQCbkPRV7iLeutr2jeR12+fXTGYNdGgZt8t3AWv68mSleCVLit4dXgjbLnDzR3uqQnobmK9fvvMPULFrcRSUjONVcqGpqf1vgpvH9fmXdQbuRVdeZdTwF1aixRwl56K6iM3NSszFXn7cCPeRb0PR6lbLahXt9YRtmS4yXBPTUB3TuVvjUVsS0FzGq4UcKen9b4ihx/UbCTR0j1lUbKZDHf3ijxox7uo90FZdbgN3g5ojV0ibL8H3OkslYY8VbZ4v6OvnULo6zKHrb0DLp+gflKWBe2NZVsPmksBd/Kh3nesn4++7mnfvzETC7jHjptnuPfrYoMG3/dTPrP3svfeUm9jx7Kg8JTmx/og1c8d5xVh+z3gNjpnCzb82Y60PyQA20NEkQbgjdAr9a0HzaWAO1mr9y2NeM36ldRLhvtqGl5JvROuHXh1ixJhyx3uqW8wW5Ylnef4OZYA9wjH8kzWSkFzeloKuFv6Krx9XJsrqTfPcO9XhDvceyaPXrOSeidcCyIHy9YPX50IWzLcU99gjpyldCe8ZSyDt2Up87/Qb2y/j7mtYyngTg32Hc+ObgMtX7iOeu+igevgvcubAl4pdvDq8EbYfg+40zkgeXmqbPF+R187hdDXZQ5be21cPkH9cIe75b3L84uN7fdxs61jKeBO67vvmAdbCg08rs207z+u/y1aSm3uogH2XntnFRpj723Xfwd/Cwo7+krXfQF/Imy/B9xG+WzBhj/bkfaHBGB7iCjSALwt9PJwp7H9Pm62jqWAOzXYdzw7ug20fOE66r2LBq6D9y5vCnil2MGrwxthyx1u7nBPTcBy2OlkPPYn9whbeKZwp6VlalMKmtPTUsDd0rfdhyu0vI56zypwyOpbhnuINek+9ogeXke9d1kd1Kt74yJsyXBzh3tqArpzKt/D3cj2bH6xFHCn4UoBd3pa79vo8EWaRRItj4XorAKHzO46eIfgOmsEvGeJnWoP3lO4TjWOsCXDPXV+N3KW0p3wlrFMlqUl+1LJL379+GlvoRQ0p5algDs9rffdj3Xlmuuot6JA3V7E3qtjy//yK2X76s0T6tURjrAlwz11fjdyljp1aLtmY/C2rHslv+h+fXIpaN6M5fa1NpVBrc3FC9dR713EcB28d3mPwCvFDl4d3ghbMtxkuKcmoDunkmVpZFvJL3ZkuBtz0i+/fG5s2TiL9ayR4ZauaSSPdVlNtq/IddTbzmRgS9SrewcjbMlwk+GemoDunMod7ka2lfyim6VuzHDXR68MWu94naeRRMtjUbqLGK6D9y5iAK8UO3h1eCNsyXBPnd+NnKV0J7xlLJNlqeRU3Lg5tb/BPWwy3Idv2XXUW/k7lkNKFYXX+7L31vkEn15Hvd0KjBBGvRF69b4RtmS4p87vRs5SuhPeMpbBm5bybKK6FHAna26kflYzd0lqnnXyvu2vo967iOE6eO8iY/BKsYNXhzfC9sWrN092Ausrp3i/r286SdC3xAG2Um388v53qf1kPPh+lbQxsD5dxd746cbNqU0p4E7zLXXc2B/o/6NwHuun5QiTWXiO5cDeO5bnRp/svdL9MOHdMB+7/0j9l2ovyCHClgw3Ge6pCejOqdzhNrYTZrjNNwolApFES8km9UYAvIZCUQCvgqrZBK+hGF6IsOUON3e4pyaQzuiin5YjFNm3HMDd7ddvwaaAe+NtKVGdz8X9lhKzwz3snNXw8nXUa4oazrBiOXJT85Z+PuhYqLeivfiaot44w5KFCFsy3FPndyNnqeEHu/UMRvC6WeFpEdVvwbpzcQPuzQTdjtYmgteMUCgRAG+JzJB68A7BWDIC3hKZIfXgHYLRNRJhyx3ub/ndOe8McY9Qui6Re4Tuved0Jpb63Hf/zDLcrm/uXNyA27IyyY513NQnDpG7bq6ffXN3fVvAvuUIF5jLhGvE3ivVVWTvZR84fF/Ye3WfxRG2ZLjJcE9NwD1ijqqMHFXryd1RHgbtuEGz2Sz928fUoN43talDiOA1JymUCIC3RGZIPXiHYCwZAW+JzJB68A7B6BqJsOUO99Q3mCO3hUo3kKg3ApYjtBrLHBzWpFizvf1dWrpBs3niBtz2tN73kM+rN0+ot4VSd5uIem2Vu0df3gLqlWoD9UrfINSrU2+ELRnuqfO7kbOUezijMicQwVtP7uaj3LHsBs3mjxtw29N6X2tWKUTwVszyKBEAr1QJ4AWvlIDUOOrV4Y2wffHL+9+Df/7+4V9BC3QvEYBticyQ+gjerx8/DfFBasQNmm1EN+C2p/W+1qxSiOCtmOVRIgBeqRLAC14pAalx1KvDG2FLhpsM99QEdOfU4Pdwk+E+XJpIJuDQOA3AK9UAeMErJSA1jnp1eCNsucPNHe6pCehuYr1++xy5R8gd7sM7iJG7btJ1P/T8IUaPqHcNAtJZoF7pW4B6Ua+UgE69kZ2BDPfU+d3IWUp3wlvGcgQvGe5DGUTwHhqnAXilGgAveKUEpMZRrw5vhO237+G2L7bsKNgXanb0pUudAGzrfIJPI3jzr6AOujGqe/qfHXNr7j1sa+De4ban9b7WrFKI4K2Y5VEiAF6pEsALXikBqXHUq8MbYUuGmwz31AR059TDO9wd/zuj1NtD43uH3aDZ7LgBtz2t97VmlUIkE1Axy6NEALxSJYAXvFICUuOoV4c3wvYv/9NkfuslnQ/ymlTe16cbLfv6Unvqc6p1bvvbQvX2uWU45zRcbnZUzVsaN/vfGfOnZmdzh9vqN/fSblmfMtzm/6s3T27QbB66Abc9rfdtmVeu3pb2LmfzJ59X3vKy9e4tWDiP0gOfa/lbNlxXG/UOt3/xfSN9tOUrOOq9wE7kc40M99T53chZSnfCW8ZyHe8+YZxPfMI73HuH3aA5n0Uq1+eyN7u34NbU8bpdqGwnAN52Vh0twdsBrb0LeNtZdbQEbwe0xi4Rttzhfkpn6zl/Wgp2Tvce3as63v2V6Hy+ojvcEbN7h92AO59FKkcG3Vuzmjpea0ahjwB4+7g19gJvI6i+ZuDt49bYC7yNoDqaRdiS4SbDPTWBxkNnX7P6UbWe2a1nhfv8ef32OWJ277AbcHf7drZjHe9Za7TfEADvBsjYX8E7lufGGng3QMb+Ct6xPHNrEbZOhju/o5OH/6X6/K5bS/uSHeoTvZxDfpbK6+GcE9hzy59WuOV4rYu13ySMrT61tKzwpn5vx2pSod7ezFqventrlm5s283FVO8G3HmXTfv8Ufu4qde+fcK7ry+1p/4U/4164TxWP3yujeW50aepd1NvrwD1Ef6GF55GIMIzNxL5XCPDPXV+N3KWys9klF0CLl43SLXu7j80tKfxAhnuOMOLWHDVe5G532Ca4JVCBi94pQR0xiPSdTLceSzfUt6fpVp60aaFAGxbKHW3cfG6AbcN4Qbc9jRe2Ge4221uUvKVbylptxlp6eKNGKRvTgC8OY3hZfAOR5obBG9OY3gZvMORmsEIWzLcZLinJqA7p5a+h9sNuM0NN+C2p/ECGe44w4tYiCRaLoIoMk3wRugd9gXvIaJIA/BG6NX7Rtg6Ge6zd6e465aOPme5tbTPz1It7e0QJr2bq5vvjf3P8drQbsBtPN2A2/rmhb712me4czt5DjuvT+Omp3l9aS5xP3MLqZyPm2oS3n19qT31iUAjh4164dzILYds7/Wm8tWbJz7XxvLc6NPUu6m3haA+wt/wwtMIRHjmRiKfa2S4p87vRs5S9VMaTx8xw73/HpJ8HfdP3YA77yIto17wSglIjaNe8EoJSI2jXh3eCFsnw53H8i3l/VmqpRdtWgjAtoVSdxsXrxuk2hDtGW7rcqqwz3Dn3fMMd16fyvun9bnsLYytcfGOHeLK1sArXX3wgldKQGoc9erwRtj6Ge70F237I4Jbn/7qbd84/ZUQ9REOm7OUyz9if7M6V7Of/nvhDQQ3SE1tXr15KgXcGyPW/my9e4fb1mWTw7b6NIo9tfrKXHLHrH1eGdeVqVdk37y9pn3De3EONn0rDNEDn2tjeW72k1y9Q9ZrY9+cv2Z9jtdQwDmhCHIwth12yHDzP01OTUB3Tn315sk9qrpBqrlRCritQakwxOw+h50Pt39aHzTvqyi7eBUDXdMmeKXrDl7wSglIjaNeHd4IWz/DbUeiloLF+y2NaXOKAGxP4Trb2MXrBqlm2Q247WmlMMSs5bDzgSqWK49yC6Kyi1c01gXNgle66OAFr5SA1Djq1eGNsCXDPXV+N3KW0p3wlrHs4nWDVJuyG3Db00ohYrbet/604pL6kYtXPeh17INXutbgBa+UgNQ46tXhjbD1M9yn7qZw183OUqe4tdwt25ylhts3z1PhavZveYfbDYuNvxvH29NS38nXy9Q7uZ/G+bH8NLwP6r+5bYWp+PO5Jl2XXL1TrXvL57KRSYUJ/c/xmrcT+mm+5YXJ/TS2HX6S4SbDPTUB3Tn1ge5wuwG3lMwQ45FMwBAH1jYCXun6ghe8UgJS46hXhzfC1s9w56eNw7LF+4ctaXCWAGzPEjvV3sXrRrdmtp6Ktmb7Qt3svr1b497hdlvOUOnincGxNXwAr3QdwQteKQGpcdSrwxthS4Z76vxu5CylO+EtY9nF60bGNmU34LanlULdbKXj4z5y8T7udGbzHLzSFQEveKUEpMZRrw5vhO0fGe50EyW/j5LXHNbbXbe8Vzpe5DWHdjae0N7+e2E7q8FzrK7SHe6c6uu3z25kbOOWAu6NetPXaeeWS2YX1rllAnIOC8/3xu9prl7T50aH1Hfrjc81qZ7zfz/D/jD8Pd2od7j9K+8zkc81MtxkuKcmoDunSu9w7//DSDfgls7u7sYjmYC7Oz+/A+CVrhF4wSslIDWOenV4I2y5w/1s5/gJC3aWmtC3BVxy8bqRsU3WzXDbUyvs/8PIulnruFLBxbvSBO87F/BK+YMXvFICUuOoV4c3wpYM99T53chZSnfCW8ayi9eNjG3KbsBtT61Ahrv0FwiGiEKQgKveoE26GwHwGgpFAbwKqmYTvIZieCHCdnuHe3+b6rBmc1vosP3m9g/tKwRgK1VLfgvWVqEUcCdPSgH3xs+zd7ht9I2dh65HvdLVdNUrHfGh1XiWDOo9S+xUe9QrfZtQ7yk1nlqLCFsy3GS4pyYw/HiaG3SPqqWAO3UsBdyHT+tmc6+WKbt4l5nd3ScCXukSgBe8UgJS46hXhzfCljvc3OGemoDuJtbrt8/uZSw3Mt67sb+l/frtsxuOp76NZvcDPW6Ni/dxpzOb5+CVrgh4wSslIDWOenV4I2zJcE+d342cpXQnvGUsu3jdyHg/5f0t7VdvntyAO/VtNLsf6HFrXLyPO53ZPAevdEXAC14pAalx1KvDG2H74t37D7+8/z3y8x8f/itoITL62n1hK13fv3/4196+GxnvFf7146d9X6upPH355fPe2pI1qNf0oFhfV73SERWzmNYm6pVqCfVKlY96deqNsCXDTYZ7agK6c2rpazTcgHvvhpvhtmaVpy+/fLZmaxcimYC1yQyZHXiHYCwZAW+JzJB68A7BWDIC3hKZeH2E7fc73OnfaaaLL6fK9m82O/ravySlr8sctnYTy+UT1M/+fzs7/J8mzZ/8Dvfet/xbSi6rbbvrtudzWSamnziThDduh7VwGbL3DtTqXmPu3hvcz911vKZN9l7dukfYkuGeOr8bOUvFT3LLW3DxDslwL4+uZYIu3paOtGkhAN4WSt1twNuNrqUjeFsodbcBbze6w44RtgO+hzv97bmdJ9Ipk59DCFiWZYg11mhDwP0u2FLAvemb57BZHZcA6t1oxqXU3cZVb7e1sb4tYA31SrWEeqXvCOrVqTfCdkCGu3Jd9fCsQIM6gchZqm6Zp9I73OAt4YXMKAJsDqNIunbA62IZVQneUSRdO+B1sQypjLAdcIfbMtz7e1rpDEd9Nwc7S8Gwm6GddPcM3XuEboZ737d+h3vfXuH/5DYjd90SwMraTT73G/jPHW6pBth7pRp2917e91HM2Xt1WoqwJcPNHe6pCQw5kpaMuEdVN+DeW+AvdvZMNjUu3k0bfu0mAN5udC0dwdtCqbsNeLvRtXQEbwulvjYRttzhfrKTUMqXTPXTsixTeTUzsVO+ufcISwH3Kcus16s3T6hXqhlXvdIRL6Vq1CvVEuqVvk2oV6feCFsy3FPndyNnqb7T26V6uXhLAfelyAyZrIt3iGWMcEVerQHUKyUMXvBKCeiMR6RLhpsM99QEdOfU12+f3SxLKeCWeiLNdtzL80gm4F4+P9C4rnofyP/JNY96pVpCvVL9o16deiNsyXCT4Z6agO6cWsoRlgJuqSdLGo9kApYEMnZS4B3Lc2MNvBsgY38F71ieG2vg3QAZ+GuELRnuqfO7kbOU7oSnsGzfdSM99288d7MspYB70/eWfj7oWNdR71204ar3Lp48qD7rrFBvnU/wKeqVvjWoN6jPyupE2JLhnjq/GzlLDTzS3cDUXb70w8VbCrhvAGGxIVy8i83xjtMBrxQ+eMErJSA1jnp1eCNsyXCT4Z6CABlu3Yn8XpYjmYB7+fxA45IjrGSh4uuIeuMMKxZQL+qVEqhoLzhuZGcgw02GewoCZLh1J/J7WY5kAu7l8wONC17pYoEXvFICUuOoV4c3wvZbwJ1OA8nFffnll892Jti3yUOlfd99e9q0M0lnqfb2j8s2z3DfbL725uTcSldK8jaUW9Yo4YVVC6uONpYj7Ohb2c9Zr8TzOnvvXfTj7r1ob9RasPfqtBRhW8twlyKPpImvHz/t/6RH/BxFwHalUQantZMf227mpIu3Lvub+bbAQC7eBeY1yRTAK10I8IJXSkBqHPXq8EbY1u5wu5FHOje8fvu8j7a/fvxkTy2DQk2EQOS2UGRcUd+XXz6XLOcZ7lKb4fWWI8wtu7JHzx0EFlNvB4FcV8PLrnqHjzLbrG/mD+qVagn1SpWMenXqjbAlwz3FDebSaSxylirZvGN9upvkOnCXDLfrTyngdt2mskJgMfVWZnqXR+CVYgcveKUEpMZRrw5vhG3tDncl8qhnuNNU0wmDcoRDOks9OsOKkNy/J7nZfC3gzteo5G3ehnLLGqWNCVYtrDraWI6wo69l1+hb0ucae++062tRS4k/9ZG1Y+/V6SfClgw3Ge5zBCxITdtBy89SCPvqzVMl4M4ti/Lf7lwq3uYuUT4kYJ+phy1p0EEAvB3Q2ruAt51VR0vwdkBr7wLedlZnW0bYcod7im+hTqex/c/IbaG9tSE1qHl6NgAAIABJREFUlXvYJfulELb+9ySHTy1LVxr3sN6dS8Xb+IiXsjChelfibxnuQ52vNOubzQX1SnWFeqVKRr069UbYkuE+l989exgKto+cpYJDl7q7WeFS41RfCmHzXm4OuzH/nds5VXbn0uLtqVEu23hC9a60FuCVriZ4wSslIDWOenV4I2wJuAm4zxFwg9S6uFtCWALuOsNHfBrZmB5xvjf2GbxS4OAFr5SA1Djq1eGNsCXgPhdu6lbRtRxZWtdgvFIUcLuOkeF2sTxK5YTqfRR0LX6Ct4VSdxvwdqNr6QjeFkrdbcDbje6wY4St9g63e0dWd7dmPcuR20IiGh1rWspwH3roBtyHvdrvxrlz6fa2fdyLtJxQvSuR5xasdDVR78Cddr9SqHfPZGAN6tWpN8JWm+HuyIYeHi8u1SBylhKB6ljTUgh76KEbcB/2am/gzqXb2/ZxL9JyQvWuRB680tUEL3ilBKTGUa8Ob4QtATdXSs4RcIPUuri7Q1gC7jrYyZ9GNqbJpzaDe+CVrgJ4wSslIDWOenV4I2zvGXC7/05Oh+kRLUeWVjTfeQLu7nC8fgCoPxVRXdLshOpdiTN4pasJXvBKCUiNo14d3gjbF6/f/pHg9O67PLmRh7V3w52NnX/fkS3a//rx06b9vz0pti/5uXC9d1voznx2956P/XGFtFu1mp10NvurWvz/NMf0afbTCSGvb/RnN9Pnf9us+flXD6/e/q/qhdtgPRRuwcJ5DOc/1QvPMTz/3Bu/8dypF84jOb97/7t9Av5JfqT9/PP0avb/3Bl6eEoy3KWAJp053Ehddxx5aMuRs5Ro4vUMt/u3FnU9tPjpmm0U0t7hRn/2HVtcpY0RmFC95tsCBfBKFxG84JUSkBpHvTq8EbYvfnn/e+mPG5dYYzfcSU+7O5pxConA3z/8azYUL798rrj09eOn/dO6Hvbt9zWu2YoCcwt7h+P+5PYplwhMqN6Sq49YD17pqoEXvFICUuOoV4c3wpYM9x9/kzXtn8hZSjSpet7XTUW7Ae4p91yzbsC9N7t3OO7PfhRq9gQmVO/eycetAa907cALXikBqXHUq8MbYesE3OlGzqs3/h1um0Yl3KkHNKWONq4NkQpXrs+XdhIOFr+6/ti9/HwR63pw7dj9s2QnD7itfUlIqUtl0Mqjzbj5LGzcvJL2RmPPJ6l3X5+6UB/kkG8O6LCiwz7O6aammbUCuu3jueFm6t3Uw9kIRDgbXrMG5whPw/jqzVPkc80JuM10PS6phDvdHW1oConA/rW5OxkLuF1P8sjYGtT1YM0qBddsRYGHx8U01oR4KxAe7hF4pUsGXvBKCUiNo17wSgnojEeke7mAux4v6hapz3JkaftGPOxVB+hGxgTch1SXbDChelfiDF7paoIXvFICUuOoV4c3wpaAe94L3PaXFzrpuJbrIXX9KQG3i/SalZGN6ZrETs0avKdwnW0M3rPETrUH7ylcZxuD9yyx9vYRtt8C7jyKsrs+jYlJN8ZKdwpzszaf0k0AGze1NLOberPTV793KbeTP83rbdAb35XMl/Zm/uQQ9vO1p64/D3GHO63m67fPOV5bYndeew60NwLGc1OT8MKzxCdYv1EvnIM8N+rlDvdYnht9mno39bYK1Ef4G154GoEIz9xI5HPNCbjNdDDgNjubQing3jfb1Az51eJF11r9qZ0B3L6Kyv1roxhlY9OFUBdDfU3rfTeju7+65OOD3gWvO8ElK8ErXVbwgldKQGoc9YJXSkBnPCLdqwTc9Ziv/rQe2OnWdaorJRFE9b4tAN2A2zrWn7rnh9Q38ubY6BRKBMBbIjOkHrxDMJaMgLdEZkg9eIdgLBkBb4lMvD7CloD7L3e43eCMgPvwSz/qiAi44y/5I1qIbEyPON8b+wxeKXDwgldKQGoc9erwRtgScBNw/4VAiq33Yq0HzTMH3Pu5WE3kzTEjFEoEwFsiM6QevEMwloyAt0RmSD14h2AsGQFviUy8PsL2xT6QMof2j0oJYOvSUqgHZ2ah+56AWcgLjXMpTXDvc25cV44sbbdXLoQ6wD2ffPnqfbv9tI75WFbZUrgL3hbH1mgDXuk6ghe8UgJS46gXvFICOuMR6dYCbvPYjcDs6dnh68GZma1HUXWXzIgVGmM+12yjwzbWwMJZtkOGdiHUAdYR1fvGfa5LpWL/Lngr/iz2CLzSBQUveKUEpMZRL3ilBHTGI9KtXSkxj90IzJ6eHb4enNWf2qAVl9zwKxLzNbpkvg0snGU7ZGiXbR1gHVG9b9xnd8VbzN4Fb4tja7QBr3QdwQteKQGpcdQLXikBnfGIdJsC7rrr3cO7cVJ36NbdsT67V2+e6pYPu0cadLONDErAHaFHXyNwF/Xa6MsXwCtdYvCCV0pAahz16vBG2H4PuH/46Z25eKr8y/vfT7V/9eYptU8B96avG91am0qu1O1oY1U6Wps0fRvL6kuWS+0H1nezjfiQAu4NBxegtakg+uGnd/W+xrnbZzu5mT+NNv/2/FsatLH9WfsXb28b08U5iDSW8MK2e9+or8td9l7RXCbc39h7pWvN3qvTfITtt4Dbtp6Ogg1/tq/FSXnHSuhW/3K67o756G65btntMqqym23EgY4Mtw3nrqk9dS3b0+5CfdCK2bvgrfiz2CPwShcUvOCVEpAaR73glRLQGY9Il4B7+6V4+3W6Y8AtilD3c8xr3EHdLHXeK5Xrsa9reW/kbE190Iq1yJtTMcujRAC8UiWAF7xSAlLjqBe8UgI64xHpEnATcG8JuGExAbfuBV7VcmRjWpXJwHmBdyDMvSnw7pkMrAHvQJh7U+DdMxlVE2H7PeDuvgsouuuWpy1bfCvloVPferxYt1+ynNav3jfY5uWXz1L77j2nFHBvxnUBbtqkf2Dq2kwc8lB+37eblUnlrE3uEXYzTx0ra/3DT+9sYzq7LrRvWZeEF1YtrDraiD7XWK+0Fuy9HZqs77fJYGrD3tvOKufWUo6w/R5w20hnCzb82Y719hZF1ZvZ03pY7MaL1rdeqFuu901P80Czpb21qXc8i8jM1gvuoI0A6y65luvOtDytD1qxIJJuZcRLPQKvdLnBC14pAalx1AteKQGd8Yh0Cbi3Fyr26zRbwN3oT3cY6obFQwLuPdshNd0zjbw5Qzxf2wh4pesLXvBKCUiNo17wSgnojEeku07A3cjXjSbrfRsD3IqRs4PWo9tGf86GofVB609t7mcHtY53KUTenLs4/FiDgle6XuAFr5SA1DjqBa+UgM54RLp/BNzpVln3T7vr1m3B9SGFbmNt9lkrBbi5tRRS5zV5uf50P9NSdJtstvjzw0/vvn78lPtwWHYHtV71p7aC+7mYBWszT026RziPP4t5ItoZFqPU/V6gXqkSUG+3MlvWBfW2UOpug3p16o2wvVyGu+PcUwpwc1P1HHb96T4r7Ea3NlyLP/bvF61XKlQsVx7lRs7OJe87WzlyVJ1tLhP6A17pooAXvFICUuOoF7xSAjrjEen6AXc6V+09dust3m9sbyePevs8DHXHbbSTj9JnpyXAzXPY+YipXApSkz/5TK39Pvy1+bb4kwLu/Xz3ZnPfUvu8JvmT28mf5vWpZZ7hTjX5z337vf1bts//pfwtx52Ng8gf25hE9m3Jrmnf8F6cg03fCkP0IPpcMydtP89rUnmI/5Pbz9V7hfnmq3yD+eZ4begbjGtj5YXFxjW2HfPyA+4c1mHZhj9searBPgw91X1g45YANw9D90PXn+5nWg+LW/zpyHCb23Vv60/NyEMURNJ9iLnfwEnwSiGDF7xSAlLjqBe8UgI64xHpcof7nWUC0nll/7MU4OYtUxia1/zw0zs3brY2rtn01O1ofrod7Wlu38r2tG7ZRrf2roXK0337mWu4RyhdHcsRSkdZRo1nKaHes8ROtUe90jcL9Z5S49m1QL1nibW3j7Alwz3mawHdvG8puk1nr1Lc/OrNU3fH/FS3T5wfWk7d3bnklpcpR46qy0DQTQS8Orav3jyBF7xSAlLjqBe8UgI64xHpfg+403kreXmqbPF+R187Vczcty8yrme405WPveXEoRRwp3XZ98pja1s7+5aSnG3J8qbNQ6xL7nNfOb/DbdwuMvcbzNc2phuMlQRwqbVLeGHb9+4fclv+c03ErfEdZO+V8mfvbdTh4T6wtxNh+z3gtk+sswUb/mzHR2lfCXDr8WvjBPNwedPFTTZX/Mm7u2ZbHHYHzS0vU15euvddKfBK+YMXvFICUuOoF7xSAjrjEenOe4c7nTxm+FkKcOs57HbPU2Tstn/55fO+vuJPJXGe7JQC7nyUFHDnNauWuUcoXVnLEUpHsQzE1UZBvdIVR73SNwv1ol4pAZ16IzsDGe7QHe5S/HrqdOWmopOFerLZ7VgKx83g3udT3q7UOHJUXYmDaC7gFYFNZsELXikBqXHUC14pAZ3xiHRf/PL+9789/xb5+fcP/wpaiIx+g75uCJvG3QevL798Pkvj68dPpVnUrX39+Gk/VsXbX97/7jpcGn35+v/4/T+Xn+NeITerWX5nuBlJV6WoV8of9bqqG8Uc9Y4i6dpBvTr1RtiS4SbD/Vl3FpzccuSoOvnUZnAPvNJVAC94pQSkxlEveKUEdMYj0uUOd+h7uN2E8dmbSWfvcJt9+x4Sqxlyhzu3tnaZe4TS9Y3cddPdwFvGMupFvVIC0jcF9UrXjr1Xp94IWzLcxxluOyq5d6bT0/pla7PgFrrNuh3dKyU2rntCsKdXK0SOqldj1TFf8HZAa+8C3nZWHS3B2wGtvQt421l1tARvB7TGLhG2ZLiPM9x2EnUzyulp5Js9yHAbYd2p1LVMlkVKPpIJcNdL6u3DjYh6pXpAvdI3AvWiXikBnXojOwMZ7qkz3PWzFBnuxiNpqVkdb6kX9Y0EwNsIqq8ZePu4NfYCbyOovmbg7ePW2Au8jaA6mkXYvvjhp3fuOaO9PsX77e3TyeMR2+cZ7o3/luHe1BvbSr2b4U7t92ep3I7rT+lKSfKkdKWkxU9rk58dc38erv5vz789tP/J+WnXJVcvnIfve26OEM6jOF/nc+0u+/ZGveh2lG6TnfTRlq/sWPtXXq/I5xoZbjLcfEvJCQ10HIgv2yWSCbgstPaJg7edVUdL8HZAa+8C3nZWHS3B2wGtsUuELXe4p77DnZ+l9qdVtyaY4XZtujnUBVpusiwLzGiqlepQ71T+T64H1CtVC+qV6h/1ol4pAZ16IzsDGe4T2U33znQ6FYm+paTjLFUKuM3P/a2SxoPdes068K4HQTcj8OrYvnrzBF7wSglIjaNe8EoJ6IxHpMsd7m8Z7pY7Se6d6XRKi9zhds95yZ/9WerQz1LAbX66Abf5cGjfWqYT5EO35w63raZiHXP1KuznOYwL2ndzhBfkYBoeq4ekXniK9vmNeuE8ljN3uMfyzPUZ+Vwjw33/DHflKNZxlioF3GmUfbQdyc1XPH+IRx14H2JekzgJXulCgBe8UgJS46gXvFICOuMR6XKH+/53uN0MTTqf5WepVHP4sxRwp1FKAXfFh8MRH7fvJsuy8EzvskYd6r2Lnw+67qhXqhbUK30vUC/qlRLQqTeyM5DhPpHh1p2ZSpY7zlKlgDsNUQq4Sw6sXd+Bd20gY2cH3rE8N9bAuwEy9lfwjuW5sQbeDZCxv4J3LM/cWoTttzvc6YZK30+7CNvXnV4VAh1s3YDbhnADbnt6tUIH3qshiswXvBF6h33Be4go0gC8EXqHfcF7iCjSALwRevW+EbZkuMlw8z3cU2sgP1s/VjmSCXismd7FW/BKsYMXvFICUuOoV4c3wpY73CfucOtuBZUsd9wWcjPcZt/NcNvTB71T1e0/9wilK96hXqk/3TqZ0yvUK10X1Ct9X1Av6pUS0Kk3sjOQ4Z46u9lxlioF3OnAVwq4dcfBmS134J15OrP5Bl7pioAXvFICUuOoF7xSAjrjEelyh/td/b7OfZ923BZyA26bhRtw29OrFTrwXg1RZL7gjdA77AveQ0SRBuCN0DvsC95DRJEG4I3Qq/eNsCXDTYabO9xTa0B3UldbjmQC1L4tYB+80kUEL3ilBKTGUa8Ob4Qtd7i5w/1HwP2gt6mCnnOPULrukbtuwZWVzmsS31CvdJVRr1TnqBf1Sgno1BvZGchwT53d7DhLuVdK7LTnXimxp1crdOC9GqLIfMEboXfYF7yHiCINwBuhd9gXvIeIIg3AG6FX7xthyx1u7nB/rt9YWvhp5DLWwlhGTQ28o0i6dsDrYhlVCd5RJF074HWxjKoE7yiSezsRtmS4yXBzh3tqDdRP2zM/jWQCZp7XJL6BV7oQ4AWvlIDUOOrV4Y2w/ZbhTvddUix/tpxutPT1PTvW1dp3sC1dKUkL5F4pueza2VH1arq6zXwT3tuMdUEN2y3YC87dbn/q5t6x9yZnbuDbAu8Ue69UJ+y9unckwpYM99TZzY6zVCngTgc+N+DWnQUnt9yBd/IZTeUeeKXLAV7wSglIjaNe8EoJ6IxHpMsdbu5wc4d7ag1Y2uzhCpbEejjPH8Jh8EqXCbzglRKQGke9OrwRtmS4yXBzh3tqDehO6mrLkUyA2rcF7INXuojgBa+UgNQ46tXhjbDlDve37+FO5yHdvZ8++x33CEtXSpID7pWSPt9mY9Xhjx1VO/omaNJ7eI++LgkvbEXryB1u6TvYsfdK/VnsPWLvlX52sPfq3pcIWzLcU2c3O85SpYA7HfjcgFt3FpzccgfeyWc0lXvglS4HeMErJSA1jnrBKyWgMx6RLne4p76/a2kAy50cFtyA23q5Abc9vVqhA+/VEEXmC94IvcO+4D1EFGkA3gi9w77gPUQUaQDeCL163whbMtxkuLnDPbUGdCd1teVIJkDt2wL2wStdRPCCV0pAahz16vBG2JLhJsPNt5RMrYH6aXvmp5FMwMzzmsQ38EoXArzglRKQGke9OrwRti9+ef978M/fP/wraIHuJQIdbN0rJWbfvVJiT69W6MB7NUSR+YI3Qu+wL3gPEUUagDdC77AveA8RRRqAN0Kv3jfClgz31NnNjrOUG3Dbac8NuO3p1QodeK+GKDJf8EboHfYF7yGiSAPwRugd9gXvIaJIA/BG6NX7Rthyh3vq+7sdt4XcgNvuM7kBtz29WqED79UQReYL3gi9w77gPUQUaQDeCL3DvuA9RBRpAN4IvXrfCFsy3GS4ucM9tQbqp+2Zn0YyATPPaxLfwCtdCPCCV0pAahz16vBG2JLhJsPNt5RMrYH6aXvmp5FMwMzzmsQ38EoXArzglRKQGke9OrwRtmS4p85udpyl3Csldtpzr5TY06sVOvBeDVFkvuCN0DvsC95DRJEG4I3QO+wL3kNEkQbgjdCr942w/Z7hTv/RaDoWnCqn/wLXzhOn+qb/fpO+JQ4dbN2A2+y7Afdl+af/HLtD88aTvpX33TIBlTaX1V6cScIbt4OGXYYde69rh73CfcfZe6XvHXuv7r2LsCXDTYabO9xTa6B+2p75aSQTMPO8JvENvNKFAC94pQSkxlGvDm+E7fcMtx1DzxYs3j/bkfaHBDrYljLcaax6hvvQn8UadOBdjIB0OuAFr5SA1DjqBa+UgNQ46tXhjbAlwz11drPjLOUG3HbacwNue3q1QgfeqyGKzBe8EXqHfcF7iCjSALwReod9wXuIKNIAvBF69b4Rtt8z3N33z7jrZmepboal+0YdbN2A2+y7AbfOfxs3DTGcT9A+9wil62KZgNnWfQ1/Et415iLVYd/+1rH3shbt68je286qQ1fsvcHYoMI8wpYMNxlu7nBPrYH6aXvmp5FMwMzzmsQ38EoXArzglRKQGke9OrwRtt8z3JYGOFuweP9sR9ofEuhgW8pwp7HqGe5DfxZr0IF3MQLS6YAXvFICUuOoF7xSAlLjqFeHN8KWDPfU2c2Os5QbcNtpzw247enVCh14r4YoMl/wRugd9gXvIaJIA/BG6B32Be8hokgD8Ebo1ftG2P6R4U63Vbp/2l23bgtxH1a1EGH79eOnyoq8/PLHTZJVuTXOK90jhIOIQES9jSso8vwhRke90tVHvdK3APWiXikBnXojOwMZ7tUy3HY4SwG3/boppIB7U3m1XyNH1aux6pgveDugtXcBbzurjpbg7YDW3gW87aw6WoK3A1pjlwhb/w53OnnsL8G49RbvN7a3kwftXZ45n81tocP2OVLLcOeVqfzDT+9efvns1u8rc382T0/5M6Gd/F/K51N79HlN4r+pdxJ/bInX8MfwLjYvm44V7rJefK5J+efqvcv6Tvh5NJBDjle6jmZ8bZ75NI1tx3qR4V42w10/rpHh/uGnd5Gjah0vT8Gr1gDqlRIGL3ilBKTGUa8Ob4Qtd7invsdsWZZ0lhr4kzvcr948cY9woKIsw2E2derdj3XBGtRrSlOsPupVUDWbqBf1SgmY0oaPEtkZyHCT4Z6agO6cSgpWyha84FUTkNqP5LGkjq1hHLzSdQSvDm+ELXe4n+wklF/TSeV0Nrpjvd0WGu4Pd7gtw33H9d0MfXe9jfXH1LvYvIzSfedleCfxx9ywwn35mBtWOOWP5bGsuxVO2Zn588VmlAq3nFeu3luOm0954XFzvDblhedrc8wLovka2w77ZLinzu9GzlL1Ex53uEnB1hUSf6pTb9y3BSyAV7qI4AWvlIDUOOrV4Y2w5Q73Re9wW94lndKu+ZN7hNJ1txyhdJTLKhn1SnWFeqVvFupFvVICOvVGdgYy3BfNcOvOfw9kOXJUfaBp3stV8ErJgxe8UgJS46gXvFICOuMR6ZLhJsM9NQHdOdXucD/oOVtKZgiTSCZg/tnd3UNyhENUWlpH1FsiM6Qe9aJeKYEhKnU9jOwMZLjJcE9NQHdO5Q63lC14wasmILUfyWNJHVvDOHil6wheHd4IWzLcU+d3I2cp3QlvGctkWdwT/Kj1Rb2jSLp2UC/qlRJwVTdqRNQ7iqRrh71Xp94IWzLcU+d3I2cp3QlvGcvglS4leMErJSA1jnrBKyUgNY56dXgjbMlwk+GemoDunModbinbH356F8kEqH1bwD45Qje3N2plUe8okq4d1It6pQRc1Q0ZMbIzkOEmwz01Ad05lUvGUrbgBa+agNR+JI8ldWwN4+CVriN4dXgjbL8F3PvTQHK3pT7F++3tk03at3DYn6Xg1sKtRbcpww3PgTwTTMsi5OqF83DObo4QzqM487mW76LDdbVR73D7tguN0sNj2UlBYb6Cj+X/zHqIfK6R4Z46vxs5SyXJ8rNCALwVOPFH4I0zrFgAbwVO/BF44wwrFsBbgRN/BN44w5KFCNsXv7z//W/Pv0V+/v3Dv4IWIqOv3Re20vX9j9//U2r/4u8F6pWqC/VK3y/Ui3qlBFCvlIBu7SI7AxluMtxTEyidMofUR46qQxxY2wh4pesLXvBKCUiNo17wSgnojEekyx3ub9/RkZZntjtP+W0h7mDlqzNkvezNyS3DOacR4ZyrN2JnlD+L2dncgkW3Y9eXO9xjeW70uVEv+8OGT/AOevpoy1dwrP0rr1fkc40M99T5XYsIk775OZYAeMfy3FgD7wbI2F/BO5bnxhp4N0DG/gresTw31sC7ATLw1whbvod76m+hzs9S+9MqNUECmyxL0NomJ4E11CvVAOqVvnGoF/VKCaBeKQHd2kV2BjLcZLinJjDwYLo3FTmq7q1RsyEA3g2Qsb+CdyzPjTXwboCM/RW8Y3lurIF3A2TgrxG2TsCdTgZ7/0r1Kd5vb1+yQ31imHPIlzavz2lTv+fWyCfHa13g2c3TGKZCwgvPUTw3djbqhfOGT/rVfp7lw+faWJ4b/qbeTX33emEnXy/DC08jkPPZVFquvaU+8rnmBNz7Ies1+6Wtt+dpOwHYtrPqaAneDmjtXcDbzqqjJXg7oLV3AW87q46W4O2A1t4FvO2szraMsOUON3e4pyaQ8hain9yCtZO9gnDkrpvCn8Vsol7UKyUgfV9Qr3Tt2Ht16o2wJcM99Q3myFnq7Lntgu3BK1108IJXSkBqHPWCV0pAahz16vBG2BJwE3BPTUD32vzw07vImyN1bA3j4JWuI3jBKyUgNY56wSsloDMekS4B99ThZmRpdYJbxjJ4pUsJXvBKCUiNo17wSglIjaNeHd4IW+5wT32DOXJbSHeHaRnL3CPkHqGUgPRNQb3StWPvRb1SAqhXSkC3dpGdgQw3Ge6pCejOqVwpkbIFL3jVBKT2I3ksqWNrGAevdB3Bq8MbYUvAPXW4GVlaneCWsQxe6VKCF7xSAlLjqBe8UgJS46hXhzfCloCbgHtqArrXhhSslC14wasmILUf+ViVOraGcfBK1xG8OrwRtt8C7nTfJbl4tpxutPT1PTvW1drDVqore3OupqvbzDfhvc1YUp0k43bjcJKx7A73JP7MxifoD3uvVFfsvUF91vdV9t46n4i2I2zJcE+d37VdKemDn2MJgHcsz4018G6AjP0VvGN5bqyBdwNk7K/gHctzYw28GyADf42wJeAm4J6awMD3ZG8q8ubsrVGzIQDeDZCxv4J3LM+NNfBugIz9FbxjeW6sgXcDZOCvEbYE3FOHm5GlHaiwVU2BV7qy4AWvlIDUOOoFr5SA1Djq1eGNsOUO97fv4U7Lo7v302efe4R93BrX0d6cxvb2DtO+ZV0SXli1sOpowx1u6fvI3tuhyfZ7yey97aw6dM7eq/vcibAlw02Ge2oCttcoCrbpK4xjE7xSDYAXvFICUuOoF7xSAjrjEekScE8dbkaWVie4ZSyDV7qU4AWvlIDUOOoFr5SA1Djq1eGNsCXgJuCemoDuteGLoqVswQteNQGp/cjHqtSxNYyDV7qO4NXhjbAl4J463IwsrU5wy1gGr3QpwQteKQGpcdQLXikBqXHUq8MbYUvATcA9NQHda0MKVsoWvOBVE5Daj3ysSh1bwzh4pesIXh3eCFvVHcofAAAGHklEQVQC7qnDzcjS6gS3jGXwSpcSvOCVEpAaR73glRKQGke9OrwRtgTcBNxTE9C9NqRgpWzBC141Aan9yMeq1LE1jINXuo7g1eGNsCXgnjrcjCytTnDLWAavdCnBC14pAalx1AteKQGpcdSrwxth+z3g/h8//mIunir/7fm3U+1/+Okd7RPqQw6w7dNko8b+19M/pPYP17fRzwe1YxvTg/o/uTYSXtg27qVn3zX2Xqn+2XtFuk06Z+89+763t4+w/R5w29t1tmDDn+1I+0MCsD1EFGkA3gi9w77gPUQUaQDeCL3DvuA9RBRpAN4IvcO+4D1E1N0gwpaAmyslUxPofitaOkbenBb7F28DXqkAwAteKQGpcdQLXikBnfGIdAm4pw43I0urE9wylsErXUrwgldKQGoc9YJXSkBqHPXq8EbYvvjb82/pz/96+kdf+T9+/8/uvn97/o2+Ff6w7dNko67+z2//T2r/4tr+j9//s6LtxjW6OMOKPhNe+Ig0xt5b0V6cOXtvnGHl3Wfv1X2+RNiS4SbDPTUB3TmV762TsgUveNUEpPYjeSypY2sYB690HcGrwxthS8A9dbgZWVqd4JaxDF7pUoIXvFICUuOoF7xSAlLjqFeHN8KWgJuAe2oCuteGFKyULXjBqyYgtR/5WJU6toZx8ErXEbw6vBG2fwTc6Ztcu3/a95V2W4j7sKoF2EpXNn0XLLoVEUC9qFdKQKTb5DPqla4dey/qlRLQqTeyM5Dhnjq/GzlL6U54y1gGr3QpwQteKQGpcdQLXikBqXHUq8MbYUvATcA9NQHda8OdBylb8IJXTUBqP/KxKnVsDePgla4jeHV4I2wJuKcONyNLqxPcMpbBK11K8IJXSkBqHPWCV0pAahz16vBG2HKH+xfdXZ+45chtofjoy1vgHqH0Fh3qlb5BqBf1SgmgXikB6dqx9+rWLsKWDDcZ7qkJ6M6p3HmQsgUveNUEpPYjeSypY2sYB690HcGrwxthS8A9dbgZWVqd4JaxDF7pUoIXvFICUuOoF7xSAlLjqFeHN8KWgJuAe2oCuteGFKyULXjBqyYgtR/5WJU6toZx8ErXEbw6vBG23OHmDvfUBHQ3sX746R23YLlHKCWAeqUEpGsXuan5uLO+mefsvahXSkCn5MjOQIZ76vxu5CylO+EtYxm80qUEL3ilBKTGUS94pQSkxlGvDm+E7feAO502kpenyhbvd/S1Uwh9XeawtdfG5RPUT8qyoD0F2//x4y+2MYnsS7Uxv88J7/x+Puj7xd4rfb/Ye6XvBXtvMDao7KsRtt8Dbnu7zhZs+LMdaX9IALaHiCINwBuhd9gXvIeIIg3AG6F32Be8h4giDcAboXfYF7yHiLobRNhyh3vqG8yWZUnnLX6OJcA9wrE8N9ZQr2VZNmSG1KNeBVWziXqHqNR4bqyh3hKZIfWod6O3IVSTzQhbMtzc4Z6aQPcxtKVj5KjaYv/ibcArFQB4wSslIDWOesErJaAzHpHu94A7nQCSl6fKFu939LVTCH1d5rC118blE9QP9wil751tTIq1w2bCCweRhtl72XuDny93fDfZe3VrF2H7PeC2t+tswYY/25H2hwRge4go0gC8EXqHfcF7iCjSALwReod9wXuIKNIAvBF6h33Be4iou0GELXe4ucM9NQE7p6Zswdif3CMcy3NjzXKEm3rpml5nLNQrXWvUK31PUS/qlRLQqTeyM5DhnvoGc+Qs1X2Au05H8ErXGrzglRKQGke94JUSkBpHvTq8EbZkuKfO70bOUroT3jKWybJIcwyoV/qmoF7UKyWAeqUEpGvH3qtbuwhbMtxkuKcmoDun/vDTu8hRVerYGsbBK11H8IJXSkBqHPWCV0pAZzwiXTLcZLinJqA7p/7w0ztyhGRZpARQr5SAdO0ieazHnfXNPGfvRb1SAjolR3YGMtxT53cjZyndCW8Zy+CVLiV4wSslIDWOesErJSA1jnp1eCNsyXBPnd+NnKV0J7xlLJNlkeYYUK/0TUG9qFdKAPVKCUjXjr1Xt3YRtmS4yXBPTUB3TuUOt5QteMGrJiC1H8ljSR1bwzh4pesIXh3eCNv/D9ay1/MJS8DZAAAAAElFTkSuQmCC;" vertex="1" parent="1">
          <mxGeometry x="40" y="40" width="1156" height="482.06" as="geometry" />
        </mxCell>
        <mxCell id="OAs59v_ub1j7-5ITEAdP-2" value="Marcador" style="shape=callout;whiteSpace=wrap;html=1;perimeter=calloutPerimeter;" vertex="1" parent="1">
          <mxGeometry x="420" y="160" width="90" height="60" as="geometry" />
        </mxCell>
        <mxCell id="OAs59v_ub1j7-5ITEAdP-4" value="Orders Panel" style="swimlane;whiteSpace=wrap;html=1;fillColor=#fff2cc;strokeColor=#d6b656;" vertex="1" parent="1">
          <mxGeometry x="1215" y="40" width="565" height="480" as="geometry" />
        </mxCell>
        <mxCell id="OAs59v_ub1j7-5ITEAdP-5" value="" style="shape=image;verticalLabelPosition=bottom;labelBackgroundColor=default;verticalAlign=top;aspect=fixed;imageAspect=0;image=data:image/png,iVBORw0KGgoAAAANSUhEUgAAAg4AAAGpCAYAAADlSr7yAAAAAXNSR0IArs4c6QAAAARnQU1BAACxjwv8YQUAAAAJcEhZcwAADsMAAA7DAcdvqGQAAP+lSURBVHhe7P15nKTVfd+Lv2vf972qt5nu6RmYHhgGRkhIIIQlgkC2ZRtBRBYIdpThXtlXIcFXVzfD9YX8iHPJnZ9zw+8HPztWkJPgCIgjyWIJshACgoSB0QADzNYzvVVVV1fXvu+/P2qZ7urqquruquoeeN6vFy966jz1nKqnnuecz/me7yL6/KGvVRAQENgQIhFYDM2v7lyWo82vCAgICGwOkSAcBAQEBAQEBLpF3PyCgICAgICAgMB6CMJBQEBAQEBAoGsE4SAgICAgICDQNYJwEBAQEBAQEOgaQTgICAgICAgIdI0gHAQEBAQEBAS6RhAOAgICAgICAl0jCAcBAQEBAQGBrhGEg4CAgICAgEDXCJkjBQS2gZtvu4Fvfft3UatVABz/2/e5/76HG+0PHD3CbV+9CYBCochffu+HfPfx7zfaV3Lo8BTfeeibWO1mAGbOL3DP1+7vur0Vxx4/yqFPHQAgnc7wJ3/857z03Kurjqmf9803TvDow0+saltJL7+rgIDA9iNYHAQEBsyhw1N845t3cerkOW68+g4eefAx9k1N8MDRIwDce9+dfOHmz/AX//6/cuPVd/DSc69y+123cvNtNzSfCoA/+MN7SSbT3Hj1Hdx/5CG0WjXHHj/adXszDxw9wr6pCR558DFuvPoOTp08xze+eReHDk81jmkWI+vR6+8qICCw/QjCQUBgwPzaLZ9DrVXx4o9/DsBLz73KqZPn2H/FJAA33HQtS4uhxqr7py++TjqZ4cpDl0PNGvDsC09w6PAU9953J3anhVdffhOA42+d5M03TjAy5umqvZlDh6e49rqDnDp5rmFhePHHP0cml3Hwmv1Q6//YEw9CzRrR/P5nX3iiIUy2+l0FBAR2HoJwEBAYMC63jXQyw/JSuPGa3xfE7rTwjd+/C61WTXg50mg7/tZJksl0Y7K9/76Huf3LRzj+1kksVhMAC3P+xvGh5QhqrYqD1+zv2N6M1W5GrVXh9wUbry0vhSnkC0zV+o9G4jzy4GP86WNPrXhnleNvneT2Lx9pbEVs9bsKCAjsPAThICCwDSSTaY6/dbLx79ByhEK+2Pj3yokbWDW5NtM8MS/M+Vedq1N7M4V8kVCLybzOQ9/5t2v8HdrRy+8qICCw/QjCQUBAQEBAQKBrBOEg0JF777uTn/zyKV5552leeefpNY51Dxw90mh7/rXvdXRsO/b40XWPr++R19uffObYqve2YmX/P/nlU9x7352r2tv110yn/m++7Qaef+17616LbtFq1at8DCxWEzK5tPFvl9vW+BvAXNtyaIVaq1rlpDg04lp1rnbtTz5zbNW1+/xN1yKTSxtbHNSuiVarbvx7o/Tyu7aj031Q59jjR9f8rs304z5odx82n6+5v2aaj2/uv9trISCwGQThINCWe++7k6/f/Zu89NyrLb3iHzh6hJtvu6HhFd/KA38lnTz2NxoB0Mkrv1N/zbTrv1OEQLf4fcE1k7nLbWNpMcSf/runSCbTqybP+sT9wXtnGq/VqW8pDI24Gq9ZrCbSyQwn3v6gY/s9X7ufG6++gxuvvoMvffou/ut/eYF0MrNqMrfazcjkMk626L8Tvfyu7eh0H9RZGWbajl7fB+3uw3q4av18zf0106n/bq+FgMBmEYSDQFumrpgkFonz0xdfhxZe8fuvmMQ7v9jwij/53plVjncrIwAOdfDY32gEAB288jv1V19V1gfoTv13ihDolvpnvOUrn4fa6nHf1ERjsnz15TexOy2NVWK933ePf7jqPADfffz7LC2GuOGma2FFVMTcjJfjb53s2N5M/Tvvm5poTDS3fOXzFPIFTrz9QfPhHenld21Hu/uAFVazfVMTq/w9aBEJ0uv7oNN9WP+M9fM191e3LtSFQaf+O10LAYGtIggHgbas9OCvs3KFeM/X7l+VTGjqisnGapam93fy2N9oBEB9dbqeV36n/pojADr13y5CYCOrueNvneRPH6tOYq+88zTfeeibnDp5rpFE6buPf5+fvfQL/uHv/Q6vvPM0N992A88+9Xxj0lkpxgD+n//ru2i16qrJ+okHSSbTqxIsdWpv5tGHn+DUyXN856Fv8so7T7NvaoI/feyplkKjmeZJeKvftRs63Qd1fvjsS9x6/d2rHD3rx/bzPuh0Hz768BPcev3dq77zSovPS8+9yq3X3924Zu36FyJVBAaBIBwENkTzaqxOfU/1wFWX8fyPfrbuJNPJY795QOwUAUAHr/xO/TXTqf9OEQLdUp8M6tsEzRP5ow8/sWoLYWUmxWYxV5/46sc3Z4Xs1N6K++97uHF886RWp3lCo8UkvPK4zXzXjdDuPvju49/nsX/z5Kr2dvT6PtjIfVi3yrz5xol1n6NO/be7FgICW0UQDgJdU/d3OHXy3JrBvT74P/rwE9x+161t93sFBARaU/d3WFoMtU3jLSCwnQjCQaAr6qLh/V99tGbFuJKXnnuVpcXQumbRTh77zY507SIAbvn1G6GDV36n/ppp1z9dRAgIbB/t7oONstn7YOrKvauiHZ594QnGdg91dR+uFA2drELr9V+nl9dCQKAZQTgIdOSBo0f4h7/3O7z03KurREPzfnYnlpfCbT32NxoB8MiDj7X1yu/UXzOd+m8XIdDKlC8wGOpm//Xug42ylfvg2CN/tmpb5vYvH+HtX77X8T689747eeDoEU6dPNdRNLTrv5eRKgIC6yEIB4G23Hvfndx82w0894OX15hOj7fwwH/g6BE8w841PhDrHb/SY3+jEQB08Mrv1F8znfrvFCEgsH20uw82Sq/vg0734c233cDtd93a0ZpXp1P/vbwWAgKtEMpqC7TlyWeOMbZ7qPlllpfCPPLgYxx/6+Sq2PjmssjHHj/KyJincWz9tfVKNh/aRAnoBzqUZV6vv3pfczPexoDdqf+6OXm9EtEC20en+6BOPblS/Xcd1H2w3n24Xm6J+jEA3/r27/Kzl37REO+d+u/2WggIbAZBOAgICAgICAh0jbBVISAgICAgINA1gnAQEBAQEBAQ6BpBOAgICAgICAh0jSAcBAQEBAQEBLpGEA4CAgICAgICXSMIBwGBTxj1uiKvvPN0IzSxnsxrZcbDlZkJBQQEBOoIwkFA4BPEocNT7L9ikkcefIz7jzyEXCHj3vvubOQreOTBxxoZD9dLuiUgIPDJRsjjsA20S5hEU9Kl5gRJzfQjUU27/pv763S+Tv0LiWq2j0OHp/jnR/8Jf/PC6wB8/e7fRCar1jtolSlUoLd0ejY6jRPNrJdgihbPbfM40YpOz+bK/lYmhGtFp/47XQuBnYVkzLX/j5pfFOgfxx4/yr6pCR59+P/H0X/+b3C6bNz21ZsILoWZPjvLk88cQ6tV8y/+2aP8q//j/8PVnzrATTd/lnNnZvD7lppPx7/6t98mny/w1S/+Hu/96iN+7e98lk9/7ir+ey0z4rf+199l+swsX/+N38fnDfCV3/4i7iEnb7z6dvOpoCYa1uvf5bHznYe+STKZ5qtf/L2O5+vU/7333cltX72Jv/zej/hf/vEfrbkWAv3jgaNH+P1/fg+h5Sj/57f/33zxy9ejVCoav+tv/s6XiEbjwu/QJzo9G53GiWYeOHqEw5+5snF887jRbpxoRadns/nz3frVm7j2s1fxg2f+e/OpoA/jlMD2ImxVDJBDh6cYGfNw6uS5xkqgnnf+ykOXc/NtN2B3WnjzjRMN5f7ij3+OTC7j4DX7G/vQ9aJS9953J3anpVEXop4Tf2TMw6HDU40c9S/++OdQq1x56uS5dStXdur/4DX7UWtVjf6aK2HefNsNPP/a9xoltTv1f8NN17K0GGqsYlZeC4HeIpNJUatV6A06rDYT/+m7f8U/+O1vMT/r48lnjvHh+2d4+Dv/luFRN+VSmVKpxPieUdRqVcMKIdA72j0bncYJaguQuh/KoVotjZXHr3xuO40TrWj3bLb6fB+8dwa708LNt93Q93FKYPsRhMMAOf7WSW7/8pFVJjir3YxaWzXPvfTcq9x6/d2rTMQry/k2v79epndhzt84PrQcQa1VcfCa/bjcNtLJDMtL4Ua73xdsPODNdOr/u49/n1uvv7sxmNSFRr24TvP72/X/jd+/C61WTbhWiZDa90sm08KAsQnEYjFKpQKdXoPJbMDhtDI04mJsfJjJfbsYHnVjsZn4O1+5gT/9z/+aT33mIMvBMBqtmmw2z2/cfjP/8z+7m+VgmD37dgFw9tQFLDYTw6NuJvftYmx8mKERFw6nFZPZgE6vQalUIBYLw8hGafdsWO3mtuMEwP33PdzwQ6m3+X3BRvvyUphCvsDUFZMdx4lmDtWqaa73bDaPQwD7r5hsVIltbu/Uf7tr0WqcEth+hCd+m7nlK58nnczw0xer+8zNNCv/ZpofuIU5P4V8sfHvZDK9at8xtBxZ1d6JVv3XVxTfeeibLC2G2u6Fd+p/5WAHrBqsBC4iEomQyWVoNCqMJj1Wuxm3x8HoLg/jk6Ps3jOCw2VFp9cilUnJ5fJEwjF884ucPT3D+XNzzM/6eOY/P8cvXjvOP/3ffo8XXvsLRkbd/OT5V/nJ868yMurmhdf+gt/+u1/mvz/3Kn/z4uvMz/o4f26Os6dn8M0vEgnHyOXySGVSdHotDpeV3XtGGJ8cZXSXB7fHgdVuxmjSo9GokMlliESi5q8j0MWzsZJO40QhX2yUA2fFRF+n0zjRim6ezWOPH+WVd57G7rTw1JM/aG5u0Kn/jVwLge1HEA7byLHHj3Lgqst4/kc/W/XQ1HnymWMdH8h+sl7/9RXFjVffQXg5IoTu9QipVIJSpUCv12KxmnC4bAyPutg9McKefbsYGnZishhRKBWUS2USiSSBxWVmphc4d3qG2QtefAsBgoEQ0UicVDJNPl+gUlnt//zow09w49V3NKInzp6a4eypmcZv+qVP37VGqFYqFfL5AqlkmmgkTjAQwrcQYPaCl3OnZ5iZXiCwuEwikaRcKqNQKjBZjAwNO9mzbxe7J0YYHnXhcNmwWE3o9VqUKgVSqWRVPwJr6TRObCf33/cwN159B88+9Tzf+vbvNkp5C3y8EYTDNlEfDJo9levUJ+12ERUAaq2q4alM09YCgFarXjWpW6wmZHIpU1fu5fnXvrdu3H63/Z9878y6Jk/a9F/H5bY1/gYw18yaH0fEYhEKhRyNVo3JbMDusOAecjC2e4g9e3cxunsIu8OKRqdGJBaRzWQJL0eZn/Nz5qPzXJieZ2HOT8AfJByKkoinyGZylEql5q4GTqlUIpvJkYinCIeiBPxBFub8XJie58xH55mf8xMKRslmsojEIjQ6NXaHldHadx/bPYR7yIHdYcFkNqDRqlEo5IjFH19rRadngy7GiToyubSxJcCK7YY67caJJ5851hgHfvLLp7jl12+EDT6bJ97+gHQyw9Q624zt+qfLayGwcxCEwzbw5DPHah7JT6wZDOrbAFqtmn9x/6NtJ+26aXJoxNV4zWI1kU5mOPH2B/h9wTUPrMttY2kxxLFH/oxbr7971crz+Fsn2/b/wNEjPP/a97red2zX/5/+u6dIJtOrBqP6YFf3mbhUsdpM2B0WrDYTLo+d4VE343tGGd8zhmvIgdGkRy6XUSgUiceSLPqCTJ+dZfrMLHMzXvzeJZaXwsSiCVKpDIV8obmLS45CvkA6nSEWTbC8FMbvXWJuxsv0mVmmz87i9y4RjyUpFIrIZFKMJj2uIQfje8YY3zPK8Kgbl8e+6tpeyrR7NurPXLtxYiXLS2HSycyqid5qNyOTyzj53pmO48Q9X7u/MQ586dN38ciDj7V9NpudoDvRqf9uroXAzkIQDgPm2ONH267k/+AP74VaIp5OZsnvPv59lhZD3HDTtVB7uK+97iBzM16Ov3Wy4Ql9y1c+DzVnxn1TE20n5nb9N5/v0OEpbv2NL6zxgVjv+Ob+X335TexOS8O8Wfeufvf4h6vOcykgFosxmQ1M7tvF9V/4FK4hBwCpZIblYJi5GS9nT19gZnoe7/wigcVlIuEYyUSKbDZHuVxuPuUnhnK5TC6XJ5lIEQnHWAqE8M4vMjM9z9nTF5ib8bIcDJNKZgBwDTm4/gufYnLfLkxmwyXpnNnp2eg0TqzkeC1KYd/UREPU3/KVz1PIFzjx9gcdx4lWtHs261EP1153sGEl+Pv3/hbqFZERK+nUf6drIbDzEBJADZDmJCcrOf6373PyvTOrkvCs5LkfvMxPX3yd7zz0TeZmvA2P5UM9TKxy7313tu3/0YefWHO+lf3V23720i8aDpPNxzf33ynJzE5HqVJgMOgwGHUkEilikQT7r5gknc5cMgPfwaur20wn3vmguWlHsv+KSdRqFR+8dwaDSYdOpyEWTRCLJchmcs2H71jWezaaX19J/Zhjjx9lZMyzSuAPOgHUeoni6n31a5wS2H4E4SAgsAn0Bh0GoxapVEo8liQWjVMsVn0NJvaO4XDZ+B+vvNX8th3JpSYcPnvjYQL+IOdOz0DNqdRg1KM3aCkWi8SiSeKxRPPbBAQEesSlZ+MTENgmZHIZVruZ8T2j6PQaIuE4F6bnCS1HGqIBIBKKYTLp0eu1q94vsHX0ei0mk55IKNZ4rVgsEVqOcGF6nkg4jk6vYXzPaGOfX0BAoLcIwkFAoAMarRr3kIORMTcikYj5WR/e+UWSiVTzoQBEwjFSyTQmi6G5SWCLmCwGUsk0kfBF4bCSZCKFd36R+VkfIpGIkTE37iEHWp2m+VABAYFNIggHAYEWSCQSzBYjY+PDmC1GUsk002dmCQZC5DtEOZTLZSLhOEazIBx6jdFsIBKOd3QmzecLBAMhps/MVkWc2dD4LSUSIXeEgMBWEISDgMAKVGolTreN8clRZHIZAX+Q+VkfsejG9syjkRgmk+FjnYdg0IjFIkwmA9FIa2vDesSiCeZnfQT8QWRyGeOTozjdNlRqZfOhAgICXSAIB4FPPCKRCINRx8iYB4fLRi6bZ/rMLAF/kEw623x4V4RDMXR6DUaTYHXoFUZTtT5GeIV/w0bIpLME/EGmz8ySy+ZxuGyMjHkwGHVCWmwBgQ0gCAeBTywKhRybw8L45CgarZrQcoSZ6Xki4diWszHGYwki4Zjg59BDTBYDkXBsyxETpVKJSDjGTM2xVaNVMz45is1hQaGQNx8uICDQhCAcBD5x6PQaPMNOhkZcVCqVRo2H1IqiQL0gGoljEiwOPaO6TRFvfnlLpJLpRs2NSqXC0IgLz7ATnV5wphQQWA9BOAh8IpBKJVisJnaND2M06UnEkkyfnW2UH+4HkXAMk9mAXAgJ3DJyuQyTuWpx6AeFfIHlpTDTZ2dJxJIYTXp2jQ9jsZqEQlwCAk0IwkHgY41Go8LlsbNrfASpVILfu8T8rJ94PNl8aM+JhmNIpBJMQnTFljGZDUikEqJ9Eg4riceTzM/68XuXkEol7BofweWxo9GszeQoIPBJRBAOAh87xGIRJrOB0V0erHYz2UyO6bMzBBaXyWYHl5I4lcoQDceEsMweYDQbiIZjpFLVehWDIJvNEVhcZvrsDNlMDqvdzOguT60+huBMKfDJRRAOAh8blEoFDqeV8T1jKFUKlpfCzF7wEgnHKJe3J7N6JBIXLA49wGQ2EOmxf0O3lMsVIuEYsxe8LC+FUaoUjO8Zw+G0olQqmg8XEPjYIwgHgUsevV7L8KgL95CDYrHEzPl5/N6lga5O1yNa83MQzNybR6NRYapZHLabVCqD37vEzPl5isUS7iEHw6MuIb24wCcKQTgIXJLI5DKsNhPje0bRG3VEI3HOn5sjtByhUCg2H75tRMIxCvmCsF2xBYxmA4V8oW+OkZuhUCgSWo5w/twc0UgcvVFXrY9hMwn1MQQ+9gjCQeCSQm/Q4fY4GN3lQSQWszDnZ2HOTyLeum7EdpPPF4hEqlYHgc1R3aaIdUz1vV0k4qnGfSgSixnd5cHtcaA36JoPFRD4WCAIB4FLArFYzNSVe7nxi59GIhU36kbkcvnmQ3cc0bDg57AVjCY90fD2+DdshFwu36iPIZGKufGLn2bqyr2IxcIwK/DxQrijBXY8KrWSkV0e4rEkgcVltDotlcr2ODtuhno+B4NRWIFuFINRh9li3FHbFJ2oVCpodVoCi8vEY0lGdnmEuhgCHysE4SCwozGa9AwNuwgHI8zNVDM8uofs2B2W5kN3LNFIjFgsIVgdNoHJbCAWS2y4sNV2YndYcA/Z8S0EmJvxEg5GGBp2YTTpmw8VELgkEYSDwI7F4bKhN+iYm/E2Ejb5vQFCwSjuIeclUx65XK5U8zkI6ac3jNFUjabYrnDajSKRSHAPOQkFo/i9AagllJqb8aI36HC4bM1vERC45BCEg8COQ6GQMzLmAWBuxrvKj6FYLOH3BrDYjLiHHCvetbOJhOOYzPpLRuzsBCQSCSaznsgl4N9Qxz3kwGIz4vcGKBYvFkrL5fLMzXgBGBnzCMW0BC5pRJ8/9LVLQ8pvgmOPH+XQpw5ALXzqL7/3Q777+PebD+PY40cxW03c87X7m5saHDo8xXce+iZWuxmAmfMLq46/+bYb+Na3fxe1uhqvf/xv3+f++x5utLfiyWeOMbZ7CIB0OsOf/PGf89Jzr0KL8zX318wDR49w21dvgnW+a6f2nYLeoMPpsrIUCLUtaHTZ1B70Bi0nT5zaEfkaOqHXa7n+pmt5838cZzkYaW7eVg5evR+AE+980Ny0rVhtJq797CFee/nNgaQI3yoajYqpg/uIx5J8dPJsc3MDo0mP3WFh0b+85Uqf/aB57Gkey1aOJc3jVitWjsPNx3caV1vR7VhW/x4/e+kXPPrwE83N0EX/na7FJ5WPrcXh2ONH2Tc1wSMPPsaNV9/BS8+9yu133crNt92w5rj6Td2OP/jDe0km09x49R3cf+QhtFo1xx4/CrWb7xvfvItTJ89x49V38MiDj7FvaoIHjh5pPk2DJ585hlar5v4jD3Hj1Xdw6uQ5vvHNuzh0eKpxs9bP19xfM/fedydfuPkz/MW//68tv2un9p2CzWHBbDUyP+dvKxqobVnIZFJcl4jVIR5PEo0I6ac3gtFsIBqJXRKiAcA15EAmkza2KNYjGokzP+fHbDVi22G+Op3GsgeOHuHm225ojCUrx61WPHD0yKpxuPn4duNqKzYylt11z1cbE/56tOu/07X4JPOxFA6HDk8xMubh1MlzDWX70xdfJ53McOWhy6F2A/7kl0+xb2qC5aXwmvc/+8ITjRvo3vvuxO608OrLbwJw/K2TvPnGCUbGPBw6PMWv3fI51FoVL/745wC89NyrnDp5jv1XTK46b52bb7sBu9PCm2+c4PhbJwF48cc/RyaXcfCa/Y3PWD9fc38333YDz7/2vcYNfMNN17K0GGqo7ubv2ql9u5HJpAyNuJBKJcxdWCCTzjYfsoZoJI7fu4Tb47hknA4j4diOKLP9wNEjvPLO07zyztM8+cyxxutPPnOMV955mp/88inuve/OVe/ZDkym/lXD7DUmswG3x4Hfu9RR9AJk0lnmLiwglUoYGnEhk0mbD9kWOo1l+6+YxDu/2BhLTr53BrVWxcFrqlarB44e4fnXvsfNt93AocNTXHvdwVXj8MpxrtO42opux7IHjh5Bq1WTTl+0RvZ7XP8k8bEUDsffOsntXz6yyqRktZtRa1erzx8++xK3Xn83yWR61evN77dYTQAszPkbx4SWI40HxuW2kU5mVgkQvy+I3WlpqYRfeu5Vbr3+7lXms6ERFzJ5dfB49OEnuPX6u1eZ/1zui05VK99/6PAUWq2a8PJF8/fxt06STKbZf8Vkx/btRqvTMLLLQ7qWyncjTnA+b4BMJnvJ+DpEw3GMZv221jc4dHiK/VdM8siDj3H/kYeQK2R8+Tdu5O/e/RsA3Hj1Hfzl937IF7/8uXUH70GgVCowmi+N/A3UfBsymSy+DtaGlZTLFfzeJdKpDCO7PGh1muZDBk6nseyer92/ypQ/dcUk6WSGE29Xt7lWjl31MdfvCzaOr5exn7pisuO42ky3Y9nNt93Atdcd5Lkfvtx4rX5sP8f1TxIfS+HQilu+8nnSyQw/ffF1AL77+Pd57N882XzYujTfQAtzfgr5i6mNk8l0w3pA7QZc2d6JZiW9kptvu4F9UxOrLBTNrHw4gVUPF120bwcWqwmH08qiL0g4FG1u7kgmnW1YHZwrhNVOJRKJIRGLMZq3Lyzv+Fsnuedr96/ZkzZbjHzw3hkATrz9AflcobHvux0YzXrEYjGRSyAM0+m2NawN3VjLmgmHoiz6gjic1sZktp10M5bVrVYHrrqM53/0s3XHpUK+mpq7Tn2ir9NpXG1Fp7Hslq98nrkZL975xVWvt6JT/91ci08inwjhcOzxox1v8O3kyWeOYXdaeOrJHzQ3NfwdlhZD6zr4XGpUQ9YcKFUKZi8skGqy+GwE38IiS4Fl3B7Hjq8RkElnCe+g7YpjTzxIPlfghR+90tyMXCFjaMTV/PLAqG9TbGYiHiQyuQy3x8FSYBnfQueJaj1SyTSzFxZQqhS4hxw7Pvrm0Yef4Mar7+DRh5/g9rtu3TH7/vfedydOj53/9N3/1twk0EM+9sKhLhrW87ztFrVWtWoFtnJrAUCrVa8y7VqsJmRyKVNX7uX5177X2FN+9oXq9kKdumho5Zm8UjR08jReuZUBYG5auXRqHxRqtYqRMTf5fAHv/OKqkLXNUC5X8C4EMJr0uD325uYdRzS8vQ6SYrEYpVLBE//2P/JbX/rHnD83x7f+13uRy6So1EpMZgMqtZJioYivixVbvzDukGqYnXB77BhNerwLgQ1ts7WiWCzhnV8kny8wMubu6NjXL9Yby1rx0nOvsrQYWnfbUyaXrrKi1Lcb6rQbV+s+N3W/m1t+/UZoM5YdOjzFF7/8Of7mhde7XiC2658NXotPEh9r4fDkM8fYNzXBow8/sSXRUDe1rVyBWaymxt6e3xdccwO63DaWFkMce+TPuPX6u7nx6ju48eo7uP3LRzj+1smGo45Wq+Zf3P/oGtFw73138sDRI5w6ea6taKib/lYKgfrD+cF7Zzq2DxKT2YB72MFyMLzGIXUrLC+F8S4EcHkcO2KfuB2RSDWfQz8/p0wuQ6NRYTDqsNrNuD0ORsY8jE+O8vf+0Vf5y79+jFt/4yakMilWm4lSuUxoOcqevWNIZVKuufYKlColMrmM8clRRsaqRZusdjMGow6NRtVX645Wp6nmb+jCyXA70eo0uDwOvAuBnt/Py8Ew7uHBO/62G8uWl8KrnAs7sbwUJp3MrJrorXYzMrmMk++d6Tiu3vO1+xvj5pc+fRePPPhY27Hs4DX7sdkt/MPf+x1eeedpvvPQN1GrVdz21ZtafuZO/be7Fs3j9SeNj61wOPb40XVX8hvlu49/n6XFEDfcdC3UbtZrrzvI3IyX42+dbHj23vKVz8MKn4R2E/Mf/OG9ADzy4GNr1PHNt93A7Xfdyvu/+qirmOFXX34Tu9PS8ISvewO/e/zDrtr7jUgkwum2odVpmLvg7UslS/9CAIlEvOOtDtFwjFwuj2kLfg4SiQSlSoFer8VsMeJw2RgedbFrfJjJy3YzNOzEZDGiVCkpl8okEkmWAsvMTC/wH//8r3jj1Xe475/+A555/nHcHgcv/vUr/Mc//ytKpTLPPP84X/ntL/LiX7/CX//V3zAzvcBSYJlEIkm5VEapUmKyGBkadjJ52W52jQ8zPOrC4bJhthjR67UoVYotmdpNZj25XH7HWxzcHjsSiRj/QvcOkd2SiKeYu+BFq9PgdNsQiUTNh/SFdmPZ8VrUwb6piYZz4ANHj+AZdjYiE1bS6vhbvvJ5CvkCJ97+oOO42op2Y9l3H/8+X/r0XQ2x8ciDj5FOZ3juBy+3HEc79d/uWnzS+VgmgKqb+FuZ+lol8KiHpNVX9odqSUHmZryNY+uv9SJRyL333cnX7/7NliFYz/3gZVxuW8vcEvXkKcCaxCadkqJ0au8XSqUCh8tKNpMjsLjc3NxTxsaHGds1xPsnTq1yyNppHDo8RaFQ5P0Tp5qbABCLRUilUmRyGXK5DKlMikwmbfxdqVQo5IsUCgUKhSKFfIFioUi+9vdG2UoCKJlchlwmrX5GuQy5rPZ55VJEIlH1c+Wrn7Pxd75AsVhc17R/4OA+ZDLpupPHTsBiNXHg4D5mLiwwMz3f3NxTHE4rSpWCgH+ZbDbX3NxzOo1l7RLrPXD0CF+4+TOrFmw7JQFUv8f1TxIfS+EgsDMwGKu5+QP+ILFo/zPkKRRypg7uJZ8rrDsp7wR2jQ8zvmeU//Hq28hkMuTy2sQrqwoFiUTcEAGtJt5yudx8yi2xFeHQDrFY3FL41MVGqVSufbf696yKoc/ecA3TZ2e50OcJeSscOLgPuULGyROnB1LafdDPkoBAOyRjrv1/1PyigMBWsTss6A1avAuLW4qa2AilUgkRIib2jpFJZUkker8lslV0eg0Wm4kDV11GOpWhUKgKgWw2TzKRIhKOEVwKE43EScSTpJJpspkc+XyBYrHUl3LiTnd1e2fRvzrMbatUKhWKxRL5fIFsJkcqmSYRTxKNxAktR0kmUmSzOcqlChKJGIVSztCwi6mD+1j0LZHN5sjnNm5B6Tduj4OJvWNMn5ntKtlTL8hl86RSaWx2M3K57JJIsy7w8UUQDgI9RSaX4RlyUKlU8M4HKBYGG/OcSKRQqarRAaHlCKXS1qI2eoFMJsVkNuBy25HJZAQDIWQKGctLYRbm/KTTWXK5PMVCsefWhG7ol3DoRLlcplgoksvlSaezJBNpNFo1xWKRMx+ex2DUY7WZEYvF23ZtmlEo5ExMjhEJx5g+O9vc3FeKxRKxaAKdXoPJbCCTyVEubf81Efjk8bF1jhQYPDq9htFdHpKJNIu+YF9Wx93g9y6h0am3PaOkRqPC7XEwtnsYiUSMbyHAwpy/WrciHB+4x/ylgMlsIBqOE48nWZjz46s5vY7tHsblsaPRrPVbGiTuIQcanRq/d6m5aSBUKhUWfUGSiTSjuzzo9P2LzhEQWA9BOAj0BKvNhM1uwb8Q2Pb6AqHlCP6FAO4hB3q9trm5r4jFYkxmA2O7h7DazaTTGabPzrAUCK1ybIuEoxjNBqTSzUcffNyQSiUYzQYi4YtZRLPZHEuBENNnZ8iks1jtZsZ2D2EyGxCLBzt86fVa3EMO/AuBbXe+jYRj+BcC2OwWrLbtycki8MllsE+ewMcOqVSCZ9iJXCFn9oJ3x+y9+rxLlEpl3MODsTooVQocTisTk6MoVQqWFkPMXvASjcRbRg9EwnFUKgUmi7G56ROLyWJEpVIQaVGfolyuEI3Emb3gZWkxhFKlYGJytBFxMAjcww5KpTK+bbI2NJNKZZi94EWukOMZdgoiVGBgCMJBYNNoNCpGxjzksjl8C4Ed4U9QJ5lI4fcGcHscfS1drDfoGB514XLbKRZLnD83Vy1ctKIqXyvqjpAm0+bzOXzcMJn0RMIxkh2cWtPpakG08+fmKBZLuNx2hkdd6A265kN7hs1hqdWjCHT8fIOkVCrhWwiQy+YYGfNs+1aOwCcDQTgIbAqT2YDTY2cpEGI5uL1m2/Xw1Uocuz12xOLeJdCRyWVY7WbG94yi02uIhONcmJ4ntBzZUArtSDi+remndxrVbYq11ob1KBZLhJYjXJieJxqJo9NrGN8z2shO2CvEYhFuj51oJL5jrA3NLAcjLAVCOD12wXdGoO8IwkFgQ4jFIlweO1qdmrkZ345afTVTyBfweQPYHVbcQ87m5g2j0VYdLkd3eRCJRMzP+vDOL276GkQjMUxmw8BM7TsZpUqBqcm/YSMk4im884vMz/oQiUSM7vJUHRlX1EXYLO4hJ3aHFZ83sKkEW4MimUgxN+NDq1Pj6rFYFhBYiSAcBLpGqVIwMuahVCwxP+vf0YNonUVfEJ83gMtjR6VWNjd3RCKRYLYYGRsfxmwxkkqmOXd6hmAgRH6L3z8SilGpVDCbBT8Hk9lApVIhugGLQyvy+QLBQIhzp2dIJdON385kNmwqDbZKrcTlsePzBlhsKue8EynkC8zP+ikVS4yMeQRRKtAXBOEg0BVGk56RUTfhUIylQKi5eUfjWwigUilxe7p3lFSplTjdNsYnR5HJZQT8QeZnfT3N2pfN5oiEYxi3ULfi40LV2hDraUrlWDTB/KyPgD+IXCFnfHIUp9u2IQHp9jhQqZT4+lCPop8sBUKEQzFGRt0YBT8agR4jCAeBjjicVgxGHXMzPuKx3k2cgyISjjWsDu0GUZFIhMGoY2TMg8NlI5fNM31mloA/SCadbT68Jwj5HKrU8zf0g0w6S8AfZPrMLLlsHofLxsiYB4NR17Z4lNGkb1gbtjvEeDPEYwnmZnzVdNVOa3OzgMCmEYSDQFsOf+ZKRnZ5mL3g7elqcND45gMUCkVcLawOCoUcm8PC+OQoGq2a0HKEmel5IuFY3yNFIpEYRpPhE53IR6fXYDQZiET6OzmXSiUi4RgzNUdWjVbN+OQoNocFhULefDguj4NCoYhv/tKyNqwkm80xe8HLyC4Phz9zZXOzgMCmEISDwLrUVykGg47dEyPNzZcU6XQG38IiniFH43vp9Bo8w06GRlxUKhVmL3jxLQQGVluDmp9DJp3BaPrkWh2MJgOZdIZIqL/CYSWpZBrfQoDZC14qlQpDIy48w86GgHM4rXiGHPgWFjuG1u50dk+MYKiFqgqWB4FeINSqEGiJ0aRHq1Pz4ftnoTb4UDP7X6qkkhl0ei2eEScyuQyZTEo8mmTRHySdymxL3v9KpYLRpG+UTd4OtqtWRZ1d40Pksnl83sGv7MulMulUhkg4hqh239udVnZNDBMOx5g+M7dtqdN7we6JEXZPjHD+3BwfvHcGq82ESCS6pK2HAtuPYHEQWINSpcDusDQmsvPn5jh/bq4xCF2q1DPrje4aolKpMD9brRux3UQi1XwO7fbbP66IRKJq/oYBVZlsRzyeZH7WT6VSYXTXECJEl3Q2xpWi4fy5OQAC/mXsDosQbSGwJQThILAKsViE02Vj0b+8alVyqYsHvV7LyJiH2QsLvP2Ld7HZzDsmy140HMNg0LV13Py4YjTpMRh0RHeIJUujUWGzmXn7F+8ye2GBkTHPwOud9IJWooGaz8OifxmnyybkeRDYNIJwEFiFw2Ujncq0jJ64VMWDzWHBbDOxMO9vRFhIZFJc21w9s040Eq+mn/4ERlfUwzCjO8DiAOAaciCRSRuRFAvzfsw2U1/Tlvea9URDnXgsQTqVweGyNTcJCHSFIBwEGphq1Rrb5Wm4lMSDTCZlaMSFTCpl7oK3EVIZiyYa1TN3ymQdCccwWXbGZxkk1TTTO8PaYDIbGtUv6/k6Mukscxe8yKS1e0kmbX7bjqKTaKizFAghlUp2zP0vcGkhCAcBqJlozVYji1046F0K4kGjVTOyy0M6lcHnDVAur3Z89HkDZFJZPMNbT0XdC6KROCaToac1FnY6MrkMs9mwY6wNnmEnmVR2jZNmuVzG5w2QTmUY2eVBq9uZobPdioY6i/5lzFbjjtmyE7h0EISDAFKpBIfLRsC/3HUa6Z0sHixWU9VPwxckHGpd+yCbyTWSQrk81aiC7SQSjiGTyz5R1TJNJj0yuWxHWBzq94HPGyCbaR1xEA5FWfQFcTitWKym5uZtZaOigVp66oB/GYfLdkk7gQoMHkE4COBw2YjHEhsu1rTTxINYLK6mCFYrmZvxdszH4PcGCPiXcXkc277STyXTtfTTnxzTcX2botPv1G9kchkuj4OAfxl/h5DQVDLN3IwXlbqawlws3v4hdDOioU4ykSIeSwj+DgIbYvvveoFtxWozUalUNl0ae6eIB7VaxeguD/lCgYU5P4VCsfmQNZTLFXzeAAaDFs8OcJSsV8v8pGAyG4j2OVtkN3iGHBgM2tqWVuecDYVCkYU5P/lCgdFdHtTq7TP1b0U01FkORqhUKlhtO8uKIrBzEYTDJxidXoPeoNty4qHtFg8mswHPsJNQMMLyUri5uS3LS2F83iVcHse2p32O1OpWbOdENCjUalUtomJ7/Rt0eg0ujwOfd2lT904oGMEz7NwWwdcL0VAn4F9Gb9Bt+zMgcGkgCIdPKDK5rObXEOxJPYbtEg9Otw2tTsPshYVNJ3PyLwQQiaq1CbaTaDhGqVj6RFTLNJr1lIqlbc/f4PI4EImq98BmiMeTzF5YQKvT4HQPztzfS9FArY5HwB/E4bJt+7adwM5HEA6fUJwuK6FghFSqd3n4BykelEoFo7s8VMoV5md95Lt06mxFPJ7E513C7XFsq7k2l8t/YvI51PM35HL55qaBYbWZcNesDZsVnQD5fIH5WR+VcoXRXR6Uyv5mZey1aKiTSmUIBSM4XUI9C4H2CMLhE4jdYaFQKPbFm30Q4kFv0DEy5iYWTRBY3No2Sx3f/CKJRLK2At2+jHqRyCfDQbKaZrr391+3iEQiXB4HiUQS3/xic/OmCCwuE4smGBlzo68Vleo1/RINdSLhGIVCEfsllPBKYPAIwuEThsGoQ61RbdmvoR39FA92hwWzxcDcrK+n8f/5fAHfwvaHZ0bDcUwmfd8mHoAHjh7hlXee5pV3nubZF55gz74x9uwb49kXnlj1+qHDU81v7Ql6gw6TSU90G/0bGuGXC4EtWauaiUbizM36MFsMPZ98+y0a6gT8y6g1KgzG/t2DApc2os8f+lpnN+Ie8OQzxxjbPQS1Esd/8sd/zkvPvQrAocNTfOehb2K1mwGYOb/APV+7f9X7V3LzbTfwrW//bsOJ7Pjfvs/99z3caH/g6BFu++pNUPOA/svv/ZDvPv79Rnszzedbr/+bb7uB//n+u/nhsy+1PV+n/o89fpRDnzoALa5FP1EqFYzs8jA34103Vr2X9HKgk8llOF1WisXqXmw33u+bYerKvSiVCk6+e3pbKgiKxWJuuOlaLkzPMXvB29y8ZW6+7Qa+8c27+NPHnuKl517l2ONH0eq1vPWLE/yd2z7feL2fjO7ysGt8hFdffnNNYq5BoFQqmLpyL9lsjpPvnm5u7glisaiRH2FxA/lR1qOXz1I3KFUKRsY8zF3wDuQ52MgccOzxo4yMeXjkwcc4/tbJ5mbowxjcPEc0zzkr5zfW6XMl7frfyLXYLgZicXjymWNotWruP/IQN159B6dOnuMb37yrsaL5gz+8l2QyzY1X38H9Rx5Cq1Vz7PGjzaeB2kX9xjfv4tTJc9x49R088uBj7Jua4IGjRwC49747+cLNn+Ev/v1/5car7+Cl517l9rtu5ebbbmg+Fay4IernW6//xo3TIctap/4fOHqEfVMTPPLgYy2vRb8QiUQ4XFYC/uBARAM9tDzo9BpGd3lIJtL4vUt9Ew0AvoUAGp1626wO5XK5r9sVLz33Krd/+UhjkPL7qqW0rTYzBpOe7zz0TV555+nG89QP6tsU2yEaqFkbNDo1vk06RHZDuVzB710imUgzusuzpWiFQYsGagnSqs6S1oFs3XU7B9x7350cuOqy5pdX0esxuNOcc/NtN6DVqhvnu/HqO/jSp+9aVzR06r/ba7Gd9F043HzbDdidFt5840RDHb74458jk8s4eM1+7r3vTuxOC6++/CYAx986yZtvnGBkzMOhw1PcfNsNPP/a9xo/0q/d8jnUWhUv/vjnUBsIT508x/4rJgG44aZrWVoMNX60n774OulkhisPXV77RKupv14/X3P/1ITPdx76JtFInEJh9crhgaNHeP617zVuynb9Hzo8xbXXHeTUyXONgXvltegnDpeVbCbXyME/KLYqHqw2Eza7Bf9CtehQvwmHovjmA7iHnX3dLmhHNBzDZDL0PbnQt//of+Laz17F6z/7W6w2M35vgC995u/xyIOPce11B9cV21tBLBZjMhm2LZpCb9DhHnbimw+sm1W0l0TCMfwLAWx2y6Ycb7dDNNSJRRNkMzkcfXaW7DQH1Dl0eIovfvlzBJdW19Lp9xjcac4ZGnGRLxTWDec99vjRxtZfp/67vRbbTX9HptpFvvX6u3n04Scarw2NuJDJq8Vi6qlbF+b8jfbQcgS1VsXBa/aveb/LbSOdzKz6kfy+IHanhW/8/l1otWrCyxeTGR1/6yTJZLrxIzfz6MNPcOv1d68yU7mawqp8CwHuP/IQf/PC66tep+n9hw5Pte3fajej1qoaqzxqseCFfIGpdT5fLzCZDchksp45Em6UzYgHiUSCe8iBQqmoZoHsYfRHJ3zeAKVCEffQ9lgdIuE4Or1my9EVEokEpUqBXq/FbDHicNkYHnWxa3yYx//iEa646jL+6T/5I7wLizz/o5f53+//vxgadqJUKahUKlx+YA8Olw2zxYher0WpUiCRbC01sclsQKfXbFv+BveQnVKhuKYeRT9JpTLMzXhRKBW4hxxdX8PtFA11AovLyGSyLd+L7eg0B9T5+/f+FoveJRa9S43XGMAY3G7Oufm2G7BYTVWrwBMP8so7T/OTXz7Fvffd2Tj2/vse5vYvH+H4Wyc79t/ttdhu+i4cWtGsCJt/lIU5P4X8+pn/ksn0qr2t0HJk1fErfxRg1U3UiZtvu4F9UxOrLCTf+af/et29tFa067+QLxJqcVP3C7VahcVmIuBf/ZkGzUbEg0ZTywKZy+OdX6RY3HqeiY2QSqar4ZlDzm0ppxyPJWrpp9vncxCLRcjlMjRaNSazAZvDgnvIwdjuISb2jjE2PoTdYUWr0yCWiMlmsoSXo/zRv76fTCrDXb/5+8zP+gkFo9z5D36Df/rt3+PC9DxWm5liscSb/+ME2UwWsUSMVqfB7rAyNl479+4h3EMObA4LJrMBjVaNXC5DLG5v1jaa9UTCsZZl2/tN9fo48XmXBp7mulgs4Z1fJJ/LM7rL07Gw1E4QDXUC/iAWm6mvick6zQE333YDI2Oexqq/E70eg9vNOS63DalM2th6eOm5V/n63b+5SjyspFP/na7FTmDgwuHJZ45hd1p46skfNDdtO3U/hqXF0CoLyaWKRCJp+DX00nN8s3QjHkxmA64hB8Gl0KbTYPcCvzdAJBTFPbQ99Qgite0KmUyKSq1Eb9BhtZlwum0Mj7oZ3zPKxOQY7mEnRpMeuVxGsVAkHkuy6Aty/uwc02dmmZvx4vMGWF4KE4smuPMf/gbuIQeHPnWgEUHxP93/D/nJ868yMubhlXee5ut3/yY/eeE1fvHaO8SiiVp2zQBzM16mz8xy/uwci74g8ViSYqGIXC7DaNLjHnYyMTnG+J5RhkfdON02rDYTeoMOlVqJTCbFZNqeMtpisRj3kINIKNqxHkU/WQ5GCC6FcLUp6b6TRAO1iKO6v0O31pJec9c9X+XNN06ssgzvFO6/7+FVVutHH34C7/wiN9x0bfOhHxsGOiLWRUOzB6taq2p4kNK0ldEKrVa9ar/HYjWtOr55q8FcM//ce9+d/OSXTzUGzCefOdY4ZqVo2KoH63r9A8jk0lWV9eqmtX7gcFlJJFIk4hsrXtVP1hMPYrEIl8eOVqdm9oJ32z9zoVDE513CZjPjHnAdC7VahVQmZd/+ccYnR7HazKg1SgDSqSyhYIS5GS9nTl1gZnoe7/wigcVlIuEYyUSKbDa3ruPhdx//Pl/69F0NJ64br76D/++xv+DsqRlu//KRjo5d1Bw4s9kcyUSKSDhGYHEZ7/wiM9PznDl1gbkZL6FghHQqC4Bao8RqMzM+Ocq+/eNIZdK+rl5b4R5yYLOZ8XmXuqpj0k8S8RSzF7xoa064K600O0001EnEUyQSqb75O7SbA+r+bRtZzG12DD72+NHG/LDSSbjTnNNMOyt3u/7pcC12CgMRDocOT/HsC0+g1ar5F/c/uko01E02QyOuxmsWq4l0MsOJtz9ovFbH7wuuubAut42lxRB/+u+eIplMr7pJ6j/KB++dWTNo1gXCvffdyQNHj3Dq5LktiYa6yWm9/peXwqSTmVU3tdVuRiaXcfK9M43XeoHFakIkEq3rsLOdNIuHeuhXqVhifta/5dC1XhHwB/F5A7iHqhU3+4lIJMJo0jMy5sHutBAMhIiEY0TCceZnfSz6giwHI8RjCdLpzLZPfu0oFIqk0xnisQTLwQiLviDzsz4i4TiRcIxgIITdaWFkzIPRpO+7175KrcQ95MDnDWz7ll2dQr7A/KyfUrHEyJgHpUqxY0VDneWlMCKRqOclxTvNAfuvmGRs91BjMj/0qQNY7Wb+5bEH1jjwbnUMvv++h1eJ6kcffqLtnLO8FObZF55YE/VgtppaiodO/Xe6FjuFgQiHP/jDewFaxt1+9/Hvs7QYaph16l6nczPeNceywkP2lq98Hlb4JHxQm3hffflN7E5LY3+p7hH77vEPV52nzs233cDtd93K+7/6aFVc7mZp13/dQ3bf1ETjhr/lK5+nkC/09KbQ6jQYTfodM0i2oj44Hv70lVx3/dVEwjGWAqu9pXcCfu8SCoW8b1YHhUKO3WFhfHIUtVpFaDnCzPkFfAsBQsEIpg5+DpcSJrOeUDCCbyHAzPmFqtOXWsX45Ch2hwWFQt78lp7gHnKgUMjxNznV7QSWagLxuuuv5vCnr9yxoqFOwB/EaNKj1W0+vLSZTnPAPV+7f9Vkfvxv32d5KbxmEVqn12Nwuznn+FsnmZvxrjrfA0ePYHdaWvpjdOq/07XYKfQ9AdS9993J1+/+TWSytaaW537wMo8+XA1TWS/hRX0L4Wcv/aJhqqq/tl4yjk7JP1ayMhHHSpqTclD7LrffdSvPPvV843wPHD3CF27+zKpjO/XfLvnHVpHJpIzs8rDoCw7cAWyjKFUKrrv+arQ6DSffPb1jB8zxyVHcHgcn3z3ds/15nV6DwahHoZATi8aJxZJrLC17Lx/HZDbwy9ePr3q91xy8uuqtfeKd1gNnr/j05w4RDkU589H5Va/L5DIMBi0Go55cLk8sGu/ZVpXJbGDqyr34vAGmz8w2N+8Idk+MMHXlXpKJFG+89s7A8qxsFo1WjdNtY+6Ct2eWr3ZzQDPNCaAGMQZ3mnNWnq+5v+bP23x8c/8buRbbRd+Fg8BgGRpxkU5lBhKjvhXEYhEjYx4i4RgWq2lHm2jVahVTB6sD+4fvn21u7hqZTIreoMNg1FEoFIhFEm2LK9kdFq6+9gpeffnNvorAQQgHjVbNDTddyztvvtfWsqTXa9EbdcjlMmLRBPFYYkuT0+UH9lSF6YnTpNODC+ntlpXbE6HlCCazgbkZb1+TnPUCs8WIWqNaFTYo8MlhIFsVAoPB5rBQKpV2vGgAcLhspFMZYtHEGp+HnUY6ncHvDeD2OHC4Nl46WaNR4fLYGds9jEQixrcQYH7W31Y0AEQicQr5wrre95cSJrOBQr5ApEN9kXg8ycKcH99CAIlEzNju4Wqmxw7hi61wuGy4PQ783sCOFw3nz80RiyZIpzKbuscGTTgUpVQqbUu4ssD2Ixlz7f+j5hcFLj3qK1nf/CKVnb1YwWQ2oFQpVu0517cA6sKhV1sCvSKZSKPVa9DrtYSCkXWjFuqIxSKMJgNOlw21RkUykWbRt0Qyme46L0W5VMZkqYZktlulbxWnu5roarGPPjEjYx4KxWLXK9RisUQqlSEaiSGRSDBbjJjMBkQiEflcvuM9LpNJGd8zSiqV4dzpWSqd3jBgmkVDnVQqg8msRyKR7Pgti3Qqjc1hoVyubGt5dIHBI1gcPgYoFHKctXwNO93EqdFUE1IttqjOuZMtD+VyGf9CAJPFiMuzvqOkUqXA4bQyMTmGUqVgaTHE7AUv0Uh8U79NNBz/2FgcNlMNs1yuEI3Emb3gZWkxhFKlYGJyDIfTilKlaD68gcvjwGQx4l8IdBR5g2Y90VBn0b+MxWbalJVlkJTLFQL+IE6XtW+OrQI7E0E4fAxwuGwsBUJk0tW4+Z1KNSGVjYA/uMYRsM5OFg9LgRD+hQBujx1NU+4NvUHH8KgLl9tOsVji/Lk5/N6lLZvIw6EoJrMBo+nSja4wGHWYzIYtb6FVt4yWOH9ujmKxhMttZ3jUtaamiEarxu2x418I9NVSsxk6iQZqoZrVhEu2bUu41C2ZdJalQOiS2F4R6B3CVsUljsNlo1QqEdrGLIvd4vLYSacyRDvsc+/kbYt8voDTY0csEpNIpDBbjLjcdiQSMbFogsDiMpl0dlPWhVbksnmcbhu5XL7jddss/d6qcHkcKFUKTn+4Oppis5TLFTLpLNFInEqlgt6gxe6wIJFKKBSKDI+40Rm0nDszu6NM6N2Ihjr5XAGJRIzBqOtZhEm/yGZzKFVKtDpNX514BXYOgsXhEsZoqobz7eR8DXWstlpCqi4Fzk61PMRjCZb8yxy85nIOHNyHSCRiYc6Pd36xLwN8pVKpVcu8dC0OJpOeaDjWFz+DRDyFd36RhTk/IpGIAwf3cfCay1nyL29LPYz12IhoqLMcjCASiTZVVXPQBPxBFAr5JW0ZE+geQThcoqjUSmx2yyUhGnR6DXqDbsOfdSeKB41WjVQqIRFPkc/lCQZCfV/VRmp+DjvdbN0KiUSCyWzoezXMXO23yOfyJOIppFLJmu2k7WIzoqFOwB9Eb9Ch0/cu4VK/CPiD2OyWvmdZFdh+BOFwCSIWixu+Av2etLaKTC5rfNZuowlWspPEg8VqwumyMTfr471ffYR7yIHL0//S29FwDJVadUlmkTSZ9ajUKiLhrfk3dIPLY8c95OC9X33E3KwPp8vW8/TIG2UrooFadEnd30EmlzU37yhyuXzjs25HYTiBwSH8upcglx/YQ7lU7pgHYCfgdFkJBSOkUpt3Etxu8SAWi3F7qvUq5ma8pJJp/N4l/N4l3EMO5H0e0OPxJNFIDJPZ2Ny04zGaDUQjsb5s46xELpfhHnI0fpdUMs3cjLdap8KzPRVOtyoa6qRSGULBCM4+FZjqJfF4knKpzOUH9jQ3CXyMGPzTJLAl9AYduydGcHnsDI+6kUp3rvna7rBQLJZ64ty4XeJBpVYysutiDoJ6FsNKpYLfG0Cn0/atjsVKIuEYxkvS4jCYMtruIQc6nRa/N9DwpSgUqr9ZvlBgZJdnoCb0XomGOpFwjGKxhH0HJ1ySSiUMj7pxeezsnhhZE+0i8PFBiKq4xLBYTQQWg1QqMDY+hE6npVKp7DhvZr1Bh96gxbfQu4RUg462MJkNOF12lmuFiJpJp7PIFXIcLivRSJx8rnWIaS+QyWSM7vLgnV/c1JZPO/oVVaFUKti3f5y5Cz4Sif5ZHHR6DROTYwQWl5mfXZtgKp3KUC6VcXscVCqVvidW6rVoqJNOpbHazTsy4ZLDaWV8zxjDoy6WgxHmZhaQSaV9/d0Ftg/B4nAJIZPLUGtVLMwt8tHJs7z/q1MATB3cy2VTe3aMR7NSqcDpsrLYh4RUg7I8OFw2dHotczPetltC1RUuuIeczU09JRKJVUtvX0JWB6O5WjI7ElkrunqJe8hJpVL9LdYjHk8yN+NFp9f2NedAv0QDtTDUxVrCJaVy/eRXg8Ro0nPZ1B6mDu4F4P1fneKjk2dZmFtErVXteL8Mgc0hWBwuIcxmA7lcoWFdSKUyBJfC5PMFrHYzLrcdmUxGNpujuIXCQFvFM+wkHIqSTPTHCtJPy4NSqcAz7KRYKOJbCFAqtV/d53MFpFIJI6NukokU6T4l4SoWilisJsRiCctL4ebmLdEvi8PwiJtypcLs+YXmpp5htZmYmBxlftbH0mL7ZE+lUolYNIFWq8ZqM5HL5ntqvemnaKhTLJYolcpYbCZi0e0LN1WplYyOeRjfM4pMJmXm/ALTZ2ZJrrAwSKQSFApZ354Jge1DEA6XEC6Pg2AgtGoyq1QqxGMJouEYIrEIz5ATs8WIWCwmmUj1bJugW5xuG8VCkdByd/kaNks/xIPeoMMz7CAcim7o86dTGQwmPRqtuq+ZCjUaFRarsaU5fiv0SzhMXraL8HKU0HJ/IipEIhETk2MUCkWmz8xSKnWXWjqVTCMSiXAPOSgUSj0x+w9CNNTJZnMolQp0ek3fxPl6iMUiPMMuxveMYrYY8fuWOH9mluVgZE2ejlKxhN1h7cmzKbCzEITDJYJer0Uqk677EBYKRcKhKPFYEqVKwe7xEbQ6NaVSmfQWIho2gslsQKVS4mtjMu4lvRQPNocFg0GLdyGw4cG4PmHtnhghm82RaLO1sRXEEgkTk6P4vUvk10nZvRn6IRy0Og379o8zfXaub/efZ9jJrvFhzp+d3fDqO5vNkUplsNnNyOSyLX3GQYqGOqlkGpPZiEQi7rvPRh2r3czE5Bhju4YIh6JMn5nFtxBYt+x5qVSq5tKoVEM1BT4+CMLhEsHutBCLdnbAy2ZyBAMh0ukMBoOO0V0e5Ao5hVyhrw+vWq3C6bLhnV/seuXXC7YqHmRyGZ5aVIRvYXHdQbATyUQKtVqF2WwkHIr21ARep5Av4B52kk6licd6J076IRwcLit6o54zH073pciUUqVgYs8YkXCM82c3N1kXiyXisQR6gxaTWU8mk6O8wXt3O0RDnWwmi9vjIJvJbfq+7Qa9XsvY+DB7JsfI5wpMn53lwrn5rgRLpVLBaNL39H4V2H4E4XAJoFQqMJr0BFpUlFyPZCLN8nKEYqGIzWHB6bYhkUrIpLMd9+03ilgsxjPsrAmWwe9nblY8aHUaPMMO4rEkwUBoy9s6xWIJz4iTSrnS9WfYCOVyGZPZgFwuZ2mx+3uhE/0QDqO7hijkC3jnF5ubesLImAeLzcT0mVkymc3fc5VKVfRJpVKcbhuFfLFra852igZqlq768x2PJddsFWwVhULO8Jibib1jKJQK5ma8TJ+dI74B604+V8BqM5NJZ/sipgW2B0E4XAJYrCYy6eyGq1+WS2Vi0QTRSByJWMzwqLvq6Y6op2FSLredTCbbl8myWzYqHqw2E2aLkYAv2LPVUCaTRS6X4/TYiUcT5LK9t/AoVQocLhuzF7zNTZumH8Jh3+XjBBaX+1KYy2DUMT45RsAX7JkwyWSy5LN5HE4rEom4owDebtFQJ5fLI5VJMRh0PX2m3R4H45OjOBxWAv4g02fnCAZCG7bIUFtYqNXKHRcyLrB5BOGwwxGLRbjcDgKLwU2bfPP5AqHlKIl4CrVGxcTeMVQqJaVSecNipBmL1YRcIWPR17tJZ7N0Ix4kEgkujx2pTIpvYbHn2ze5bA6b3YxcLmM52NvoB2oOgXsv383SYqgrU3E39FI4HN4Pf+82BU6XmV++vdizz7iS3eMjyOUyps/M9NREXygUScSTGEx6dHoN6VS25Sp+p4iGOnXnXJlM1pPneXzPKBN7x4hG4kyfma0m0erSCtOKYqGIw2UjGolt2aonsDMQhMMOx2gyUK5ULQdbJZPOsrS4TCaVxWQ2MDTqQiGXkcsVNjUwaHUarDYTvoXFTYuaXtNOPKjVKjzDDjLpDAH/cs9zTFCbfMQSCaO7h0gl01tKtd2KbCaHw2kj38My270QDlJJhX9zv5gbrxFx+XgFjzHCZ/aneP0E9NLwYndYGJ8cY+b8QteVVjdCuVwhEU+iUMixOyzkc4VV4mSniYY6mXQWh8tGPl+gsMlneWz3EOOTo1TKFabPzDJ9dnbLQoTaFptCKUcqlfZFSAoMHkE47HAcTiuRUKynK6tEIkVoOUK5XMbptmGzWxrm2W5NkTKZFM+wk0V/kGx2Zw0GrcSDyWzA4bISDIR6NuGuRyqZRm/QotVrWF4Kt1y1bgW9QYdGq8bvW2pu2hS9EA7/y98To1dXmPXD5bsgkRbhXyrzqSkRP3u7+ejNIZFIGJ8cJZfJMX12ti/Cr0665gvk8tgb2SZ3qmigNjnn8wWcbhvJeKprIS+TyxgeqYZXanUaFub8TJ+Z7fkzUimXMVkMPVkACWw/QubIHYxGo4Jaoqdek8vluTA9z/u/OkU0EmN8zygHrtyL091dVj2Hy0YkFNux+5b1wX18zyiHP3MlWp2GuQvevhdbouYk6VsIYLOZcQ/1vnpmNBLDaDYgk0mbm7aNGw/B8VNw3ZUiANTyIm9+UOFzB6H6ytZxD9mx2cz4FgIDcbRLxFPMXfCi1Wk4/JkrGd8zuiNFQ51UMk0kFOs6M6bTbePAlXsZ3zNKNBLj/V+d4sL0fM+371gxhtXHNIFLG0E47GD0Rl3PHPfWIx5PcuqDad5/9zSlUokDV+5j/xWTmMyG5kMb2BwWyqUy4VB/Evv0ivPn5ohG4+zbP4FMJt3UdsxmCSwu410I4PI4UKt7O1hGwnGUSjnGNr9ROx44eoRX3nmaV955mmdfeII9+8YAePKZY7zyztP85JdPce99dza/rS0SKYwPV9Brqv/Wqis4a/OXpAd12NRqFS6PA+9CgEAPI0o6kc8XkMmk7Ns/QTQa37GioU44FKVcKmNrUwzLZDaw/4pJDly5j1KpxPvvnubUB9NtU6v3gngsid4oFL76OCBsVexQpFIJDqcNv69aC6HfpFMZgoEQuVwes8WIZ9iJTC5bEyOu12sxmPR45xd7boLvNSazgXwtJLCVz0O/KRaK1cqZIoiEetdvNcW4hUq5vOGsjDffdgO/+Ttf4k/+9Z9z9J//Gz79uau4bGoP45NVU/VXv/h7yGRSvvjlz3Hh3HzX2yETwyKuuxKkkov2BYsezs2LeOF/rDp0U4zs8mAyGZg+OzvQrbH69sR7xz8iHksONOHSZkmlMg1xv9J6oFarGN09xMTkGCKRiAvT80yfmRmY1TCfy+N02YnHEn3dZhLoP4Jw2KGYzEYKhcKGsxhuhUqluiqIhGNQqYZZWu1mxGIRqWQGuVyGZ9iJ3xvYlAPWIFGrVThcVnzziw0nukGLh2w21/AFiceSPZ1wdDpNQ8BthOmzszz9n3/M9NlZAK44dDkWqwmVWsmpD6Z549W3EYlEXPPpK5k+W3WQ6wa7Ga67QgSVmh1TBBqliP/9sQpb3dY2mQ1MTI7hWwjg93YnZHpBs09DNpPF5bGvEdM7jUqlWj3T7XE0RMHQiJOJvWMYDDp8CwGmz84SXo4OZFFSp1Kp+kbJ5fKeOF0KbB/CVsUORW/QbpsjUSadZfrsLCffPU08lmTvZeONCpzLwfCOf+glEgkOVzX+vL49UR/865PBoPB5A2Qy2arloYdEIlWHT5Va2dzUNQ8cPcK11x3kpy++jqjJEUGukDE04lr9Yht+56baCURUxUMFxGIwaLfu4eAecpDJZAeWypwWooGapSfgD+JwWZH0Yv+lj2TSWZaDYS6b2sOBg/vYe9k48ViSk++e7lm0xGaIRauZOgUubQThsAPR6TUUi8WBmmRbEY3Eq+W7T5zCYNRx4Kp9OF02DDt8n9LhspKIJ9c4Qm6HeMiks/i9S/zdL+b44Z9IePZREf/HPxEx4tzahBoNx6lUKphMnf0cRCIRcrkMjVaN0aTH5rDw2Hcf5qpr9vPtb/0xyUQauVyOwVhNUW6xmao+LMtRNFo1crkMUbOyWMEt14HTevHfCyuMArVqy5vG4bLh9jjwe5cGNtm1Eg11EvEUiXgSh2vFF96BGIw6nC4bB67ah96o5f0T1XLXvY6W2CjZbI5isYiu7gwjcEkibFXsQGx2C/Fosi/ezZshlUwjk8uYn/VhthhxeuzIpFIymZ2XRtZqMyGVSddNz90qVLPf/L2/k+bqvRksuiKnZ0UUinDvVyu8/BZsNmCmWCxhthiRSMUEl8JIpRIUSgVqtQqtToPBqMNkNmK1mbDZzai1ahQKOSKRiP/78QdJJ9P8/u8+yHIwglqtYmx8CPeQg+//xV9z083XMb5nlDdee6eRXMhuN2Mw6tHqNKg1ShQKBTKZDLFEzP/5jRJadfVzfTin5+2TWabGq0LDaYFnf7r6s3eLTCZlYnKMZCLF9JnZgfjUtBMNddLpLHqDbkeWjFaqFIyMeRifHEMul3H6o2mSiRTzs77mQ7ePSjWkuF/F4AT6jyAcdhgKhRyzxbilmPpeo9NrkMmkzJxfIFIv3z3ixGw2IhKJSCUHX767FVqdBrPFWEtItf4HGqR4MOvhwX8Mv3hPysRwCZ1axPHTFQp5EaNOePNk8zu6Qy6X4XTZ2LO3WlbaYNShUCqQSiWUy2Wy2TypRJpIOEZwKUw0EiceS3LnP/h1PnP9IdxDDv7+7/42d3/jdnbvGeU/PPE0n/7cIb75z+9h7+Xj/OCZl/ir//IC8ViSaCROaDlKMpEil81TKpWRSsUoVQq+/FkRn7/qomXs5yetpBIprtpbvf5aNZw4LWJxE9XGh0dduD0Ops/ODcSBrxvRUCeTzmB3WikUuq9t0U/EYhHuIScTe8aw2Ews+paYPjNLYHEZjVZFpVLpWCBvUORyeewOC+lUpud1cwQGg+jzh762/ggrMHBsDguVSoXlpd6nK94snmEniVhyVbiWyWzAM+zE5bET8C/j8wa29TPL5DJGxtwsepe6znuxkYlisxzcK+IP7oK3Pqhw55eqq/B4Gt75CGxG+OYfb+zx0+o06A1aVGolEomEA1fu5W9efH1L/jAHr94PwIl3Pmhu6sh/+VeixjbFR34373yQp1wu86WrY7gs1UnhyR/Bk3+9se+p0ao5cHAf0UiMUx9MNzf3nM3cCxqNCqfHztyMb1udha12M26PA4fLit+7hHd+cZUY1uu16AzaDTvS9hOr3YxIJCIY2ISiFNh2BB+HHYRIJMJg1G1pEug1CoUcpVKxJsY7Eo5x8t3TnHz3NFKZlANX7mXv5ePo9dvj+OR0VTNsdisaGJDPQyhWwaRbPWnq1fCZ/RBLdDeZSiQSzBYjY+PDmMwGkol0NSXwmVki4RgGo775LQOh2bdh2qdkKbBMMBDiw/MXfSKumZJs2JnQM+RAIhHjW+kw0Sc2IxqohT1GQjGc2+TvoNdr2Xv5OAeu3ItUJm08j80WtHg8iVKpQKGQr3p9O4lFExiMura+MwI7F2GrYgdRf5Bi2+zAtBKz1Ug2myO9zoScTKRYDkYolUrYHdaqx7lUWjNDdpf2dqvUk91sZvXS722LeBKumIDLxsBouDhISqWgVcHPj8N6Vni1WoXFZsLltlEolggFw4SXow3fl0qlgtGkR6mUr+vT0Q2bTTn9L/8nUcO34W9P6VmK0ii5nM5WuPqyapsIEb+aG0EmlzVKQbfDYjUxPjnKwpyfwAY/00bZrGiok8lk0WjVqNTKdZ+RXiOXyxge8zA+OYpKpWR+1se5M7NtFxwSqQSlSjGwz9iJcqmMUqVALBb1pYqsQH8RLA47CINR3/bhHzTdWkAK+QIz5xc4+e4ploMRxnYNceCqfbg8vU+33IzeoEOjUW1pgum35eHBxyGVreU4oBayCJgNIv7kn61ecYlEIowmPSNjHuxOC7lsnnNnZgn4gy3zQETC1fTTYvFgV27N1obFhJlM6qKjYDxZYb4WPWkzldEyS65WtnpkzIPRpF93teny2Ekl0vgW+ht+uVXRUCfgD6LRqNAb+h9t5PLYOXDVPsZ2DbEcjHDy3VPMnF/ouFWyE1f41c+0PdYyga3RlY/DocNTfOehb/LmGyd49OEnGq/fe9+dfP3u32zkzH/uBy+vam/mgaNHuO2rN0GtiuBffu+HfPfx7zfajz1+lEOfOgBAOp3hT/74z3npuVcb7c2sPL7V+Tr1t5L6d7TazQDMnF/gnq/d32i/+bYb+Na3f7eRPvj4377P/fc93GjfKiq1EofLxsz0fHPTtmEwVospbXQAt9pMuDwOXB47voUAvoVAX9JTK5UKRsbczM36Wk6qG6VXE0krbrkOvv2PquIhkRGjU1+0xpw4U+F//X+q4ZB6o450MkMslujKIdBg1PH5X/s0r7/y1qav8WZ8HFb6Nrz8joyScpyzpy6sCpn8zBXVbJLUvuO3Hq3+rdGqMRh0qLUq4tEEsWiiYUVxexxMHdzLyXdPb/i+2wi9/q2VKgUjo27mZnx9CaM2W4y4hxy4h6qhqX5vYMPVQd1D1YRQnRYCg2RsfJiAP9jTUNt280jzON/qmJV0Gvc3MsfQov9O88zyUphHHnyM42+19qLu1H+7a7EVOlocmr9onbpoeP9XH3Hj1Xdw/5GHuPa6gzxw9Miq4+rce9+dfOHmz/AX//6/cuPVd/DSc69y+123cvNtN0DtAuybmuCRBx/jxqvv4NTJc3zjm3dx6PBU86mgdkFWHt98vk79NfMHf3gvyWS68V20WjXHHj8KtWvwjW/examT57jx6jt45MHH2Dc1se533QwGo25HbVGwBQtIdSVU3W9VKhUcuGofe/buQlO3a/cIh8vKUiDUE9FAny0PTsvFBEnvny3z5qmLK62DkyIe/CdyyuUysxe8+LyBrkQDtVVbpFb9c1A0WxsWQjoyqeyawf+D8xf/dpovrnRTyTQ+b4DZC17K5TJDIy6GRlxYrCZcQ3b83qVLSjRQK3e+FAj1PL+DRqtmz95dHLhqH0qlovFcbVQ0sENX+LFIvKd5YTrNIwev2U++UOD+Iw9x49V3cOPVd3Dr9Xe3nEw7jfsbnWPocp5ZWgw1PlsymeYP/vDe5tNAF/13uhZboa1wOPb4UY498SDU1MpKpq6YJBaJ85+++98AOP7WSd584wTXXneQQ4eneODoEZ5/7XuNL3HDTdeytBhqqKGfvvg66WSGKw9dzqHDU1x73UFOnTzX+AFf/PHPkcllHLymuhpayaHDU4yMeVYdv/J8dOiP2nd79oUnOHR4invvuxO708KrL78JK77LyJiHQ4en+LVbPodaq+LFH/8cgJeee5VTJ8+x/4rJ2ifaGhKJBL2h/wWtNoJKrUQsEXc9gTVTqVTwLQQ4+e5p5i54sbusHLhyLyNjnp5UdXS4bGQzuZ4ntOmneFjJyWmYCV3MJvnZAym+8uloR5NzK6rbFYObEO759Ysi4MU3KqjVSlKptffJyu0Kp7UqkFZSyBdYDkaYPjtLPJpgz75dTEyObdpy0g39EA11opE42Uyu6+qU7ZDJpIyMeThw5V7sLitzF7wNK8xm81mkkmnEEvGWso32mngsid6g27DzbCu6mUcsVhP5XKHlCv7Q4SmefeGJxkTeadzvNMc00+0889STP2i8556v3d+wSPRzTt0obYVDNBLnkQcf408fe6q5CYBkMr3mB1BrVVjtZh59+ImGkjt0eAqtVk14+aJKPv7WSZLJNPuvmMRqN6PWqvD7Lu5TLy+FKeQLTLWYnI+/dZLbv3xklcmofg5qN0C7/gDuv+9hbv/yEY6/dRKL1QTAwpy/cXxoOYJaq+LgNftxuW2kk5lV4YZ+XxC709JWXXZL3Y9gJ8U098oCks3mLpbvjsaZ2DvG1JV7tzS4mswGFAp536ok9ls8yORS5DIpf/uBmI8WLloK7vmN1ZNyt0TCMUwmA3K5rLmp5zRbG07NSFCpVesmQloZAXjLZ1e2rEUsFnH6w/Oo1SqMpt4LoX6KhjqBxWUUCvmWLEAOl42pK/cysXeMaDTeKHfdiy2QXq/wt0qpVGr4X2yVbuYRl9uG2WJoVIddORE3zyvtxv1v/P5dHeeYZjrNM/uvmGRpMdTS+gH0dU7dKG2Fw0Pf+bfrfomT753BM+xsmG3qCqcdK78EsOpLF/JFQi0uQrfc8pXPk05m+OmLrzdea9dfM803yMKcn0L+ovd3s0gKLUdWtW+FavnsjW8J9It+WEDisUS1fPeJU5QrFQ5cuZfLD+zZ8ACrUiux2sxbcobshl6Lh5WTba4gIxyKshQIMRfU8N75i1s4t1y3cfEQDceQyWUbvpabYY21QaNCIpWQXudZnQ9cXB0fbDNeuYYcVCpw7swMczNe9AbdlsRlM4MQDXUC/iBWm3nDK3uT2cDlB/Zw4Mq9lCsV3j9xqlruuodjQy9X+L0iHkv0rNx2p3nEXLM41LcqTp08x7e+/bvrLgA7jfsbmWPoYp4JL0ca5e1feedpnnzmWKOtFe3673QttkJb4dCO7z7+fV567lVu++pNvPLO0/zrf/cdzpy60LPJdCMce/woB666jOd/9LM1FpCdjlanoVQsrdkf3k7qBbb6YQEJBkK8/6tTnPpwGq1Ow9SVexmfHG04A7VDLBbjcNkI+IMDScfdS/EgFl981JLJNMViiVw2h38xzXLKgi9UbXdaq+Kh2azfjlQq04iu6CcrrQ3xZIUPpkGtUZFJZdbNnrgQoO12BbWVomfIgW9hsZqdMpdnbsYLwMiYZ8P5B770aXj8fxfxV/83PPotEbd8wTEw0UAtM2K1GJZt1e++Hmq1ivHJUaau3ItWp+HUh9O8/6tTmwov7kQvV/i9IpPOUiqWeu4D1Yp7vnZ/w9IM8J+++99IJzPc8pXPNx+6LRz61AE+eO/MKh+ITuJhO+h8V7fh0YefaDhxfOnTdxEJx6r7lutkEHS5V68gzDXTDTXzbd2Uw4rtBmrCoK7AXnnn6VVOiXXR0OxNSof+mqlvsdQZGnEhk1/ci9dq1aucSixW06r2zaI3aHu6ougFBpO+r5+pXC6zMOfn/ROn8HkDDU/64VFX24HW6bKRTKTWJKPqJ70QD3qDDq2udVGfaCROKFri+DkL8WR1de60wrf/0WorRSeikRimPpj3V7LS2vDGe9X/q9XKNf5Pzaw0XDUXvRKLRbg9DqKROL6mktkBf5B4LMHoLk/XoY6/9QX43a+K+Wi6wrN/A2KJij/8ehBp7uxAREOdeDxJKpnG2cZqIhaLGR51MXVwL26PA583wPsnTrEw56dc7l8OlF6u8HtFPNYbMdNuHmlFp1V4p3F/vTnm5ttu4PnXvteYs5594QmsNlPHeeb4377fiEw8XvOBaLclvl7/bOJabIT1R+lNsP+KyTWmHVb8OCu/VP1LfPDeGZaXwqSTmVUXwWo3I5PLOPneGe6/7+GGQLnx6jsaF/bJZ46xb2qCRx9+YpVo6NRfM3VzzsoywhariXQyw4m3P8DvC675wV1uW9v9qG6QyWWo1MpNRS70C41WPTALSCadZfpMtXx3MpFi72XjHLhqH/ZaQqeVWKwmxBLxuqK0n2xFPNgcFsxWY0vnQWorwGgkjlhu4IW3dKvEw5/8s4shj52IhOMYzYauLDeboZW1QS6XodaqSa/I39CKD6Yvblfcct2qJly1VMk+b6ClY2g0Emd+zo/Zamwk+loPpxV+96siAqEyh/fDN35bxNX7MvzqtJJfu7L/GSibCQZCiCXiVYN3HbvDwoGrquWuk4lUtdz1mcGUux7kCr9bYtEEKrUS2Rb8dDrNI/XJfOXCsz4vNJv8qW0DrDfu/+m/e6rtHPPSc69y6/V3N+as2798hNMfVcOM1ptnwsuRtovblXSa4zpdi62yaeFw73138vxr3+Pe++6EmsenZ9jZ8Bht5tWX38TutDSOr3uQvnv8w4ay2jc10VBWt3zl8xTyBU683Tq2/NjjR7E7LevGpbbrr5nvPv59lhZD3HDTtbDCX2Nuxsvxt042vFXr5qybb7uBfVMTLUXIRjAYe+tH0Auqn2mwQiYSjvHh+2d5/93TiEUipg7u47L9E41VZr0cdL/9GtqxUfEgk0kZHnUhlUqYu7CAzXhxC6/5J4/HEkQjcaQKI3/1ysWBcyPiIRKKUiqWMFn6s13x7X/UwtqgUVEulUmvI4rqxFMX37tyu0KpUuAecuBbCLDYYuCuk0lnmbuwgFQqqa7QalE5TmvVCnLPr4v4kwequSW0arhyUsTwirLl73yYZnx4c5EIWyXgD2I06RuTtN6g47L9E0wd3IdYJOL9d0/z4ftne56xtBO9WuH3kngsuaXP1Gkeeem5V1laDDUi/wD+/r2/BbWIhGY6jfsbmWPoYp558cc/x+60rPEbXG+B2q7/Ttdiq3SVAOrmWlKKn730i1UJnlYmn6ApAdQDR4/whZs/s2pi71WyivrnabW6Wpmgo11/xx4/ysiYp5Fc49AGE3M0JwLZDON7Rpmf9a27PzxoZHIZo7s8nDs909w0MGQyKS6PA7fHjkQmZcm/XJ18Z32bDg3tJd042Wl1Ghy12hn10MI/eeDihPn9lyo0pylQa1R4hpxEo3FyqTD/uDqeAbC4DH/3f+v4mHLNtVeQzeY4+e7p5qa2dEoAdc+vi7jnN6p/x5MV/qwagY17yIFMJmX2QtUfoR133CxiuBZ9Wi96Nb5nFM+wk/dPnOo4cdbF02/9moqDeyvsHe4uwuDkdIUzM3DZuIj7/l+dr2E/0GjVjIy6KRZL2F1WSoUivloSp0KH9Nv9ZGLvGLMXvC0tPduBXC5jeNTN9NnZ5qYN0WkeefKZY4ztHlrTXp8D5ma8jbG907jfbo5pxUbnmZXt/ZxTN0pXwkGg9+gNOnR6jVCxbh00WjVuj4OD11xOIp7ivV99hN+7tOkY9l7STjxYrCaMJj2L/uAqobMy0+Kf/bfqBNyM3WFBb9ThnV9ktyvLLdetjGCAP/4Pa9+zkvHJUVxuO6+/8lZzU1s6CYdX/mx1JEW9WOXE3jFi0URX98uQA+68uXqeQAi+8cdaDhzcx6I/2FKoVi0T1cRZB/dVWjpVtqJQBIlEhFhUvVbvnqngsIj58x+U+ckvm4/uPyKRCJfHzhVXXYZOr+HE2x9uKMFXP9mxlXjjqYFbPQU2hlDkapuwOy1EI4kdY20AcLntLC0uD6w4VTsK+QKJRAqZXEYkHGtEXpRLpXVzBgyK+uq4vmURCceQSCS4PHZkMine+cU1hXtu/+LFglDHT0GroJBCoYhWp0Eqk3J+NgWIGHZW2yaGwWkV8fqJ5nddRCwSM7lvF4u+jUWdtCtydc+vixoOjfFkhRffqP6tVClwuqr3S1crVpGoUfRKq4Zfv75INi/i528EKRSKOK1w+6+JuOc3q9sit39RxOeuqvbdyLrZRDItIhSXcPJchTferfDOOTP+pIfd9jCS2iasXiviL/66wnNrLdF9x2ozMb5nlPE9o3jnF4nHkpw5db5nmU63SrFQxO6wdrT2DJJq4badt4UrsBpBOGwDSpUCg0HHUp8SGG2Gamy3uOeZGLeC2WIkHksyMz1POp3BaNYzPOJGrpCTz+fJ57qYsPrESvGgVCnQaFRkMlkC/iDl8lrLQDfCoVQqIxKJsNhM5HIFpufya8QDiDixjmtNLpvD5XaQzWY35HDbTjj8yQMXJ+2fvQ31TMcGox65Qta138kVEyLc9goSUVVERNNq9g1F+LXDef6Xr1eFQjuRQE24vPORiPkAvPgLeOPdChcWVUQzGsQyA2aLkeVgmEOTF4XlPzha4e3WW859Q6fXMLZ7mPE9Y5RKJabPzHL+7BzFYgmFUr5jKlSWSmXUGhUikWhDQrOf5PMFLFYT2WyOYrH34eACvWHTzpECm8fQ4+RKvcBg3IFhoQZdo0yz37vE+786xcz5eaw2E1NX7mNs99BAsiWux/lzc/i8AQ4dnkKjVffE5BuLJkgm0xhMOkRiEb94r8Ib715sb5ddslyuEInEMJmNzU2bYmU/9UiKOipNNQyz262jq6dgzi+CWnVGuyGFRlle5cS4knq66jferfqE/N//sepb8Yv3KvzivUpjqyeZSKFQyBkZcxOLJnDoLv4Gi8vV/waFXC5jbPcQU1fuw2ozMXO+mjHVXwszjUcTGLoMKx0U1ZwO2uaXt5V4LLnjrpPAagThMGDEYnEtxfTOWdkrVQqkUimJeKq5advQG3Rks7lVK6F8rXz3+ydOEQ5F2TU+zNTBwZTvboVEIiGTznLinQ9xumxtoy1WRka08m+oUy6XiUUSaLVqjLWCRB+cv5hEiVpIY3NYY51oOIbJrG+bD6Nb6g6RrIikABCJRWg06lVltNshk4pQSMHfyhWidiniyapAqguFP/tv8PRLVZHQ7Ei6EqvdjN6gqzkZ5+sVywHWtcz0A5fHztTBfewaHyYcivL+iWq565Vbkblcnmw213VOikGQTKSQSqUoVYrmpm0jFq2mxe7FPSzQH4RfZsAYjDoSidSOMsNdahaQRDzF6Q+r6auLhSJTV+5l6sq9mC29WWl3i8NlJVGLwd9IqGYnEvEksWgCo0mPXC5r+BaszMB4z6+LWjoMRsJxNFr1ltNPt7M2qNUqFAr5urkpmikUK6SzoFKKSWYl5AoistkKi8sQia+1JrQTCiux2s1YbWaWg2F8CwFy2Ty7Ri5OgCdOry/QeoXZYmzcf8VCkfdPnOL0h9PrivBqGKSwwm9HsVgikUhtKTRToL8IwmHA2OxmYpHWE+J2cClbQJaDEd4/cYoP3z+LSqVk6uDeavluzdow3V5jsZoQiUSN7YmN5nnoRDQSRyKVNIo91cVDp+yS8ViCSCS+5WqZK60NL9QcIuuoNSpSqfSGnPzefL/CvjEIJ1W89YGUU7Ng0MJrv2o+sjtWiob6b5BMpHCbL67w+2lx0GhU7Nm7i6mDe1GplNU8JCdOdSx3nYgLK/xuiEUS2FYkXhLYWQjOkQPEajNxzaevQKlUXHRKyua73ifuB0aTnnK5vKMsDhariUwm13UWvUQ8STgUpVKu4PTYsdnNiMRi0ql0S0fFraLVabDaTHjnF1edv1W0BbVJ/vYvVlfw8WSF46cab1mXYqFYFQ5GPdlsjkKhSC4P5xZE7BmuoJBXnS0/d1DE6+/Cyug+vV6LTqfF5+1u6d7sHLkykmI+AL9YsU1BTfxms3mSifbCbiWJnAqVxoBDn2C3p4BUAq/+Cs62ToXRllaioc6N11z8+7H1w+k3TTUJlZuJyVF0Bi2++UWmz84SCXUfmSCRSKqlyHdASCY13xi5Qo5UKtmQGOw1YrEYs8WIZ9jJyJiHicnRagbELscBgcEhCIcBotVpKJZK5HJ5rHYze/aO4R5yYDQZUKoUlMuVgXs3O102wsvRbU1Es5J67YJF39KGJv1isUQkHCMeTSCXyxjdPYTeoKVSrvR0gJbJpHiGnSz6g2tCLllHPGjVF4VDLl+NquiGQqGIRqdGKpU2Jum6eFgZ2vi5gyKe/enF98lkUkZ2efDOLXZVqKxZOKyMpHjxjQorDT9SqQSn204kHN1QmWer3UIiq+D1d1L84t0y752FzUQBthMN+8dhYrj62f/HSS2vHS/3tOaDw2llYnIMz7CT5aUw02dnWfQFN7ztWMgXcLntRMIxtnHNsIpyqYzFahx4VJXeoMPlsTO2e5h9+8fZvWcEiVRa3a6LJUkl0qR2SBSKwEUE4TBAVGoliViS2Qte5md8LPqCZLM5lCoFLredyct2VZMAGXTI5DLKpVJfJ3SNRoVao2I5uPVogF5hNBm2ZAHJZfMsB8Okkmm0eg27xodRKBUUC8UNTXTr4R5ykIgl1/W/oIV4KGRjDeGQz4t4p0vhUC6VQSTCZjeTzxUaojKXh3jq4iSpVcMt110UD6VimV27h4hGE12JppXC4dv/SFQL+2xtbdDqtBhNOgL+YNf5PvQGHXaHheVgeN3y293QTjQAHLpMRN26/aOfS4jlzZu+j1ZiNOnZNTHCxOQYqVSG82dmmb3gbSkcu+HiCl+6rSv8lRQKRQxGHcVCse9jjt1pZXSXh8nLdrNv/zhqtYpMNovfu8TpD6Y5d3qGYCBEqVikUqkIFocdiCAcBojBpCebyV+cAHJ5YtEEAX+QuRkvwUCYYqmETqdhZNTN2PgwVpsJjU6DVCKhkC90PVh3g9VuJplI92RC7RW9soCkUtW69/l8HovN1EiPnM3mKNbObdbD3jERMhl0U3DT5rAgElWLF3WiLh6u/5SJB74eQqmogKi6xVAsimhTmmEVuWwehVKOSq0kmUg3trWCkbXioZ4gqlAoYrGZEYmqfiCdWCkc/uX/vL61AajWwqhcLAzXCYlEgt1hIZfNdXXd1qOTaAC46RpQyKuf/6nni9XtEbVy03kTVGolo2MeJibHkEglzJyfZ/rM3Ia2aNZju1b47RCJROh0WhI9+H515HIZVpuZoREXeybH2Hv5OFariWKhSDAY5sxHFzj90TSLviCxaGKVxVUqk6FUKXpyvQV6iyAcBojJbCCZSDUmrpVUKpDJZImEYvi8ARbm/NVBRSTCZDawe2KE4REXJku1AmI1aUtu06ZOmUyK3WFl0be06XP0ml5bQCqVCvFYsrr/LKqmszVbjIjFYv7e30nz4D+Gy3bDb98EV0zAz9+p/g6t0Bt0GIw6fPOL6x5DzZ9Bq67+V8jGeODrIbIFJVplARARS4kYslcIRkRril2tR7lcwWw1Ui6XV/l9VDVB6wRR1cgKIwtz/sbx61EXDvfcstzW2gBgd1hJp7NdWTKoRR0YjDqCgRD5TW7DdSMaAL5w+KLo+eMnK6RTaWwOy4a3AMViMZ5hJ+N7RjFbjPi8Ac6fmSO0HOmZP9KgVvgbIZ/P43DZSMSTm97iEYtFmMxG3EMOdu8ZYd/l441qkJFInJnpeU59OM38nJ9IKEYmk133eRJLxGh1mrbWPYHtQahVMUDG94wyN+Pd1ECh0agwmg2YzAaMJj1mi5FYLEE0HCMSjhMNx4h3s2yuYbGakEjELG1hFdhrXB47mXS2b6swk9mAe8jB3/1ijknXIidOiYgmqhPxtfshlRHx169W1mQvdNurA5hWsXpAdZqrxzVHNqxCdDFXAYAvCPFUhWJRxH//RfePnsNlQ6NV19JZr7YQfeYKEdddefHfT/4Inv9bM1dfewWvvvxmx0m+XqviT45cTLHYqhCXQiFnYt8u5i4sdIx4AVAoFXiGnaSS6a4zTDbTrWjYP17drgE4cabCtx6tvq5SKxkecVW3FroQDzaHBbfHjt1RLfXtWwj0LSWz0aRHpVY2EkTtBOwOC6VSuWuLEjVn3OrYpMdoNmAw6IiEY43/ouHYpvwUZDIpI2OeLRe9Eug9gnAYEGKxiPE9Y5w9faG5aVMYjLqaiKg+sGqNmmik/qDGiURibaMSdk+M4FsI7JhtCplMytjuYabPzmzIKXIzPPWvZLitTeKtaYLvGaIKVC4KkWBEwmKoiFIOP/r5qiPbUi1B7SSZSK1JVa7Xiti/m1Xi4T8+J2Ym+2lOf3h+XavDk88c44P3zvCT51/jyFcT7HPOVxuULpKqL/DCj15hbuZi5Uuj2YDTZeXsqZmunC7tTitanQbfwuKm9vK7FQ00iafmgmBGkx69QbfquzSjN+hwD9lxexxEI3G8C4FNi51uqY8JM+fnN7WY6AdKZbXUeXPxtpWo1EpMJgNGs74xBqVT6eoCpjYGbSTleTv27N01kDFBYGMIWxUDQi6Xo9aqe7aazmXzRCNxFv1B5mf9hJbDlEpl9HodI7vcjO0exmI1odGoENf8I+qrZZ1eg0wma5R83gmYzAby+TzJDqvjXvD1Wyr8+DUR+8ebW2riYbXBYUPEkxVy+aoDYz4vQiGvbk9kcpBMS8iVVZi0Zc7MVFjcgLGnWCwhllTD1bLZ3KrCUlVnyapjoKGWW8hhrjC7KCWRU6+xKh06PMW/+/OHcA85wP9XfH7fKXbbw40v/v3nE/zs5ffXDP5mi5FSqUw00nkFrtGqsTssRMIxEt3uyaxgI6IBYP/4RcfIZ/+mwrmaBgJqDshKtDrNGutLPV31xOQoCoWCuRkv02dme+JU2YlKpRqlIpfL24r8QVIsltBo1VQqlUYtGJlMisVmYmjYyfjkGJddPo7VYaZcKrO8HGH6zAynPzyP3xsgGolv2mm0FXqjjnQq05VQFRgcgsVhQGi0aowm/UDKaCuViupqwGRomBBzuTyRUHU1oFIrWZj1b2hro98M0gLyf/wTERIxpLOVVaWrEcGZeTnLoerAJ5NLkUqlBIJVM2vzXBJPVd/bLoX04ctFXH15te5CoQguqxQkCp57Q9HVhLgSqVSCZ9hJsVhqeR/ptSLu/FIFvbb2udJiFqN65hYivP1BdSUO8M1/fg/pVIavfep9sqko2WQYlyVXFU0SJQz9A06+e5r//uPVJpE9e3cRicS6+tyeYSdSqQTv/OKGwxU3KhoA/vFvVb8/wN/936pZKZsZGfMQjyUa4t095MDtcaDRqfEvBPAuDL7cdTcr/EGj12sZGnWRSWcxmQ2YLAYUCnljSzQSqVo1B/GseoadRCPxgf8uAu0RLA4DQlsrjbiZvb6NUiyWSCbSLAfDLMz58fuCpFNp5HI5w6NuDlx1GTKFrFHhsFyubGt570FbQC54Rdz71QqJlAj/cgWPTdSwMqgVIv72rA1fSEIkqeLUdIpAqNKIYlj5X92y0A5fEIIREWa9CKUczsxUeOesFqvNDCI25PFfN9faHBby+cKald3qBFFiFPIKelWe5aiUw5eXueYy+GgGwnPvMmE6yf7dWXJFGTZdzYIggniyyAcf+hi//Eoy6SzB2sStVqtwuK0E/MsdzeoGow6bw0IwENrwSnozomHIAVdfdlEArpf4KZvJ4fY4UKmVjO0eYnzPKJFwjPNn51iY83dXHrzHFIsltLrVK/ztQKvT4HBZGds9zNjEMAev3o9YJCIeT+KdX+T0h+c5f3aW5WCYZCK9YTG4WdRqJdR+O4GdgyAcBoRer6VQKG7LA5DPF4jHkiwtLuP3LZGuhSpqNCo8wy4mJkex2c1odVqkUgnFQmlgAwM1T/14UyhWP4kl4eW3YNRZDWFcjoLNVG2TScs4TAXKygky2SyZTI7SFq9FLAnTC3B6FhZDNbEgYlPiIZfNI5PL0GhUpJJrM2Pm8rAUhanaNoxEXMGkq6BWVpgcE3P7F+GWz8Ll42LElTwq6UUnx1hSRDQpRSQWo7WOk0ymmZ/xQc1kLJNJ1/hXNCOVVsMv6/fYRtiMaAAYdl4MS33xDXj9RPMRVVRqJS63jasOTxGLJTh/Zo7ps7MbFjc9p1ItUz6I7ZE6SqUCm8PC8KibyX272Ld/HL1RTz6XJ+BfZmlxmXd/9RHe+UXiseS2LSzkchkymXQgCy6B7hGEw4AwmPRk0tltewDrqNUqCoVCzRKxxPysj3AoRqVcxmDUMbZ7mNFdHsxWIxqNGrFE3Ne02AqFHLPF2MhaOChSGXjzJDz/Ojz3OsDFNMsaZQnKKZbiWvQGLWKxmHyu0NNrsBXxUC5XMJoNVCqVlpPekB106mpKagC57GJ+g1U0+XMUZLsp5SJINW5UhmGmz8xApYJSpcThslIsFolEYm2dSE0WI1qdhuWl8IZW8JsVDTQlfmr2bwCQyWUMj7iYmBxDJpcSjcQ5f3aOpUB7ETQocrk8NntVbPVrL18ikWCxmfAMORmfHGXf/nGcLhvlcpnwcpTps3Oc/uAc3oWqn4JYIqZc2lgYaz+QSqXVxHldRPEIDA5BOAwIi9VELJro28DQLTq9hnK53MjGVi5XSKcyhJajeOcXGysMiUSC1Waqpdh1YDTpUapqZsMe7m1arEaymey2Z4erFkS6KB6MmjyiYpLZRSlmqxGVWkmlUh3ke8VmxUMhX0AqlWIw6siks2usQ1aTlGGnCH9Yhlm3ui1fgFSmwnmvCKtJQrao4bxPRiJvxmxSYFCn0Y7cwonjp3j7zfdIp7MUi0UcbhupZAaFQo5EIqFcqVQzW65AqVJgd1iIx5JENxDCuBXRQFPip8eeXl23w+m2MbFnFLfHwVIgxPkzswQDoVp+gMGt8DshkYhRqZQ9XVkbTXqcHju7xqvpnMd2DyORionHksxd8HHqw3PMXvASWo6STmVWWa+USgUSiXjbn8t6Eb5eOZUL9AZBOAwIm93CcrB3CWQ2i96oI5u9mL2ymap/RIrgUpj5WR+LviXSqSxKlQKn28bey3Zjd1rRG7TIFXJKpfKGVpYrEYlEuDx2AouhNZPQdnDiDEikUq7cU/2NrMYKyUSac7M5FEo5VrsZmUxGuVzuuM/fLZsVD8ViNcOoRCohmajOlEqVAp1eS66o5KrJLP5gmWhcRLJoYnG5gEZZ4QevVHjlnWpxqVl/mWF7AZuhhFaRJhEL88OfFfjJT95lfra6RQGgUqswGvXMzfhIxlO1xDxqlMpqhce6cLHazcikUoJL4a63d7YqGmhK/FT3bzCZDYzvGWVicoxEPMW5s7PMz/jI5ar3fr9X+BulUCzhcFm3lDNCo1XjcFoZGfOw9/Jx9l0+jlKlIJPO4p0PcPqjac6dmSW4FCaRSK0RnCuRymQolPLGvbVdlMsVrDbzwPyfBLpDEA4DQCqVYDDpCC9v/81vMhvXzV7ZinyuQDyWIOBfZu6Cl6XFqnOcRqdheMTF7okRrDYzWp0aiVRKsVDsejA2mvRQqZb13Sl4IybKlQpTu6vXZ9hZvQYfnU1SKBbR6tQYjXqkUgmFQrEnKcA3Ix5KxRJisRiH04pILEatUSEWi8mks1V/ljBcewAkUtAoywxZi7x+osKZFbl0Eml49wwkS3ZmAmr+5o0kreYJo0mPWCImGAhRqVQoFIpk0tWMfyq1Ep1ei06vxWY3sxyMkOgyWmeromHPCPzOr9WsDSI4OQ0//5WK0d1DTEyOIRKJquXOz86SSq6+pv1Y4W+FcqncWOV3a9FTKKpidnjUxcTeXey7fByz2UChWGRpMcTpj85z+sPzLPqDxGOJDTlfiiVidDrttmdtrFQqmCwGErHkGn8ege1DEA4DQK6Qo1Ip18TFbwc2u5lIOLbplLLZTI5IOIbfu1RLGxulUitOtWt8mJFRN2aLEZVGiVjU3j/C7rQSicQ2bbHoNXULyEdnosQTlca2xbCzGnN/biZbnWhE1cgBrU6DSCTqif/DZsSDSCTCYjMhk0mrTq/JdGOlH0vCOx9VzfapnJaTc2beP9X6/lNq9OSLonVN9zanlWwmu6ZmQKlYIpuplvx2eezI5FXnyW6sMb0QDV+6VkSuIKLmeI9eK8ZgcRAvOPAtBDh3ZoZIqHUFyl6s8HtNuVLBZDasO07Uy067hxyMT4yy7/Jx3EMOKpVqbZQL5+Y49VE14VckHNuSI7aolrdjJ1wfnU5LJrN2S05g+xCEwwBQq1U1k/L2OviIxSKsNlMjxG6rlEtlUqkMoeUI3vlFfAsBEokkUpkUq93Cnr1juDwODCY9SqV8lY+AWq1Cq1NvqfBRr6lbQLy+BIthSKYv+jxU60GImPWVSKcyZDJZpLXEOAqVgkqFTddiqLMR8aDTa1CqFCRiSbQ6DblcvuVEEYlDMivHYDITjSZabgnpjTqAlsJBJpfhdFkJL0fXhH/W0Rt06PVaFr1LtdwXkrar262KBoBbPwszfjDpRaiqOyZcWDKwfzjM/+/7Ufy+pbYTzWZW+P2mkC9UE6HlCg3xpTfocLptjI0Ps+/yccb3jCCVVcusz836OP3heWbOzxNajpBKZVr+vpuhXC43FhmthNcgUWtUlIvldbdXBQaPIBwGgFanoVypOiFuJzKZrKfZK5spFIok4imCgVC1bLh/mWw2i1KlxOV2NMqG6/RabA4LiXhyR3lLr7SAJNOwGIaJERq1K+riYSEAxUKRZCJFLldAqVJgtZmQyWWUSqWut4Fa0Uk8SCQSDCY9IiAajZNOZZDJZGh16nUnjnK50nBCbTX5txMOOp0GvUFLYHG55bllchl2h4VUMs1SYLmapVGpQKVWUchXyyKvpBeiAeDGa6pbgFbjxfO/9EsRB3bn+S/P5+jmJ+i0wt8O1BoVw2NurDYTe+tlpzVqstkci74lTn94nnOnLxAMhEjEU11ZdzaLzqAjlUz3ZDtuKyhVisY2nMDOQBAOA0Bv0JHP5VsO2oNEqVIil8u63oPeKqvLhvtYXgpTLBbR6bTsP7AHo0mPxWJErVUjkYjJF4otJ6dBoFIr0ek0qywgyXTVYXKleDBoq6Wx6wWg8rk8iUSKUrGEVqfBYNIjqfk/bPa7rCceFLWMoI1tg9qcWS6Vq9aSFkKj3q7RaRCLRS2tXu2Eg9lipFKB8DpFjyxWExq1imAgVJ3EKtVcE3Vv+FKp3Ng+6ZVokMllXHO5CIPm4vWdD8DZmTwTIyL+43OrDl+XViv8QSOTy7BaTQyNutkzOcbuPSOM7vIQiyQIBsOcPTXD6Q+nWfQtrSk73W80WjWFQnHbtxJlMilyhVzIHrmDEITDADBbDCQT6W0bnOpotWpEItG2PID1nAORUIzgUohsNsf5c/OIRFWHzd17RleVDaeW7GhQWG0mUsnMGnN/s3hQyEUYtBWWapkkoZoPIZvJkU5lEIlEGI16NDo1iESb/g7N4kEkElVDCKOJNZ+xUCgikUowGHUNn4Nm5Ao5Gq265Z51O+Fgd1pJJVItnQjVahU2h5lYNLHGwbVQKFIqltAbdYhEIgxG3ZZFg0gkwmg2cOtnxVh0F6/r/GKFn74FN14j4oc/F3Hy3Kq3tUUkEqHRqgYWPSASiTCZDXiGnBfLTo+6oWZBOn9unkg4ykcnz7EcjNScULdnr2CnZG2USiRodeqW96fA9iAIhwFgtZmJROKbXoH2Ct02Zq9ciUIpRyaT4VsIsByMVJNReZdIJdPIZFLsDgt7Lx/H6bZhNOpQKBSUy+W2++ZbQSKR4HLb8HuXWg7SdfHwuYPVpEoKuYgRB6vFA1Cq+XxkszmkUik2uxmFUr7plN518bBrfBixWIzfu0SxuFYUQHXrRKvTIJW19qURiUTY7GZiseSaUMn1hINCqcDpshJcCrf8/Fa7GYm4Gm3RypxdKlWdJ4eGnbiHqg6LmxUNWp0Gu8PCrZ9J4TJdFDH5ImhUIsaHRPzwFRH/5b+v/f3akc8VcLntRCOJlr99L9DrtThcNsZ2D7F3/ziT+3Yjk0lJJtIszC9y+sNpLpybYzkYIZVMo1KryGZzW9ry6gVyuQypTNrSijVQamKrlegV2B4E4dBnRCJRI2//dmPcQdkrJRLxqlVeoZ4WOxBibsbLoj9ILldArVbiGXIwMVn3j6jWtShu0ZdgJSazgUItf8V6JNPw+rudxQO11XYykSKfK6BSKzFbjUil0qr/QxuHvVaIRCLEYjFyhZwK6/vJlErlWpSFmVwuv8ZRs1gsYbIYyLdwolxPOOj1WtQaJYu+4JpJte6nEqpNduthsZnQ6bUk4ymikfiGzd5KlQKLzYzdYeH6ywNY9Rc/+4tvwD/5lxWe/Rv4z89XwzE3SqVSQSqrpjXOZHqzh65SK7HbLQyPuZm8bDd7Lx9Hr9eQy+ZZ9C9z+sNpznx0nqVAiHgsueaaqDXKHZO1Ub0DsjaWS2VsDouQy2EHIQiHPiOTy9D20SFxI1isJuKx5IYnr17TnL2yFY2y4b6qf0SjbLhBx+guD2O7h9YtG75RHG4boWC443VZTzycWxC1LHaVy+VJJtKUy2V0hmquA7FEXPusnVe3CqUCrU5TtYRQTYSznh8Dtf6UKgUqlZJkIrVqsq9UKqg1amQy6VqBsI5wsNrMFIulNfeuWCzG7rCQz+cJLoXWTUG90qfB711a4/PQDqlUgslixGa3IJfLuHZiAYfp4gT74hvwx/+h2nEXp2tLqVTCYjOv+Z7d0lx2et/l49idFkqlMqFglHNnLnDqw/P4amWnO0VxCFkb16I3aEkm09tutRWoIgiHPqNSKpAr5GsG5e3AWkvQ07x6HDSdslc2U6lUSKezhENRfAsBvPOLxKJxxCIxFpuJiclR3MNOTGYDSpUCkUi0ZlW9HlqdBoVC3nVyrlbiYc9wZV3xUPftSKeziMUizBYjak1nHw6JRILRrCceTVAsFtf4PLQUD5VqfxabiWItx8JKpDIpeoN2zXddTzg4XDbiscQab3ajSY/JYiAYCK37HZodISuVSsPnoV1uD2rVNevRN/FYks9dHsBtvThhrBQNvaBYLKHTa6vbYV1aRExmAy63nd0TI+y9fJyxXR7EYjGxaJKZ8/Oc/vA8czNewqEo6Q36KeykrI0Wm2lHrPS1Og2FXL6l/47A4BGEQ5/RaNWIxOK25txBIJFIMJr0ayaN7cBkNpLagrNoNS12tWz4/GzVP6JeNtzhsrH38t04nDb0Bh2KDmXDrXYziXiqaxHDCvFw+xerkRadxAO1ZEmpZJpsNodcIcfmsCCTVz9bs6maWlG0bCa7avLvRjzkcwWkMik6nYZ0KrPK90CECIfLuiaMr5VwUKtVOFxWlprKaMtr4ZfJRGrde6lZNNSpZxRVa1RrRA21Z8Vmr25LZNJZgoEQN18TZ8h+8Zhei4aV6PSadc3y9bLTo7uG2Hf5OHsv341CISeVyuBbWOTUh+eZPjvL8tLWy05LJJJaLY3tDROt1LI2xqPJDQmffqBSq6hUKh2tNQKDQRAOfUar11Aqlnq2f7pZFMqdlr0yuumthWZWlg2fveBlaTFEPpdHo1XjGXYxvmcEq92CruY8WC8bLpfLsNhMLPqWmk/ZkWQaXvzFxsQDNV+ORLxaplijUWE0G5BKpRSLpYYJX6fXIIKWPhfdiIdSqYzeqEMsEq2KhigUiuj1OkqlahKrOq2Eg8GkRyqRElhcXbXUYjWhVCmqobUthN96oqFOoVBEoZAjl8sazq4KpQKL1YTNboZKhWAgRHApzG/dWGTYcfG9T/4IHvt+fyawXC5fiyCp5i1QKhXVdM4jbvbs28W+y3djMOop5AsEFpc589F5Tn84zdLiMvE+lJ3eSVkbs9ntz9qoUMiRSCUt73eBwSMIhz5jNOrJZLJ9iwjoFrVahVQqJdFiMhokvc5e2YpsJkc0EsfvW2Jhzn+xbLhJf7FsuMWI02Ujny8QjcQ3taJKpuHEaRG3fLb677p4OH6q+ci15LJ5Usk0lUoFg1GHTqdBLBYjEolQqhREo/F1fQc6iYdioVjb6jCsCc9UqZUoFPJVArKVcLDazOTz+VU5P9QaFTaHhWgkTryFAO0kGurk84VGum69QdeIPomEYwQDIWTiHL95o2iVaPjj/1Dh2Z+uPEtvqZedHt01hGfIWS077bZTrlSIhKJMn5vjzIfTeOcXq34KLSwmvULI2rgWqUyCWqXa9vFLoIogHPqM2WokHt9+h0SNVv2JyF7ZTLlcJr2ibLhvIUAilkQiFbNn7xh2hwWHy4rBqEepUlCpVNbdt2/FYqj63+euumh5mBqnK/FQLlf9HzLpLBKpBIfTisVmIhFLdvydOomHQqGIWqOqJfy6ONhKpRJMZj2R8EWx1CwcJBIJTreVaHj1BGlzWABYXgqvcVLrVjRA1RdDrVYxNj6EVqsmFktUMyHGkmjVcMt1rBENL76x8gS9wWDU4XJfLDs9usuD0aTH5w0wd8HH6Y+mmT2/sKLsdG8sZN2wk7I2ikSibbeYisVi9AbtjrCYCgjCoe9Y7WbCy9FNrWh7id74ycxe2UyxUCRRKxteKBR5/91TtbLhcpxuO3svG2+UDZfJZZRLpY6+GOfmNy8eWOGzIRKLkcmkaHXVkNNyqX357nbioVwLz7TazBTyhcbvXqlUt4rSqXTDCtYsHLQ6NWaLkcDicmP7xGDUNUrDp5v8dTYiGtRqFVa7perAWSgSDkUJ+IMUiyX0WlFfRYNGo8LutDK6q1Z2ev8ESrWSTDqLb2GJj06eJZlIc/rD6WrZ6TbXvt/spKyNCqVi2320KpXqIiwS2v7tGwFBOPSVejW7ULB1ut5BYrYYSCU375DYK7Yze+VKpLVMi/5aKt+Af5n5GS9LgVAtmZKa4RE3u/eMYl1RNryQL7RcBZ6bB7hYFEshF6HXipiebzqwDWqNCr9viVwuXy3fXUtfXS1VvrZPOoiHXDbf8G1JJqrbIqViCa1eS6VSafwGzcLBaDIgEotZXqrmHpFKJdjsFnLZ3Jp8JN2KBrlchtlqwu6wIBKLWA6GWVpcRqGUk05lWoqGbz0Kr59YeZaNIZfLsNotF8tO75/AbDFSKBYJBsKc+eg8Zz6aZtEXrKZzzuYxmQ0k4ttfwlnI2riaSqWCxWra9LaiQG8RhEMfUSjkqNQ7wyHRYjUJ2StXoFAqUCgVqzzXKxXIZLKryoZHaw5qJpO+WjZ8rOofcbFseK6xD33iDKvEg90Meq0IfxC0amjnEF4v5JNOpslmci3Ld+dy+ZZ+D+3EQ7lcwWw1Ui6XG2GVCqUctVrV2C5qFg7VqIZMIxzQZDZiMOoIBqpOp3W6EQ0isQiTyYDdYWk8C8FAiHQtJl+ukKNXV/jiteU1ouHEmRZftg3VcFfTxbLT+ydwDzmgApFInAvn5jj94XSj7HQmk13jQ1CvNLqd1gZ2WNZGo0k/sK3Fduj0GrKZ3LZv+woIwqGvqNRKpDLp/5+9fw+T7C7ve9HPqnutut+r+j7Tc5M0Iw0jhKwBhBC2LCSMsTcgW/ETsHzsSCc4hyibbMK22DmQOOQQK05MInYSY5Hk4IBxbLAFsmJuAguEkDSSRtLcemZ6+lr3+/2y9h+rqrqquq7dVdUtqM/zzKNWrepaVatX/X7f3/t73+/bscRrnLi9zm2rxb1gP7lXqnq0Oq+UK6RTGcLBKKsNbcPVGjUut50jxw7gm2puG/7sy/lm8WCDU8cEjs7DLdcLpHMC7aoYTWYj2UyuvjVQKcu5GblsHpVaicNlr+dgtEu07SQeCoUiKpUKk8VIpvr6CoUSp0tevVWqFRhUhYNao8Y75SIcjJHPF9DqtPVOptGGev5+RIPJbMDlcWB3WEmnMoT8EeKxZvFqEiX+/j1FLMat3xtENDS3nT7EoSPzqFQqUqkMK8vrnH91iSuXV+oOl50iNzUMRj3l8j5IBtxHro1ur5NwhyZn48RgFCmVSm3v/wnjZSIcRojBIEJtUN9DJu6V2zGaertXtlKstg2XbbHX2VwP1tuGT017OHx0AZfXyeVNA7lcgesXCiBIKBQCK364tgmnTwqsB5ptqtUaNTq9tm3eR82+Op8voNfrcLhsqNQqyuXKtlVxJ/FQKpUxW4wolbKfSLlSwe7YarPdKBxMJgNGkxH/ZpBKpYLTZUejUcv9KPrscqkXdThd8rZEsVAi6A8TDkW3bZOZjQIPvLd5Iu8lGuTGWg7mFqY5ct1Bjl1/EKNRJJctsLHu59xrl7l4/goBf5hkIrXtnL3Q6TT7ooXzfnNt7NSyfZzo9Ptj+2bCRDiMFIvFRKFQ3HPTkol75XYsA7pXtiPf2jY8GK23DTdZXdwwE0KllD+n3SwgKAQiMbBbhWpOhIzRaKDQwxWvkC+QSqZll0OTAbPVhFK5vX13O/EgRxkU2BwW8tVeFQajiEIhR1wahYPdYaMiVYiGYxhNBrksMByvi5puokGtUWN3WHG57aiUSsLBKMFAhHyb+99sFPjtX2l+rJ1oqLWdnp7zcejoAseuP4jTbadULBMKRrh0/irnXluq56rs5u9J1bVRp5+4NjayX1wbNRq1bLq1x/lREybCYaTY7BbS6eyeZ0aLBj2KiXtlE7t1r2xFamgbvr7mx6gKcv1BWPbr6z0WTCIYRQGDqOD1ZR2lUhlBIbecTsR7u/NJkkSu2r5bUW0xLRr0cv5DQ7VMO/FQLBTr5ZmpZBqNRo3RJBINx5uEg8cnmyBlMjlcbjtSpUIwEKZSkTqKhlq7a5fbjtEokqjmMdR8KgA0KolTxxScOCRwcAbueatcgVLj33zZyw+el8MwNruFqWkPBw7Ncez6g8zOTyEIAvFYgiuXVzn/2hIry+tEw/Ght52euDZuRy/qqVQqe16RpVQpMRj3PlFzwkQ4jBS700Y8mui5rzpqTGbjxL2yBafLRjQSH1ltfjZX4e+/R+LbzxZIZwVmvfLjSgVoNRInFgXcbjNllRuFoCCbzffV/InG9t3ZvFw54NrevrtVPNRW0C6PQy7PzBfxeJ3E48l674xCQW4xHfCHEUUdLredoD9MNpPrKBpq7a4dThuZdJagP0ys5Z63mgX+3rsF9FpQq+HonJx0V+MT/1FHtDjNgUOzHDg0J7ed1qhJpzKstWk7XbOuHhX7pYXzfnJt3A+JmkLV0XQ/bN/8rDMRDiPE7XGM1CGxXybulc0IgiBPiiP822RyIOrgbSfh/DWB16/CjBu0GnkEVCkrOM055l1pTCYNgm4Kk9lQ74xYqUg995RrORfFQhG9fqt9d82+ulU8RMNx1Bo1okFPPJrAZDFSLBRRa9TyC0pytUk4GMHptpNJZwkF5J9bRYNWp8VZbXddLpUJBcKEqt4Yrdx9m5zTEUnA9QcFWTRIUCwL/MnfHgHTDdjsFgSFwOVq5UO3ttOjpObaGNkHfgEGg0i5VN719stu2S+ujZWKhNttJ7wPIpY/60yEw4hQq1WYzMZ9sXKxOawkJ+6VdTSa8bhXPv86VCoCp2+SODAt8OOz8NSPYM4jl2cCqFUVbIYMbmMEf0iirDDgcFpxOK0YTAY0GjWCQkGpVO4Ysq7ZV1fKcvtus8WIQiG3704lM03iIZlIY7NbqFQqSEio1Wp5KVd19SwWiyiUCowmA0F/GIvN3CQaZOdJKy6P3O46Go7JUYku0ay7TgsEIipOHm14/wIolTDnjKMqrrK5coVKPslPXtzY85wgk8VEpo8KjFGj3UeujSbz/nBttFjNpJLpkUUKJ/SH8I5TH2g/Gk3YFaKox+GysbK83npo7Cwemefq0urIQ7y98Phc5LK5PR+ADEYRm93C6rWN1kNjweuEu28T+PB7W4/A2SX4yesqSpIO0aBHL+oRRV21tXaOdDpDNp0jk2kvvrQ6LVabGYvVRD4n9+yIx5JNUQOFIGCyyOWfBqNYz1LX6WWHQL2oIxlPUZGkJtFgsZqw2sxodVrisSSxaKJt4iPV+19v0GEwiLzv9CZqZZuBXpCjHK1shmRPjDPnJTZDwraEyVEzM+cjGonveU6QxWpCp9fh32huNDZulEolC4szLF1Ybj00dmbnpwgHox3v/wnjoUk43HXv7fzDhz/E1776FF947Mv1Jz362COcessJqIZH//SLX2s63krj8zOZLH/4mT/mqSeeBuDULcf5xKc+gtNtB+Dq5VU+/IGHm36/E48+9gh2p23b8x//s0dZODgDVR/93//k53jhubNNz6lx172389GP/xaiKO/rvvDjV3j4oU/Xj3/skQe59313Qp+ftRNmiwnRoGNzfW+/9AqFgoOH57h0/mrrobEzO+8jEoo1dWzcC6w2M1qtBv9mqPXQWJn2KPngu0388lubo1KJlMTZJYEfvix/NbU6LaKow2AU0Ys69KKuLh4y6SyZTG7bBG40GbBYTfWSvlg0gWjQ43TZiceS6HQaKpKExWKqlx7qRR3xeBKFIJDLFbBYTYSCETLpLFabGavNTDyWJB5LbvO/qL1H0aCvi4ZaH46bDkSwiEWWViVsJgmbWcBuAZ26Kh56UPszjUtMeLxO8vnCyCNSvTAY9NidVlaW90bgNnLo6AKXL17b85W+d8pFJp3bUfJqr7G98Tht5oZGes1jveaZdnSaN1vfV412n6FGr/P3uha9qG9V1E6k02k5+9J5XvzJq1A9wenb38z//0/+gv/Pb/9zvD4X977vToKBCEsXtyvQjz3yILfcdhOf/fT/zSP/+7/h5rec4M673sqlC1fZWA/wr/7dxykUirzv5/9fvPzi67zrF9/Kz73tTfxNVVh0onZRY9EEf/lnf1N//PE/exS311E/3/zBGX7977+3fr5GTt1ynI/+H7/F0oVlfv29v8v6mp/3/OrPMzXj5Zmnf8IDD93Hve+7kz/94tf7+qzdMJkNlMtbbn17xcS9cjsmy/5wryxJWq4GzHzlm0lSmWa76lkvHF+Uf766Jr/XRDxFJBQjGU9TrpTRajXY7Ga5msFsRKvToFAoKVcq5LJ5Ukk5/0E06LHZLRRyBQqFEharCUmS0Go1CIKASqVEpVIiSRJKpQJJkuQ8iFgSJElubiVJhAJy5KGQL6Cq9tSwOSy4vS68PieiQUe5VCGZTOHfCOHfCJKIp7h0rcyROYlZj1ySKuokYkkF//PbEheWYdUPuYJAWVJiErcLAqMo/zs0K/cDufutcPdpgff/vMChOUE+rhfYHJK/mUajRq1R7/mW2sS1cTtarRaVSjGQ/wrQc2x/4KH7eN8HfpEn/+q7/M7f+z+2zQ2tdJvHes0z7eg2b/75n36Dx//Tn9X/vfzi69z8lhOEQ1H+r3/6aOtL9Tx/r2vRDwqqk+8nPvURYtEExWJzIpJvykU8muBMVUi89MJrFAslZuZ8UJ3Qv/rNz3PqluOcuuU4t54+ybmzl+oRhif/+nuoNWpOvvkGHnjoPtxeB09/+1kAXnjuLM8+c4a5hWlO3XK84axbPPDQffyvH32JY8cPbasbv+ve23F7HXznqR/Wz/etJ38AwLvufhunbjnOV7/5eR597JH6Y6JRz5N//T0Annriac6dvcQNNx4B4PY7byWwGa4rr289+QMyqSw3nbq+esb+UWvUbRPFxo1KrdoX74PaNRljolsn1GoVpdLeXxO1Wk2pVGIzBI//lcSv/TOpaSVtNgqcvgl++1fgthsFBIXE8UW46VAOuz7KtatrXDx3leUrq6SSafR6HbPzPg4fPcD8wRlcbjulUpmNtQCRcAyTxYhOp6FYlJMpVSoVKpUKvV637f+LxSI6nQaTxUgkHGNjLUCpVMbltjN/cIbDRw8wO++r9sFIs3xllYvnrnLt6hqhgBylqCFJ8OffgqeelTh3Bb71rMBXnqoQicui4dUl+JtnJJ54Rs9/+4aaLz8l8eQzEmeXYMVff5kmvM7qls9p+PhvCvzhx+B//CuB//GvBD7+m3Lfi5NHOoczbrle4O/fC796p4DD0nysVCqhVquaH9wDmhJX95hisYRasw+uSbG0o2vSa2y//c5bWVvZ5LOf/jxU54Z73v6h+v83znO95rFe80wrvebNVn7jgV9BNOr50uN/CdV58Bvf/yIfe+RBGNM8pwBYX/Xz8IOf4m+/KU+6jWysB7HYzPUPcNOp61FrVPX94Ycf+jTvf/eDvPDcWZxuO6JRz0ZDeD4UiFAsFDl+4xEcThtA095yOBRFNOrbXqAaX/vqU9zz9g+RarPnWCyU2tqh+qZcvPDcWd7/7gfrIRrflItMSs4Ur7GxHsTtdfA7v3s/RqNIpOG1XnjuLKlUpuMfvBsqlWqbCNsL1PtEOOwX0UDtmhT2wTVRy02zamyGZBOkz/yJVA/P0yAgPvrrSm6+XsDjkLj1OPzaLwoglWU3y80QV5ZWuHDuCuurmxTyRUwWIwcPzXHg0Jy8vZHJUZGk+qRothgxW41Y7WasdjNmq5xYSfW9VareFHpRx4FDcxw8NIfJYqSQL7K+usmFc1e4srRCYDNEMpHumUOzugkvX5S4trk9qkCtzDSvahITX3lK4j//BUMVE//nbwn8478H1y/C298kP+f0TVuvUyzsD+HAPhIPxWIJlWrvr0mxKFuoD8KpW453HdtrC9BXX77Q9HuNNM5zveaxbvPMXffeXn+sRq95s5G77r2dY8cPNS2WW0VOt/MPa55TAHziH//rjjkBn/305/nTL36NX//QL/Pd57/CradP8nsPf7b+pltpnchrb6pG6wdavbbRdRD/wmNf5nP/5vHWh6F6waKROPe89531iMW77n5bfd+pHalUpumzhkPRpvM3/vGApgs8CJp9MlHum/exT1b5VEXMXvfKAFBrVBTa3PtPPgMf/QOJx7/e/LhCIeG0gl4rcOEalMoS77i5+TnFQpF4LMnGmp+lC8tcOHdZ7lEiyUmhFoupHlmobTe4PU7cHidGkwGVunpMpcJiMWEwiiBB0B/mwrnLLF1YZmPNTzyWHPp9VSqVUCqVrQ+TSElDFRN3vFnCKEoYRfBHJL7+fYn//UNb0YnCPpmsqV4TzT4QMcVCEc0+uCa7eR/dxvbaHPCN73+R7z7/Fb77/FfqK/h29JrHes0zrfSaN2vc/Z53kEll65H1TvQ6f7dr0Q9NyZEPPHQf77//Hr76pW/UwxiPPvYIx44fakrUuOve29smU3RKrnz8zx4lEoqysR7k1tMnm5IXO/1OOx7/M3k/pzEJpV2SCtUL0ZqM0i658oGH7uOX338XT/zlt7jrntt59pkzdeXW6Xd6oVAI3PPLd7J6bbP10NhxeexkMjnSe2yhazCJ6HQawsG9rcFWKBX4ptysreyTv006SzrVeS/90FSGv/fOVWym5kGnUBSIptWYxBJ/9SN307FOCAjodNq6EZfVbpZFg9cJQGAzRMAfIhZJkK32scjl8kjtSh9GgFarQaPRkEzuzBnQoKtg0JYx6Eq4LQVEfRm3pcUDQdqekHn2qhGXucBXvu9jacMAwPSsl431wJ7n4zhcVnK5wr74/oqijqB/dN4n/TIz5+UbX/t2363Pa3NEp7H9S4//JR/9+G8B1Oe5Bx66j1//0C/z1BNPN/0O1XyEbvPY8RuPbJszavPMf3j0i9sW3Z3mwNq8WZvHap/j2tW1bXNbI+3mrGHPc4rWBxo5dctx5hamm/ZePvvpz7O2ssntd97a+nSorqJqoRwawkQ1RKO+KSIwM+er7509/meP1tXe//rRl3jgofvqz+tEbTvijps/yB03f5B////7AkajuE1R1TAaxaZ8CofT1rR355ty1X+m6v44YcI4sZuL3P3mIPe/c52PvPfqNtEAoFFL2A0FVIr+Bs+fBdI5BYG4mit+Pc9esPCdl+z89Y/dfOclBz8+b+Hqpp5CafuQd3whhdNSwGzovtUy4Y1Nt7G9WCjx1S99oz7PfeGxL7O2stkxfN9tHqPHPNM6z73jzlt7zpsAJ998A6JRz9kuWyo1up2fHteiH7pGHDopnHYrfzoookY1BWyLaLRTb53odN5GWj9DIx975EHeeddtTeWhjUqr9fU7KdV+WDw8z/KV1T3PQp6Ulm1nP5aW1bwdTh6Tuib15XISayGIJsBlg0gcvv1c67O20Om1iKK+6gkhJ0FWKhVUKhVmq1GujLDJ2YHRaJxUMk0ilqJUKsldIrNySaVc9inbXI8KnV6LRqPZUaldv9x4WODUdRJX1sBmhsWZ6rUWYDMobxEFIpMS5lb2SwmzSqVk/sBM39n/NbqN7d968gdtx/nW36nRbo5pnMfedffbus4zrfSaNxuj/3ML0z3nynHMc9vldwMvPHeWa1fXOHb8UD2p42OPPMj0rLeeUdr6/GefOdP0/Lvf8w6KhSJnfvIqX3jsywQ2w/VoxalqNum1q2tdL0Q3Hv+zR+sX4tQtx7nnve9syhhtpJY9evd73gENiSa1pJinv/0sbq+jHumoZae+9MJrTa/TD/tln3TfvI99klzFLvdJh4nNUODvvbtUT+L78HvbVwIkUhJnzksk0wKRpHx8ziugUgp87/nm56o1aixWE75pD4tH5jly7KBcTilAOpUhHk9SKpXkf9WW3QG/vEWRSqYpFavHSiXi8aRsgiTIPS6OHDvI4pF5fNMeLFbT0O8rlUrVM8Fyt7x8UcIfFjg0A4IC4qnq9ZbkXIg//CcCv/nLsuvmfkClUlHYJ8nN+yMvaGfvo9vYXpu33nnXbfV564GH7mN61ts2YbLXPNZrnmml17xZw+60bctdaEev83e7Fv3SNeJQo9GYAuCJv/x2U5lKqwpqfP4wDaBalRJtXq/RAKqTkhulMUYN37SbdCo70tVTP5jMBkxmI+urHbLHxsiR6w5y4fXLrQ+PnakZD8lEimRi/N77tcjC3aflnztRM4F69bL8M4CgkLjhgIDJIBCOw4VlCaVSiWjQoRf1GAxyZKFSkchksmSr5lCFfAGTxYjVZqZSrqBQKtDrdVCdmGoVBMWqaADIZnP158aiCZLxFBqtBlHUoa+aPCkUgpyjkc6SzWTJpHO7mvgtVlO97feomfcJ+JwS+QKkMvDeO5oF259/z8gf/fe9/e6yz74ziXhqm/HXuDFbTBiMejbWmj16+qHX2N5qtNRtnmudd1rnsV7zTDv6mTdbo/80nOs7T/2w/n57nb/XtejFxHJ6RDhdNiRJzmbdS3Q6LR6fk+Ura62Hxs6BxVlWVzb3fDXn8jgoFUtj6yPSzWK6kVbHyE6IVYEgb0HI/guZTI5MOkOm6ihZKpYQBLllt8VqQqPVEI8mUKpUWKwmisUi6moFRSOlUkmulVericeSlEslLDYzhXyh7hopSRIqtap+ftEgJ87VbLEzmSyZlLy1MQg2u4VUKrMn94fZKHDfL0iYjVsC4swFiY9+tulpY0WtUTMz6+XK0krrobEzf2Aa/0Zoz/uIOJw2BAFCwb0dV3/WmQiHETGxnN7Oz9J+7ckjshNkN7GQSEO2oGLpWqmrWHijW06nU5m277EVl8dBOBjds9wTs1HghoM0eTpshuS8hxHeKh2Z5AVtZzeW0xOGx6Q75ohQKpUYTYY9v8ElScLmsJCIpTp2VxwXelFPpVIhn9vbNsFKlRKDUSQR31nZXzu8Tnj/uwTufqvAv/iHsi1yzUK6kURK4vnXBV69LPHkM7AZt3HhSrOQUmvUmEwG7A4rbq+zbudcKpVJxJMENkL4N4MkEyly2TzlhgTcWrtrl9uOVKkQ9Mvtrhu7XCJJ6PRa8rkCgkIgl9uyEs5l82i0anLZHOl0FqfLTrFYwr8RotBgX61Sb7XvBiiXyuSyeZKJFJGwbItdKpW22WLr9O3bhguCgMGgb1u7Pi7yBdnJUqfX4XPIn8sowttOChhFgTPtt6hHhmjQIygUe95sS6lUYrWZieyDdtY2u5V0MrMvTO1+lplEHEaEWq1idn6Ky5eutR4aO3ML0wT8obHsHXfD7rCiUCq2WYePG41GzdSsl6u7DAH3WwlR24JY8ctGRo04nDaSia38AdEoh/2B6vZDNaqQznZd7dUGd4vNDEA8miAeS1AqlZs6Y2bSWaZnvUTCMfSirtnXoPpzNpPD7rCytrJZj1I0ttW2WNufpxMKhaIaiWjz+arRiEK+gMls3POtPQCHy4ZRneD972q+3o9/XbYGHxdOt51KuUIkvLcTtk6vxe1xcu3q3m93Hjw0x8ry+kQ47DGTiMOIqFQquNx2IuHx7KN3w2AQKZVKFPLj3ztuRK2W+yAk9zjBqlKRcLvthHewgqpFFj78y/CR++TtCK9ju2ioRRaeeVniuz+RV7KNuZiiqMdsNeHxOfFMubBazSiUCnLZHJFQDP9miEgoSjqVoVAodo0WWawmXB4HFquJZCJF0B8mmUhRqUhNoiEUiNQbVoWDUdxeJ/Fool4dIW9JWPBvBBFFHRqNGv9GCARwuuwgQCqZkcszMzmUSgV2p7WeaNkpkiRJEoVCkXQ6K2+bxJLksjkUCqHqXOnA7XWiF3VUJAkBYU8nBpPZyMZmhrNLcHhWQquR/74nj8LJY7Kz5ziwWs3ksnny+fbXdVzoRR1qlWrPv7eCIOBy2wnu8cJjwkQ4jBSTxUQmlaG8x+5zWr0WhSDX5O8lgkLAZDbui06dFquZVDLddRVfoyYWPv6bAh9+b2+x8OQP4YcvN4sFrVZuGGV3WPH63HimnPVmW+lUlmtX1wn6w6SSafK5Ql+OhaJBj8vjwOV2kM/lCfrDRMOx+vZBq2iwWE24PQ5CgQiCQoHLbWdzI4hokDOv47EkHq+TRCJFsVDE5XFQKBSJhuNN4iGTzlIulUmnMuRzBbQ6DU6XHY1GTblc6TnpV8rydlUqmSYajhOPJVEqlUjIXTk9Pidms0ne1lCpkCrSrqo1BkGpVKLTa8mks+QLcGlVIF+AWa983OsQuPu0wA9ekqsxRonNYSWRSHWN5owDo9FARZL2vFuoRqNGNIp77kkzYSIcRorRZKBQKO5JlngjarUKrU6753ulkiRb6Eb3QRTGaDKQzxU6TnLtxEKLkRs0iIWv/C+JF87JYiFfkI1qjCaj3HbaI0cVDAYd5fJW2+nAZohoNI5WqyGVSHeNKjSi0ahxOG1y9AA5wzzoD1NoWJm2igaVSonb4yCbyREKRLBaTQgKgaA/jNlqAiASimE0G5AqFSLhuDxQG/SkUxlSSdnPoVE8UPUJSSbSFEulrfwHpZJisdS3YJYqEhqthrWVTblteCJFuVxGq9Vis5txuh2YTIattuHlct92w4NSqzSpbevlC5BIN4uHceU9ON12IqFY3/fFqDBbTRTyhY4RpXGh0+vQajVDzU2asDMmwmGE6PU6JEna8xImlXL4yYA7QZIkHE4bsWhizwdDsTqJN4aBa2LhDz8m8P6f7ywWVqoNlxrFgqAQMBhErDY5EdA75cZqM4Ek7+WHAmH8GyFi0TiZdHZLsEjyKlehVHQUMTUUCgVWmxm3x4FOryUWTRAKRMi0CMJW0UA1qcxkMRIKRCjkCzg9DnJZedVfEw6JeAqdTld/bUmSsNktVCpyl8xMOttWPFBNqsyks0iShNlqwmQyIAgChXz3bRaqofBKRapXXRSLJTLpLPFYkmgkQSadAQREUYfTZcPusGEw6NFoNQiCIHtPdD9F36g1ahQKRdN9UUuaTKTh0KwcaTKKteTX0YgHhUKB3WElvA/KDm12C5nU3ickGgx6BEHY8wXQhIlwGCkajRq1Rr3nIT4EAZvNvC9CfGaLkWwmt+fhV61Wi88lMOPIc/fpZrHQSmMlxNe+K4sGOftei8VqxuGy4Zty43I7UCjkUsZoJIZ/I0i4lqfQZQKtSBJGk1gvi2yHyWzE7XFgc1hIJdOEAhESseS2LY12okGr0+LyOEgm0kTDMVRqFV6fi0g4Sj5XaBIOSqUCu0MWd7lsHpVahcliJJPJUS6Vu4qHSrlCJi3bUitVSpwuG7qqeG6MhrRitppIpzLbPgu1/Ih8kXQqQyyaIB5NkM/lUSiUGE0iHq8Lq80s78Or1UiStKt7S1e15G4XJQxG4dXLwljyHrRaDaJBvy++sw6njWg00fbvM05MFiPFYmnPk7wnTITDSFGrVehF3Z44FDZSKVdwe537ImNdNOgpFks7so0dBrWows+/pczvfiDTs2yyMbkxnlZjspiwO6x4fC68PjcarZpisUQilmRzI1DPU8jl8n2H6ivlCjqdFkmSyxobEUW5mY6cb1Ag6A8TCcUotVn9tRMNIE/yGo2aoD9MuVTGaDJgtZnY3AhRKVeahEOlIuF02chmcuTzBUqlMmaLEaVyqyywm3gAqlbWGfL5Alq9XB6q1qiotMl/0Oq0qFTKvleR5XKFXC6/lR8RT1IqllBrZGMrj9eFyVIr+1RSqVT6/jtQjX4Ui6WO4mNceQ86vQ6VWrXnYweA2+uUW7PvMVabmVw2t+dJ3hMmwmGkKAQFZsv+SAY0W4yk09k9XzXo9DqEamh7XLSrhDg4vf06tIqFzbCSsmDAZrfg9jjwTrsxGkUq5TKpZIbAZgj/RpBELDmUKIpe1NWvi7qex2BHqVAQDkYJBsId95k7iYZa1UI0LOcOANgcFmhwNW0SDuUKRqOIUK2gKJfKctjcaSWfK9QFXy/xAFDIF0km03WxYrGZUKrk/IfafWgyG8lld37tSqUy2UyORFz2j6glvOp0GuwOG063HaNRRKvTolAoKJfKHSM/VIVaPt89OXUceQ+G6h5Zu+s6TtQaNcZ9kpBod1hJxPc+WXTCRDiMlFo53F7XYVPtWVHId04GHBdarQaNRt33CnOntBMLvSohfvSKQDilQ6Gx4HLb8fhc2BwWhGrvhnAwin8jQDRSzVMYYtSkVCpjMsuhWLNFrn4wiHrisSRBf1i+Xh3mu06iQRAE3B4H5VKZUCBcTyh0e12kU5n636BROABotBoMRkPdkruQL6IXdWh1mqYVcD/iAWkr/wFBwGo1YzCJIAiUyxUMBj2JIQrrYqFYz4+IReJkMzkEQd4fd7rt2OwWDEY5P4LqdW/EZDaSTmW6igvGkPdgsZj2RVher9Oi1e2PhESXx0EoGO35t5kweibCYYRIE9fGbchNmfT11e8waVcJ0U0s/OSilWdehnjWiNFikz0VfE5USiW5XJ5oNIF/PUAoGK2H3keVzU910vJNuzFXJ6+gP0w8lugaau8kGgCsdgsOp41QIFzPn9DqtHh9TkLBSD3k2yocFAq5Xj4eTzWt0J0uO8VS82TWl3iobjHU8h9UahUutx2rzUw+XxiZiKxUJPL5AqlkhmgkLudHFIoolQrMZqNc9mkxIop6uWeHIAvbQdwrR5X3YLWZSQ9ZnO6EiXvlhHZMhMOIMZuNZHcRih0WWq0GlVrVcWAfF0J1QhtW6LPfSoiaWPiL76m4sGYgXbLi8vnq+/+lYolEPIV/I4h/M0QykZbtnLtM2sNCp9fKeQxuORdgcy1AwB/qGR3qJhrUGjUut51MOtt0zGw2Ihp0+DdCdUHQKhzKpQo2u9zYql6WmCvUyzMzLVte/YoHqhUTqWQaqSKLalHUoVAqKJXKI/+OlMuVqi12mkg4Joe9i2XUGhVWm6XaLtwMCG1tsTsxirwHh8tGPNpdNI4Dk9lIuVTecw8YrU52Vt0P274TJsJh5Own10adXrutOdG4kSQJ1w5dG2ucPCIPyr0qIQJRgdevCHzjRyJLfgt5HHirq8xKpUI2kyMaiXNteY14LU+hx2Q9TFQqJTaHFbfHgVqlIhSMEtgModao5BLeLsGNbqKB6n6w0SgS9IebBIjDaaNcqhCLbnlptAoHSZIQDSIqlbIpMlQuV7DZLUhtzIAGEQ+CQkAv6ghsyjboJpMBs9WEQqGgWCiONKrTSKlYasqPqFQkisUiSpUSh9OGw2nFYDKg0WpQKATKpUrHyOGw8x7cHgehYIQOpxsb+8m9UrUP3CsnyEyEw4jZT66NZrNpzxW7JIHVJpcU9uPaSENU4eRRWSz0qoS4uKriR+csBJJ2SkoXdocVQaEgm8kSDsXY3AgSDcdIJ9Po9HtjjFVzcZQboaUIBiIkEymKxRIqlRKdTm5C1Y5eokEv6nC57SRiyW2RHa/PRTKZaprYW4UD1YiF2Wxsys8pFkuolErMVhO5bH6byOpXPFgspqpj5pZ9tSAIcv5B1cWy02cfGZIclg9shoiG40SjCbKZvJwfYTTgctux2c2yoFKr2tpiDyvvQa1WYbaY9kVu1MS9ckI7JsJhxGg0ajRazZ5MTo28kVwb6ZDc2EksvHRRxcuXRc5es1NUuFCKbtQqFYVCgVgkgX8zRCgQbshTkAVLpSKh0ahB2J4kNyoMRhG3x4HL46hvI8Qi8aYyTDkZUS+vwFuuUS/RAOB02VAplXL5ZUOoWxT1eKac+Nebt0HaCQcAj89JMp5uem6xWMJkMqBUKWU3yRZ6iQfRoEelVjUlRDbaV6s1atweBxqtpqOfwijQ6bUoBIFMNRekUpHNwer5EfEUhXwBlUqJ2WzCMyXbYssrYWVTKe1u8x509YTEvRX57DP3ymKhuOdmehNkJsJhxCiViolrYwvtXBvpIBbaJjem4dUrGl69ZuLchoeyyk1ZECmXKiQS3dtOtyIBYkMZ5KjQ6rQ4nDbcHkdTu+tOE2OxUMJiNVEulet9GvoRDSazXH4ZDsrGU42YrSbUahX+jeC2x2kRDrXqjlJJDufXKJcrCIKA02Ujny+03YLrJB60Wo3cq6TDPVis2lfX23c7rChVSkoN7btHhclsJNvlXim3axteLtVtsWttw2u22JlcmQvLUtu8B5VK4L23C7zpGGRy0Pqn1It6lEpFW2E2Tvabe2V6H7hXTpCZCIdRM3Ft3IZOp0WpVJDJ5PquhEimBc6tiJy54uBa1Eu6ZCGVlbO9Q8FI3c45m8kNNLiUS2UMRpFSqdxXItygKJVK7A4rruoqOhqJE/RvVTl0QpIkylVzplw2j8Nl6ykaBIWAy+OgWCgRDES2Tc4ut4NiobhNxLYTDlQjFFqtZtv2ViFflPsG6LXynvN2DbBNPOSyebnCKJ6iWNwuNhrJ5+RKi4okYbaYMFuMKBSKru6bu0GtUaPTaweq9ClW8yMabbElSUIv6nE4rTicNlRakUxOQTpbZsop31tGEW46IqFUCJQl+Hv3COTycO7q1mubzAYqlUo9+rFXTNwrJ3RiIhxGjFSRcHkcE9fGBqY9Kt73jjIP31/q2kAqlVVwcd3Ij5dm2Ei4CcY1JJJFIqFoc9vpXU4ogiCg1Wq2RUB2S82PodbuOhQIk6y6M/ZDuVRGEARmZr2YzMauogHAZrNgd1gJ+sP1vg81FAoF3ikX0Uh8W3Slk3BQKpXY7GYi4XjT9ZUkCUmScLrs9ZV4OxrFg8lsIBZN9BRMNWr9MbLZXN2ASi/qkCSG/ncyGnfncSK12GJvtQ1XoNEbKCndpLIKvFY5gqBUCNgtsBYQ+MGLFX7nVxX8xXegFrwxW03kcoWhf85B2W/uld3u/QnjZSIcxoDFaiLVwYt/nOyFa2ONxrLJ9769yPUHim3Fgj+mZi1s5sWVBS6uGVgPKohHE/g3gwO3ne6XUrmMxWoik8m2XT0PimjQ43Q7cHua213vJNJjsZqYmvGQSqTZWAt0FEiaam5AOpVpK1INRhG7w4p/M7QtHN9JOEgSuNx20unsNrFZyBdQa1QYTQYy6WzHssFcNo/JbMDhspFKZbblPPSi1Nq+221HrVbL+Q87nOgbERQCFquJeDw5lL+92SigVlaYdeXxWDL4rHHmHBEOT2+ffGe94HGqCIQF1oISK375cZvdSiqZ3pZ8Om72k3ulybRlSDZh7xHeceoDQ/i6TOjG7LyPSChGeo+/gDa7BY1GjX8z1Hpo6Hid4LXL0YQPv7f16BbprIJrYRNqlYrz61aymSyZTK6ecd9pohw2tf383QySGo0aq82MxWqmWCrVmzLt9DM05jRkMznEqstiu5WoqxrZWF/xywKoBbfHgdFs5PLF5dZDzMz7AFhd3mg9xMHD86SSaQJt7hlR1DM166m7W7ai1WowW01k0ln0oq7nVksvBEHAYjNjtZlRq1TEYwli0cQ2UTMIokE2fxo0EdFsFDAbJGY98rbarBdmPa3P6o9KReDPnpnjOz9REo0ksNnNLF1YHoow2g0er5NCobjnE7Yo6nG4rKy0uT8n7A0T4TAGPD4Xuay8H7qXGIxy2+e1lc3WQ0PB64S7bxPk/55uPbpFOqcknHXhj6pZ2ZTIZHJk0hky6Vw9EXDcaDRqTGZj29V6LwSFbKVstZlRqpSy3XE00THxsR/aJUJqdVq550jLyl0U9UzPeonFEm0ncICFxVnyuTwba4HWQ12Fg2/ajVan5erSSushqAoWq1W+pxoFi2jQ15OCa9sm7T7TTlDXBZqcPCpvDySQ+twCasThtJFIpNr+rczGqijwSJgNQj3JcacCIZqQMIgKXr5QoVAUWAlIuO0KThwS+MQfz2O3W3C4bNjsFs69ukQ0GicWSRCNxPsuXR4m07NeYtHEtiTbcWOxmtDpdduSeifsHRPhMAYcThuCQtjVYDkMNBo1U7PejpPATqiJhZPHJE4e2Z7UWCNTULERs7IZUrK8KaFUKUgl0vsi8aqG3WGVw+JtVvSdMJmNWGwmjEaxLhj63cfvRLcJVqlUYrIYkSoVEokUUkXCN+1Bq9OwtrLZdgJUa9QcPrrA2spmW/HaTThYrCamZ71cPH+142tPz3rJ5wpsrPmrfiFGBIWCZDy1TQh2+2yDohd1dQGRSmWIR5MkEym0WoEbD0s4LAKRmMRLlwTy+e3DnFarkRNj8/GhRQ8ANkNw5oL8382wxGZI4MwF+fwfeg/82t0CS6ugUYPdLPDp/1zhparHw9SMB5fHQalYwma3YLNb5Hbo0TixSJxoJDFwdGSnLCzOsr6yuauIzjBwuu1IFWlHon7CaJgIhzFgNhsxmMS2q71xolAIHDqywIVzV1oPDUS/YiFbULMSMnJhVU0oXCCdztTzK3azwh8VoqhHrVG1nVxb6TRp7ZZ+J1aTWXY0RJITxzbWA8Q6hJR7Tf7dhEMv0UHVQtw35Za3MwQ5/6FbQl2/n7FfGsUbxSh3nIwRjlRIZsGkB4dV4JvPSJTLNIkDq0mBSdzZSn4zBJsRiTPn5Nc7c566OOjFlAtuOCiQyUv83ZnmYwsHZwhshuvRG7PFhM1uxmq3YLNZMJpEotFEVUTIEYl2W1PD4MixA1y6cLXvZN5R4Zt2k05mSAzh+zVhOEyEwxjQ6bW4PU6uXV1rPTR2Fg/Pc+3q2sD7pzWxcPdp+edOZPMqrvhFzl0VCIQLZDLZjiHknazwR4kgyM2dwqHYtpVyjXZh8ngsOZRQ8qATqmjQc+joAvlcgcuXrrUVBfSx3dBNONBjm4PqNTl4aA6tTsOl81f7yhMZ9LP2QqFQYLGauPd0AaVSIpurUCqVsJokbHLu58DU0jo6RQ+GjcEo4nDaOo4TCoUCm92C1W7GZpOjEUqVkmhdRMiOl53ug0FQq1XMLUyz1CYnZtzMLUwT8Mv25BP2BxPhMAZUKiXzB2dYurD3X8LZ+al6sl0vamKhW3IjQDqvYmlNw7NnFWTSmb6rBwZZ4Y8Lk9mAUiGhFjLV3gPy12MUiXmN7GQidTht+KbdBAORepVBNpPbVoq5eGSeZDxFoEP+Qy/h4PY4MFmM2+5frU6LXtShVqtQKBS43HY21gJ9R5F28pl78Y9/QyCSUOG09C+MdxM9GCZT0x4ymWzf23darUaORNjNWKtColgoEqmJiEh8x4ZvtWTWleX11kNjZ/HIPMuXV/seVyaMnolwGBOHjx5g6eLyUFamu8E75SKTznXcJz15pHclBLWyyYCCZ85sd4Dsl35W+OPm7acU3HKDRCIlYDJIvHxJ4tlXDVhtZkxmYzXCkOhrVd0vO5lAtTot0zPyRLO5LieN6fRa9Hq522Q2kyOXzaPWqDly7ABXllY6NjjrJRyMJgMHFme5cO4KxUJRPo+oo1KukM3K56F6b4minrVV/zbx0omdfPZu/O6vK3jxnMRNR0CnqT4oyJULgbBUjx5UVHZev5jgubPDEX67Ra1RM39gmqULyzua6KlGLGx2C1abuZ4fEY8niUXiRMJxYtF41y2kRswWE6JBV7+39gqFQsHi4Xkunt/d9uqE4TIRDmNi4eAMm+vBPfVa/5U74b67lDgsFa6swRefgKUVibtvk1da3cRCOqfk4qqaSKzEi68Pb7A1mQ1IEh0ntVFSy5qvceIwHJmDlaCWbLaEqIM5H4STRl64KBsYdRJcO2WnE6fb68RkNrC2srkthKvWqNHrdej0WnQ6LTaHhddfuUixWGo7KXUTDoIgoFaruO7EYaLhOLlcnlw2Tzab2xYS1+m1TM96SSbal292YqfXoB133SZgNsCKH952cuvxjaiBf/64h41V2SzBbDWxem37590rnC4bCoWiY1RoJ1httdwIWUjoRT2xqByJqP1rvXdqOF02AEJ7bDet1WrwTbu5enm19dCEPWQiHMbE1IyHRDy1JxMkwK/9osA9b5P48esaJEnNiYMZDs/J1rfdOH9NxdXVItf8ct16JyzG1ke2MBs6n0OhVKDXaVEKnVfw3V7b0uU9tQqDngjV5hUNxNJqDNoS/+ErwtCjIjudMA1GkakZD5FwrGsfAUEhyLkHWg3+jRBKpQKp2k66UqlQLst5ANPVOsO1lU1UKhVKpQKFQlHtAin3p/D4nOTzci5Fp5wVAIfLht1hZX3VP1AZ306vRSsKAX71XbJ4UCqr90BFIhRX8hfPLnIlYKRSkbh47krfWyrjYPHwPKvXNnYcveuFUqnE5pATLK12WUgIgtCUG9FoUtYrMjkujCYDZouR9argm7A/mAiHMeH2OCgWS3tmpvLEvxe4cA1cNphxtx6d0IkfnVVw83UVPv+VCoXSgEKkC7uZKKdmPKjVKtZWNrvu+wqCwKGjC00CQ6FQoFQpUSoVKJVKlEplk3Aol+WmWuVyhXKpXN9aqwmCS+evto1a1FCp5NcrFksDD/a7uSatzHjA54TrFgRcdvkxf0TgX33lOo5ef5BLF66ysRpgfW2w9zgKzGbj2CMgOp22KiCs2KpCIpvN13MjDEaRpYvLfeVCjRKb3YJarRpqJGbC7plYTo8JjVaDRqMeaBW2W2o2z7/32wqsJnkgNRtan/Wzy2YIUhn5XyavQKMGpWLreDCmIpOtIOrgJ681/ubu2M0EabHK/S/6aZQlGvR4fE4CG1tttCVJolKuUCqVKRaK5PMFdHothUKBoD9MsVCsN/xqFAgCgtxmO5HqWpFTK91zexwUCkXyuf5X0K2NsXaTR5JIw3oQrmxstbc26sGky/Ln3wyi0WhYPDKPXpQ7tfa6lqPE5XEQjyXadhodFaVSmVQyQygQYWV5g421AJl0Bq1Wi8fn5KZT18tl5EYRrVZNpSINLRF4EMxmI8ViqeOWyoS9YRJxGBOjdm2s4XXCvW9XcfdtEi5bQyKmVA3Fd6HXtvRmpPOtshnq/OK9XhegrLITi8TbTkrdXpsu76uf8xqMItMzHnwzHrzGIA/de7l6RGLFr8DjgKeekTi/3P4cg7Ib0VBbzZdK5b7uI6fbjs1m6ZlY1i3HoZHDRw8Qjcb7et/Ts15UKmXPqEg7dnON2nHDItx9euseevzr8PhfSUzNeJia9sgeK6t+1gbcXhkGOp2WqRkPly9daz20Z5jNRmbmfWQzOTnJ0mFBq9UQjVT9I6qOluPI19ov7pUTmpkIhzGh1WrwzXg61tLvhloXw1tv1FFUWDFbTCgVCuKxBPF4ingswbtuTnLycIXvPy+RKmg5OKPmthsy/NsvVXj6+dZXHD8Opw2lcrjJYd1Qq1VMzXjwTXtQKhWsr/o5PrPBP/mNEiBQqUhc3RA4t6JnLaAcyl7vbidEh8uGw2ljbWWzr4F0bmGaUqn3lkG/wmFqxoNKperoM9CIwSgyPeslHIp2zcPoxG6vVSvvfIuWU0fl6MdmCD7zJ3LJpVarkQXEjIdyucLGmp/1VX9bATsK3B4H5XJlX+VbzMz5iMcS9QoMtVpVT7KUyz8tVCoV2Q67wdFy2DlAVD1ENlb9I8v9mLAzJlsVY0KSKjhddiLhWOuhHWGxmvBNuVk4OMux6w9yYHGOWEZDIJjl4sUAL728zLlzG6yuxQmGc/z4FQmTQeBX74TTN1awmSW+8HWBv/3R3paH1igVS3h9bmLROF220IeCx+fi0JEFpqY9BANhli5cw78R5FMPShhFeWX6Nz+Ep1+AUKSIwSgiCMKuJpPdToQ6vRaX20EinuroENmIUqnEO+UkGk30DPN26o7ZilKlwmY3E4309gYoFoooVUrMFhPZbG7gqMMwty1EUU++rMWsz2Mxyi3cTx6Fr34LyuUtEy+1RsX8wjQWq4mKJPUlznaDQiHgm/bg3wzueZl2DZ1Oi9Vmxr+xFa6rVCpk0lnCoRhrK5usr/pJxtMoVQqcLjuHjhxgasaN1WZBp9ciSdJAW1TdcLkdhIKRkY8JEwZjIhzGhCTJiT6pZHpHg4TBoMftdTJ/YJqj1y9y7IZD6EQduWyO9bUAF15b4tKFqwQDEZIdWvK+chG+/BR8+W/gb5+3sBnV73nHzhqVSgWtToNSqRxZCNRmt7B4eJ5DRxZIJdMsXbzGtStr5PMF7j4Nd791K5z9te9u/V6xWMRiM1MoFHfUznu3ogHA4bKj0agJBiLb2mK3w2gSsTmsBDaCPVeC/QoHqSLhdDvIpDN97ceXSmXMFiMKhWJHk/AwxINao8ZiNREIJFjekLj5Ovlxowhep8APqpbP+XyBUDBKKpXBaBQ5eGgOvaijNML9dYvVjCRJ+8oAze6wks3mu+Z8lIolksk0wUCEleV1/OtBstk8Or0G75Sbo9ct4vI4MFtMqDVqKuXyjkS3Wq3CbDENbbE1YXhMhMMYMZoM5HL5tpN6KxqNGqfLzsycj8NHD3DshkPYHVaKpRJBf4QLr1/mwutLbK4HiXdotdyJcmW8K/x+kSoV7A7r0AdSUdQzd2CaQ0cWEASBK0srLF1YbprM3v/zAodm5Z/PLkHjjlKlIlEulzGZDQNPIsMQDUaTAbfHQTQc67sfhs1uRQBCwd7n7Fc4lMtlTCYDIPQlBMqlMgqFArvTSj5X2FFy3W7EgyAIWO1mUsm0nKhZkJMmD83KAvHQLJw5L7DZsDuWSWcJ+iPk8wXsDqucq6FWkc8WdjT5dcPjcxINt8/r2Qt2GgHJ5wvEY0n8GyFWrq4R8IcplcoYTSKzc1McPDyP02XHYBRRKZUUC0XKfQhwrU6DVqcdyjbhhOEyEQ5jxGDUUy63d1pUKARsditTsx4WD81z7IZDTM16EYBoNMGVS9c4/9oSq9c2iEbiZLO5XU34lUoFnU6LQqkY2Qp/UIrVjoCFfHEog6lSqWRmzsvikXlsNgvrq36WLi4TCcW2hdr/xT9siDZ8D1r/RKVSGZVKiU6v7TsMOwzRIAiCvA9eKhP0h7e97064PQ6y2RypZO8Jvl/hQHUwF0Vd37bIhXwRvahDq9P07VrYyk7Fg8VqolQqNT0/GIVZr1D3Bjl5FH7wklxZU0OSJBLxlFw6Lcm5HQ6XDYVCIJ3K9v036IYo6jGaRII7vC9GwTAiIJIE2WyOaCTOxlqA1Wsb9a01m83MgUNzzC1MY3dY0Rt0CAjk8/m2Y5ko6lGplHvmfTOhMxPhMEZ0Og1KpYJMNQxoNhvxTrlYWJzl2PWHOHR0AZVKRSqVYWV5nQuvLXFlaYVwMEo6lelLpQ9CZUQr/N0gCAJGk7jrwcLtcbB4ZJ65+WlCwShLF5fZWAu0jfZ8+Jdkm22q0YbXltqMYtVJUBT1KBSKnsJmGKKBaudJh9NG0B8ml+0cPm5Eo1HjnXIRDsbaitRWBhEOCoUSp8tGPJro636UJAlJkq9HsbTzsP+g4kE06FGpVSTa3Nsr/oYSTREOzcGTz7Q+S47KRSNxEvEkGq2GA4uzGM0GpEpl11t8TreddGqrW+x+YBQRkHK5QjqVIRyMsrqyycaan2QyjVqtwuW2c+S6g/imPFhsZnQ6DVJFqt+zJrOBSrlSHy8n7B8mwmGMGE0Gpma9OF02jlx3kGPXL2I0iuSyBTY3Apx7dYmL568Q8Id71ssPg2Gv8IdBIV/AN+WudpxsP4F3w2I1cXBxjsUjC+SzeZYuLHP18mrXqMrHf1OeQABeOCfRrQigWCjVO2N2yh0YlmhQa9S4PY7qwNv/65jMRowmA/6NQF/XcBDhUC6XsTts5HP5rte0kXy+gFqtxmgSSaezO8oTYQDxoNVqMJmNxDs0eMoXIBCF44tylMnrEACBMxdanymTy+UJBSKkUxnMFiPzB2fQ6bQUi4P5VNRQqZR4fS421vxtV9p7wbgiIMViiWRCbrh27eo6m+tB8vk8er2OqWk3h48dwOV1YjYbsdotpJOZXYu0CcNnIhzGiF7UcfLU9WQzeULBCBfPXeXca0tsrAeIRRN9rQ6HzbBW+MNCkkClUqHRaLomaLWi02uZW5hm8cgCGo2a5StrLF242jM83i0psh2SJFEuVzBbTeSy+W0T07BEA9USVYOoJxgIDyTsbA4rlUq5b5fSQYRDpSJhMOhRKAYLIVcqFU4cUvCOk1ne/qYKh+cgm4c+32KdXuJBoVBgc1hIxFMUi51zKuTbQqBqmonXAZdWmvMdWkmnZMOkQqGIy23HO+1GrVINXDVis1spFop9bSONi72KgOTzBWLRBJsbQa5dXScUjFIulzGbjcwfmGb5yuok4rAPmQiHMZLJ5KiUKyxdWMa/GSKbyW2beMZNIV/EN+Xa8Qp/FJTLZZwuW1/76IIgMD3r5dDhBRwuG/71IEsXrhIKRvr6PB/5tdqKE558pnu0oUa5VEYQBESDvmmgHaZo0Is6XB4HiViyr+vQiMfnJJXKbJtUOzGIcKDqgmo0iUTD/c/61y2UOHk4j1otsBlWEIxWeMsNArHUcMWDxWYmn+teFVAjkRZw2+VeKI0lmt2oVCQS8STRSByFQsH0nBe73YogCH0LKa/PRSgUHUhsjJKtCEhgT8cjSZLIZnJEwjFikQT5XJ6VMdpwT+ifBoPdCeMgGIhgsckD9X6gUqkQjyWxWM2th/aMXDZPqVTC1MMf2+myceLkMa4/cZhsNsfZM+e5eP5K36HNk0cETh7Zijas+Ls7VDaSTmVAkjCa5Pc4TNFAtbNhuSR7DAyCTq/FYBD7Fg07IZPOYjCI6PTa1kMdufWEwLmroFRIzHvLmAxwbll+fCeEAhFCwQhOlx2nW25GYTQZYAD/hURKaspt8Drlbat+SKezXDx/hbNnzpPN5rj+xGFOnDxW7yrZCZPZQGkXuR6jwGI1VxcOO9tCGgUWm2nk2yYTds5EOIyZeCyJyWRApVK2Htoz4vEk5m4tKPeAeCyF2dJeYJnMBo5ev8iJk8dQqVWcfek8Z186P3C9991v3fr57JI8kQxCPJ5Eq5OdB4cpGkxmIxariVg0MXAJo8Egks8XyGRGKBwyWfL5AgZDNTGkB2qVgKiDSKyMRiVPToszAtctgMPS+uz+aRQPUzMetDoN8QFL92TxsPV3v/u0/K9fIuFY/f5TqVWcOHmMo9cvdhS9ZouJeKy/yM64MFuMA1+3UaJSKTGZDPsqaXtCMxPhMGb28wq/tnreDyTiSXQ6LVqtpv6YRqNm4eAMJ04ew+6wcmVphbNnzrGxFmj63X5pnCBe7VBJ0Q2pIqHRaJidnyIRTw5FNCgUCiw2E6lUhlhssGgDgN6gI53OdG19vVukikQ6nUFv0LUeakuxJJEvgcPavJrXaUGhkHtJ7JRQIEIinmR2fgqNRs7KH5RXl2ThWOPDvyTgdTY+ozcbawHOnjnHlaUV7A4rJ04eY+HgDBqNuv4crVaDbp/5EkwiIBN2wiTHYQ8YZA9/fAiYLca+DYbGgbLqm5BJZ/FNuzl0dAGP14V/M8Tli8sENsN9lQS24+7T8LY3yRPZih9++HLrM3rjdNuxO6wENsMUCgWUSuXAEYJWrDYzdodFNiEaMGNfEAS8PheJWKqvPf4ag+Y4AKjVsiNjv1EeQRI4fkhCowIEodp0TUAQwG0DrUagR0uNthhNBhAglcxgsZq25Tz0SzDaX4lmN8rlStW+OoFSqWR2fgqrXV4gpJJp7E4ruVx+R+9vVMg25uk9SczuxH7LAZmwnb6aXJ265Tif+NRHePaZM3z2058H4NHHHuHUW060PpVMJssffuaPeeqJp1sP8bFHHuTe990J1bKcP/3i1/jCY1+uH298zW6v08rHHnmQW0+f5Pc/+TleeO5s/fHG12t3vkZqn7G2X3r18iof/sDD9eN33Xs7H/34byGKegBe+PErPPzQp+vHB2V23kc0kug7oWocLB6eZ2V5fdeT37BQa9ScOHmMQr7A1IyHjbUAG2t+Qv1kMPbgf/yrrVXlk89IvNqw4uyH1pwGQSFgsZhAEEjscLWk0aiZnvWSy+V3FEUxGEUWD89z4dzlgVaQ/Ta5akSn13Lk2EGWLjY7cHbjl26HI/OyWCuVBQolBaJ2a3JY8cuTdT9bRgqFQhY8kkQ8nqzaYe8uz8RsFPjtX9n6/1oXzZ3idNnwTXvwTbtZX/Wj0Wp45cw5ivvk+6XRqJmdn2Lp4nLroT3DaDJgs5tZGeBebKXTPNI6hjfSaTxv/Z3W5/Wa01rpNc888NB9/PqHfhm1WgVtztdKr/N3uha7pedWResHrfHwQ5/mjps/WP/3+5/8HJlMlnNnL7V9Yw88dB/vvOs2/ut/+XPuuPmDPPXE07z//nu4697boXoBjh0/xO9/8nPccfMHOXf2Er/zkfs5dcvx1pdqovHCtT5+4k3XdTxfK//onz5AKpXhjps/yMMPfgqjUeTRxx6B6jX4nY/cz7mzl+qf9djxQ3zskQdbX6Zv4rGUvELaR8TjSSy2/bGFYjCKLByYYfHwHDNzvvo+8jBEw92n5US4GrsVDVTD97FogmKhiMNla9pi6RerzYxSpdxxJEo06MlksgOJhp2Sy+bJZLKIhu2DcCdCsa2tij/7lprHnryBvzu7lVsz64H7fkFixlN/qC1arQaHy0axUCQWTdS3J9olTA5CIiXxzEtb/3/3aTmBdqeEgtH6fTsz52Px8BwLB2Yw1ExD9hiLzbyvchuo+rDsJgek2zzy1BNPc8/bP9Q0b73w41fIZLI8+dffa32pnuN+rzmtHd3mmbvuvZ33338Pr7z4etvztdLr/N2uxW7pKhwefewRHv38J6GqVrpx/4ffRyaV5b9/4S+g+qa/8f0v1j/E7XfeSmAzXFdD33ryB2RSWW46dT2nbjnOradPNomOJ//6e6g1ak6++YaGs2xx1723119/fW17jNM35SIeTXDmJ68C8NILr1EslJiZk1dXjz72CF/95uc5dctxHnjoPtxeB09/+1kAXnjuLM8+c4a5hWlO3XKcd939NkSjvn5zPfXE05w7e4kbbjzScMbBqO3hN+6B7jVy7sXeihm1WsXcwjQnbjqK2+fkzE9eY/nyKvFYcmilYq1JkYPQTjQ0kk5lSMRTmK2mgSZV0aCv7+0Oss3QiCjqxhoGz6SziGJ/eQ4A5ob82+W1PK+dj/HslUW+/Ldbr2E2Crz7NNx2Y/sJWzToMVtNJOKptpGO3YqHVy/LkQ/qVRatzxiMmoXz8uVVzvzkNdw+JyduOsrcwnR9VblXyJP0/hEOGo16Vzkgg84jDzx0HyfedB3feeqHPPXE05y65Thf/ebn6xN5r3G/25zWjl7zTG1uOvuy7ET21BNPE9gM45tywRjm1EHoKhxi0QS//8nP8Z8+96XWQ03ULsg3vv6d+lbBZz/9ee55+4fqfxCjUSTS0HP+hefOkkpluOHGIzjddkSjno31YP14KBChWChyvMvk/KPvv8Av/Nz9bLYJ626sB7HYzPWLdNOp61FrVKxW64IffujTvP/dD/LCc2dxOOUSqtoxgHAoimjUc/LNN+CbcpFJZZsmio31IG6vo6u67MV+WuFTbYWcSWf3TDx4fC6O33SUQ0cXiMeSvPLiOS6ev8K15XW8PtdQBlqvs3kVOUhuQy/RUCOfyxMJxdBoNVisJgSh/STYiMVqplgq7TjaoFIpEUdchtlKJpNDNIh9Vwi1Fu6srW6yEZR4+vVZPvpZ2Kx2cjYbBU7fBB+8a+u6CYKAxWpCq9UQCcXId3Gt3I142E2JZjvUahVen4try+tcPH+FV148RzyW5NDRBY7fdBSPT54Uxo3FaiKTzu6bbROGEAEZdB65/c5bWVvZrG+/v/DcWd7/7gfrWwPdxv3f+d37u85p7eg1z9Qer73Xu+69HbfXUf8845hT+6WrcPjUJ/5d222HVlqVTycaPwTQ9KGLhRLhNhehE0898TSf+sS/a324zmc//Xn+9Itf49c/9Mt89/mvcOvpk/zew5/t+Hlab5DVaxsUC1tufalUpil/IhyKNh3fCfHYfiyDTHYsgxwVNrtFroO/6SgVSeLsmXO8/uql+sojncoQiyaGMsh++Je2JoFBSjD7FQ01yuUysUhc7gfitKLuElkyW0xYbeb6VsdOEA0iCqVivMIhlUGhVCD2WZZpMWxd6zMX5O2O9VU/UzMeNlNOPvoHUl08UN26+O1fAYdNjd1ppVKpEI3EO1p9N7J78bDzEs1GPD4XsWiiHh1JxJO8/uolzp45R0WSOHHTUa4/cRibfRd1qTtALgvd+SQ9CswW467fU7/zSOvqvxO9xv1uc1o7us0zTz3xNL/38GeZW5jmu89/hY898iBf/dI36sKmHd3O3++12AldhUM/1FTRq9Xwyn7h0cce4f3338NnP/157rj5gzz7zBn+9R99ggceuq/1qXtGsVAkm8nt2Qq/HelUBqVKiX6AEPRO0Ys6Fo/Mc/ymoxhNBs6/vsQrL54j4N/u+xsORamUK7g8jtZDA7GTEsxBRUMjyUSadCqDzW5pm5SlVCqx2swkEyniO4w2AIgGHZlUZqyJrYVCkUwqg9hnWabZuH3lvrHmx78RYmraQzih5qN/IPH417eOm40CH3hXhRvmUj3tw1vZjXgYRomm022nUq40Dd41Av4wr7x4jvOvL2E0GTh+01EWj8yP7XunVCnbbvXsFRariWwmt2PhPCjHbzxCJpWtb2XvBx546D7+9R99gmefOcMdN3+Qz37687z//nvqWyf7iV0Lh9p+zksvvNZ6aBu1vZoa9mroBkCtUdVDOVT3q4zVJKJHH3uE7z7/lfq/TskiNU7dcpy5hemm/Z3PfvrzrK1scvudt7Y+HQDRqG8aXGbmfKg1W6Fxo1FsSipxOG1Nx3fKXqzwe5EY8XtSKBTMzPk4cfIYU9Me1tf8nD1znpXlja7VCJsbQQxGEXPjZvkANIqGRErqq/xvN6KhRi6bJxKKotNrt11Xq82Mvtqmejc5HKKo3xNP/0wm11YQ9aIWWahUJNbX/FhtZqam3WyG5EqGz/zJ1rUw6Cvccn2pY95DN3YjHn748lZEyuuEP/wn/Z/fXG00trnRvCJspFKpsLK8wdkz51lf8zM17eHEyWPMzPlQKHY9NHfEbDHtSqSOArNFzlvZLd3mkcbH5hamuXZ1rSma0I5e436nOa2Wg1ebs776zc/jdNm6zjPHbzxCPJrgW0/+AKoRiO889UOOHT/UcUu80/np81rslF3fnTfceITAZrjjFgANIZLGD1X7EK++fIFQIEImlW26CE63HbVGzdmXL2yr4OgWutkJtRVBLTmF6g1SU6Qb68Ftf3DflKvn5+6Hca7w+6WWJKlU9rd3PQguj4MTbzrGsesXSSXTnH3pPEsXlnsm31IdaP0bQTw+146qFhqTIp/pI7dhGKKhRqlUrnse2B1WVColWp0WS3WLYjdluRqNGr1BP9ZtihqZdBa9Qd8zybcx2tC4HUF1cl9b9TM148VoMqDVanhtfZqPPGpreu7pm+Sti3aRi27sVDwkUhJf/l9b5/I6m7e6OqHVavD4XPg3gl2FcI1MJsvShWXOvnSeVDLNsesXOfGmY7uOrrVDqVRiqSaX7hdqEZDdfAeo/p27zSM1Tr75BkSjvumxdnQb9//TH32p65z2VEsFx/vf/SDnX78MXeaZQdjtnLpbdiUc2iVodOLpbz+L2+uobxXUMlZfeuG1enZpo7K6+z3voFgoDnxBqV7Ua1fXml7vY488yPSst+2e1hce+zKBzXA9GlHLSK0p0lq26t3veQdU1eSx44eGtj0z6hX+oJTLZRJDtqE2W0wcu0G2iVYIAq+8dJ7XXrnYdwfHGtlMjlAwMnC+Q2tfil4lmMMUDY0k4kly2Tx2hxWXRx6Q4jtwiGxENIqUS+UdCYcbDwvcfkOU22+IcuPh3pNiK9lMlnKpjNhjJTPrac5vaGVj1Y8gwOGjC8wtTJOIJzn7eqTt1sV9vyANHH3YjXgYtETT43MRCkYGro6JRuK89spFXnnpPApB4MTJYxy7YXGoY4PZYiQRT/aVJzIuzBYTiV3mNtBQpdBrHmmXpNiOXuN+tzmtHb3mmbMvX8BiM/Ouu98G1fO9867bOlocdDt/v9dip/TlHLl4ZJ6fe9spri6t8szTP6k/fuJNx3j7nW/hlTPnmx6nOlH/3r/8XYKBCEsXl3nxJ68yNePlA/ffy4f/wQc4sDjLV/77X/PVL30DgGee/gk3v+UEH/yNX+LD/+ADWGxm/sOj/5UffPe5ptdtxy++5x1YrGa+/50fs7EuV1j8zRNPN73ekWMHePKvvst/+IMvQnX747c/cj+XLlxlYz3AtatrvOsX38r/++G/zy++5x0E/GEe+tD/CSC3vY4leM+v/jy//ZH7efs738IrL57j//qnjza9j51SKBTxTbt3Ha4eJuVyBYfLvuMs/xo6nZbZ+SkOHV1AW213ffni8q5WPLlsHp1eh9Eo9r1P++H3ChyalX8+uwRLK63P2GJUoqFGsVhCrdUwvzBNNpMlmUzvyiXP7thKHByEd79V4OCM7JaYKSqZcReZdglc6nJtWqlUJAxGPUqlomsOgtsOh2blCffSCvzgTPNxrVaD0+1g8fA8SxeXCVbzXFKZmtAQOHm0+lxNrR32YG6T3bpqdmOQLpoer5NyuUIouPP7Jp3KEA7KSXi19t0qpbJqDb/z+wTAO+UmHIpSGqBN+yhRKpX4pt1D68zZzzzy/l9/N6Ko52/++nv1+YLqRP5Hf/wpfu5tb+Jvnni657jfa05rR7d55sWfvIpareJ9H/hFfuuh+3j7O9/C2oq/fnycc2ov+nKOnDB6vFMu8rnCwIP/KJlbmCYcivY9OTciCAK+aTdT0x4MJpH1FT/ra/4dvVYn5g9ME++z7fR3//PWKvE//0XnaopRi4Ya07NeVColoWAUtUaNWq0im8mRzeQGXg0ePnqAWCxRn2z7Yd4n8PNvkXjuNfiFnxMoFAW+93yFW66Hv/2xwPJG++vTDpfHgdVq5uL5K62H6tx2o1xiSYMjo1qjxmIxYrGayecLZDM5FhZnKOSLvHLmXOtL1PMMGpMUa9sJnf6e7djJ37gW6ahtkzz5DE15GFTzVSxWE8tX1poe3w0Go8jUtIepWQ/pZIb1Nf+OJ1mDUcThtHHt6vDe326x2S1odRo2W6oDJuxv+oo4TBg9w1rhDxuT2dh1JdkOp8vG4uF5Fg/PE43EWbqwzNrK5tAzpvM52Yo6nc52XYl9+Je2Vqsrfnjh9faD7k4mlJ1gtZlxue0E/WGSiTS5bJ5CvoBao8JsMaJSq0CSt4x6oRd1eKbk/fTiAKvI6w6ASg1TTgGTAZRKmHZCIA5IsLrdGqUrHp+TRDzVcSV7w6K8agf4zvNqkkUnLo+dQr5I0B8mGomTzeQQEFg8Mk82m9t236Uy8IOXIJVpjj7Uekz0G33YSeQhX4B8cStqIkevhPq2i06vlRN9V/1d78VBKRaKRMIxkvFUvQpJFPVUyuWBk2FdbjvJRGrgHiijZL9FQCb0x0Q47BNKxRJmi4lSqTz0CXanFPJFPD4nyWSaSh/NpExmAwsHZ1k8vEC5XGbpwjKXL14jmx1sgOuXUqlMsVjG5baTiCfptAj7+G/KjYsAfviyRDvX6nGJBpVKicvjIJNurueuVCQK+SKZTA6FQoFo0CMa9AiCQKlclptCtcFiMaFWqwi0Zhz2wGUDl1VosndWqQT0WoGra7DZf/CCUqmM2WKkVCx33Ne/+TqhbgB19qqZ15YKbKwFSKcyTQIpmUyjF3XY7BbCoeg28TSsrYudiAf5vqmdC7wOuLQiEIgKTM96CQaipNPDi6g1ks3mCPjDZDJZrHYzs3NTaLQaCoUChXzv8UKtUeNy2/fVyt5gFNHrdYTbfSEn7GsmwmGfsZMV/ihRqpRodZquA6tao2ZuforFwwsYDHpWrm2wdP7qrs1c+iGfL6DWqDFbjG2zsu8+DXe/dWub4mvfbToMYxQNADaHFaPJQKjq4taOYrFENpujVCqjrbpPKpVKKpK0TcA5XDZKxdLANr3JDLzzFrk7ZSMqJRSKcOFa8+O9EEW5sqL1fag1aoxGA2+5voRGLaufzz6eJRTp7PxYLleYmfdRqcjdJttx5gI8+UN428ktUTjrheOLcGlVoJ9mjzsRD+3yHX7wuot8vkC0z06huyGVTBMORilXKni8TtweJyqVknQ6u+3eaMTusJLPF4a6Vbhb9mMEZEJ/TITDPmLQFf44KJfKuD2OjrkXvmk3i0cW8PpcBPxhLl9Yxr8Z2nG7652QSWex2c2oVKpt0Y2P/Bp4HfLs+MxLbFuRjlM06PRa3B4HiXiKWIfr2UilXCGfL5DJZFEqFRhNIjqdFqqrfEEh4JtyE48mtn3uXhRL8KajoFbLLa4LZQVKpTyxO60CZqPQNYG0FZVKhdVmlktOJfmzmsxGdHothXyB0zduiaTPdTeYJZvJodWo8U65iMeSHVs+D2PrYlDxkC/Ail/g5uvk/zeK4LZJPPGd9gJnFNTbd0eTqNQq5uan6tb17cQzgG/KTdAf3hbB2Sv2YwRkQv9MhMM+o58V/jgpl8tyyLy6uq9hs1s4dGSBxcPzJOMpli4us3J1veMgP2qy2TzeKReFXKG+13/yiMCH37u1pH7yh/LAX2OcooFaHbVKNfgALlWjEJkckgR6vRaTRTYYsjutbK4HBt4jvmERrjtQvTYC/Me/muP18/H6BCznI/Q3+YL8Gr5pD5WKhGjQoxAEstk8yUSKYrHE6Zu2/g6P/1XTb7Yllyvg8jhQa1RdO6J22rqwGEcrHhLprXyHeW+JM+eFgbZ3hkE+XyAcjJJKZTAYRA4emkMU9RSLpaYOqWazEaVK2VH87wX7MQIyoX8mwmGf0WuFvzdIWG1mEvEUBoOe+YMzHDq6ABJcvnSNyxeXSae6D7ajplKuUCyU8HidJBMpKhVpWwnmaw0W0+MWDSazAZfbQTQcJ9lhVdgP5VKZXE5OprQ7rYgGPflsHtEootVq0Go1qNVqFEpF1X1QaJuB/85btnIOnvyJi+cuWHnyu4GmCbg1b0CpVKJWq1Br1Oj0OvSiDlHUYzIbq1sqZorFIoHNEJlMjnI1SXDGA8cX5Ul2M9S5lLGRYqGIUqlgfmGaVCrTczJv3bqo5T30u3UxqHgIxxUcmFFh1MuRtZNHa9GP1meOnkw6SzAQlv1B7Fam57yoNWryuTzFYgm310E8luwrF2Jc7LcIyITBmAiHfUanFf5eUsgXcXud2BwWDizOYrKYWF/ZZOniMtFwvGNS4rgpVCcbS7X3w7/4h1ur3O/8RKKWOjJu0SAoBFxuB+VSmaA/3HYiH5RKRRZz8WgS/0awXuNfqVQQBAG1Wo1Wp0E06jGaDOj0WrQ6LWq1mnmvgrfcsDVgf+m702TzSgL+MJGUmmxexYlD8vFZr9zKOl2yotNrUalUKBQKKpUKxWKpvmqUm+cI8so23Cx6Z71bq/MfnNnu4dCJTLVTq9EoEvRHel632taFUdwSjLWti0BUjhJ0YxDxYLGZWQ3AvKeIViOLlUNzcpnmXiBJkEykiIRjSBUJ77Qbl9uOVq9FpVbtqy2B/RgBmTAYE+GwL9la4e8HPF4nBw7NcuLkMa5cusbSxWU214NDLTsbFplMDpPZwC/eBm+5Xl5hrfi32mePWzQAWG0WHE4bQX+Y3IC5CJ1QqVX4plxEQlHyuQJSNXGyVpWTzxfIZfNk0lky6SyFfKEeAbjzLUVMojwJ/91ZI5u56zFbjFQqFSroCCdVJFMSNxyUtz+89hKZdJbzl7Pksnny+QLFQlEWKuVKfUJXKhU4nDai0UST1XIv86dOVCoVKpLEwUNz5POFvr4PqQxcWt2e9zDnkf/ba+uiH/FgNBlQKARCoRSB6FY0Rc6l2SrR3AtKpTLRSJxELIlGo+bWt52iUqmQy+b3zbbAfoyATBiMiXDYhxTyRRxO21Cc4naD1WbmwKE5Dh1ZIBpJENgMsbay2THTfb+QSef4//6DCqJOnrxqJZh7IRrUGjVuj6PqBji8cxpNBswWI/7NUF+JtJWKRLlcRq8tc8eprZX7P/23eQSVXJHy6ssXiMeS+AMZVjaLHJrbSiyd9dAz56FSkXA4rWQzsriocWh2q4TxBy+2t5zuRDqVQS/qsDusRCPxvnI5ankPZ87L4qFx62LWK/S0G+8mHrQ6LaJBbkqGVItibC/RHHe+Qyv5XIFyuUw+VyCXy3NgcRatTkupWCKX61zRMmp0Oi0Wqwn/gOXDE/YXE+GwT1EqlYiibk9WCXpRx/zCNIuH51GrVVy9vMLShWUioSi+aY9cKtjHAL5X/OJtEnf93Nbk+LXv7o1ooOqLbxD1BP3hgQyaemFzWJCgrz4xjdzx5i0jpiefkf95vC4kSWrq5FibfBvFQ6+Ew0q5gsFkQBAgldy6bxvNn558RhrI0pqqx8n0rBckuZ9Dv2yG5a2L5s/QX95DO/GgUimx2cwkYsl69IYOJZr95HGMEr2ow+tzs3ThKpvrQQqFAk63Hd+UG7VaTS6X35PvsMNpI5vNd/T7mPDGYCIc9inFQhGvz00sOr4cAoVCYHrWx+LheewOKxvrAZbOLxMORZEkecVaKpZwVUsKe+057xWNJZgX19SE05Y9EQ2iqMftcRCLJXbdyKoVt9dFOpUZWFi+746tvI/P/Q95cvVOuaHatryRVvFQq1bIF2tmSNvRaDUYjIamCb7R/Omrfzv4ajyXzaNSq5ia8chNwgZYMdc+Q+vWRT8lm63iQa1Wk83mtp2/XYmm1yn0vSUzbBQKBdOzXkJVwyhJkkjEU0TDcQSFwPSMF7vDikKhIJVMj3V88U152NwIUKmM6aQTRsKuumNOGB2lUplUKo3FKtdnjxqXx8GJk8e47oZDZNJZXjlzjkvnr25rd51IpEinMngH7E45Thq7Fy5tOjh0eH7sogHAYjNRLJWID3lrR6vTIoo6sn20Im/khsWtn89ckDhzoffgvRmCz/zJVitss1Hg9I1ypUQ7spksoqhDW/WbALAYts6zGel9znZsrAbI5wv4pjucuAubIbk3xkc/u/WY2Sj3zujVZTNU7ap56PA8Fpu5bc4D1Z4ZTz6z9dnuPi3/2wu8PllUJhLNOSGZTJZL56/yyplzZNJZrrvhECdOjqZ9dzssVjOp1O4auk3YH0yEwz5Gbrc9vNbW7TCbjXK765uOolQqeeWlc7z68oWuIeGgP4xCqcDusLYe2nM+/psNomFNS0VhZHMzRLlURqVSNj13lJjMcvOmeDRBoYND5E4RRR2lUolMerBw7+kbt35+8u8aj3RnMwQf/QOpSTy8+3R78ZBJ5yiVSoiirv5YrTEU1dfaCZlMlo01P9MzHjyNXa4G4MwFiV/7Z1ufA+D0TfDbv9L8HhtRqZSUS2U2N0Po9bquLblfXZLLfmt8+JeaG3KNA7vDikKp6NrwLBqJ8+rLF3jlpXMolUpO3HRUbt9tHvFYYzEOpX32hL1nslWxjykWS1htZkrF0lD3x6m2MZ5bqLa71mq5dnWNpYvX+v5iZzM52XApX+xonTxO7nyLwEfvF/i5E6CoyuELfi/XVhOsr/pRKBRYrCZK5UrT/vQoUCgUuD0OCoUCwUC4Y5+JneJw2iiXKsSincVdKzcsyrkGNX7vP24d67RV0Uit1LHRJ2HOsz1XQJIkRIOISqUkWV3xDmr+1Il0KovRLCeFhgKRHYW7B3Gb1Oq02GxmstlcfSJulzDZSDC69VrjLtE0GEVcHjvrK5tNVS2dSCUzhKoNplxuB94pFyqVckcdWnthqPZeCY456jdhNEyEwz5HoVBgMIkdrWR3wtS0h0NHFnB5HPg3gixdvEbQH+4rO79GpVKhkC/i9blIJdN9DVSj4n+7Ez70SwKJtMS0S7ZQRoAXzgmsrsr9A4pV8WUyG1AqlUOPAjRitZmxOSwE/eGR+PB7fS4SieRACWaNhk+f+ZPmBMV+hAMdxMPhWWmbeFCpVZjNJiLhWJP505kL0q4mUUmSkCoV5g/OUCyWdtwLpZPbZKPhldFkQDToSMS2cipacx7aiYd8QRZTtXyHcZVoqtUqpme9+DdDTa6RvaiUK/XW9EqFgpl5Hza7BaoNx4aF020nnZLLeSe88ZlsVexz4rEERqMBtVrVemhgHE4bJ04e48SbjpHL5Tl75jwXzl3ZsShJpzLEogk8e5zv8MD7BJ58RsIpj3cgQCim5Oh084q8UG1RrFIpsdotVWfF4aLRqLHazMSiiZE0KxNFPXqDjuwA2xQ3LNbKKWV2M3nXti1qmI0C9/2C1BTqz6Zz6A2yq2TjTttmqP12wCAE/GE2Vv1MTbsxGPSthwfi8b9qv3XxD/43BVazQCQc2yYwazkPTpe947ZFIiXxzEtb/3/36ea8m1Hg8bmIRRM7/i6nkmkunLvC2TPnyeXynHjTMU6cPIbDaWt96sCo1SqMRsPQE4Qn7B3DHzknDJVKRSIRT2K2mFoP9Y3RZODIsQOcOHkMjVbNKy+e4+xL5wkPWMrXjnAoSqVc6TiIjppZD6RzUCgKzHq3BudrG2U81cqKRqSKRCyaoFQsYXda0WjUrU/ZFVabGYVSsePVcC9qoqE1abUbjVsUuxENNTZD8Gv/rLN4yGSydfEwCtbX/CjVKqZmquYJu6AmhB7/+tZjRlHi3W9J8XPHG5+5RT/i4dXLsvEYgNcJH//N1mcMD6fbTqVcGdr3+exL53nlxXNotGpOnDzGkWMHMJoMrU/tG7PFRCKe3NHW0oT9yUQ4vAGIx5JYrIMLB7VGzfyBaY7fdBSXx8HVK6ucPXOe9bUuNWg7YHMjiMlkGHlyVTuiSQGbCZyu5uoTpVIilek8UKWSaZKJNBabGXGXK9caokGPxWYmHhtsG2EQDAZxINEw42mONjz+V52vySB0Eg81MpksBoPIjGf3iZGtxGNJNlb9+GbcQ0nQ3QzB15+x8PW/23qtXlUXvcSDXGWx9f+yeGj/WrvBbDZiMhl6bjMNyvqan7NnznP1yiouj4PjNx1l/sA06h0IbYvVNDIhPWFvmOQ4vAEolcoYTSKSJPVt0+qdcnHo8DxT0x4C/jBL9XbXw016orr3XMgX8U17SCXTY22pXSjCsUUDR+aV5AsljHp58jIZBJ49CyE5xaEt5ZLsrGcw6NFqNX1f207UytpCgchA+SL9olQq8U45iUUSfe8V33bTdsOnVvrNcWgllZF9IN72JnlC1GoEji/CC+fkagSb3YxdH8NVjXbvxPypE9lsDrvdil7UEehSQdALhULAO+VGp9Pw7R/G+MYPyvUcDqp9NjoZRvXKeWjtonloVr5ew7oGGo2a6VkfG2uBbVsqw6BcLlfbdydQqVXMH5jGYjEhITUZfHXDZDag0ajldusTfmqYCIc3CpJcB93Lr99mt7B4eJ5DhxdIJdNcujCedtfFYglJkrA7rCTi41tdHDw0R1w6hkO3xpHZAorqom7ND99/sfXZ25EkiVw2j0ajxmgy1PsvDIrFasLldhAKRskMaMrUL0aTiN1hlQVgn5Uh7QyfWtmpcKDae6KdePjJ6+By25l3Ret9MXZi/tSJUqmMIAgcPDRHNpPb0d6+Tq9letZLPl9gYy1ApVwZqOqCPsRDMCpHL2ri7dCsMLQumlMz3mouTfcxYbfU2ncnk2mMJpGDi3PoRZ1sX91DwLo9ThKx5MjHnwnjZSIc3iDk8wVcbgeZdLZt1KDe7vrIAoIgcGVphaULV8fa7jqXzSMadBgM4sCOhjvh4KE5Dh6a4/Kla/z5N0NcvKbg52+Vj6Wycl19vxTyRSRJbi4mVaSByl9VKiUut4N8Lt+1fn63WG0WBIWCUKC/c/zi6a0J68wFqWMp5G6EA1Xx0FqhIOrK+OMGbphNoFHLwuHxv5aGMmHWSCXTGIwiFquZcDA6UKTLajMzNe0hGIgSbVkN91N10Uhv8dBcovm2k8KuLak9XicVqTJWU7NMOitXCuUL2B1Wpmeb23e3otVqsDusO76vJuxfJsLhDYRSqUCn1zUNTEqlkpk5H4tHFrBYTKyv+lm6uEwkFBublWwjqWQGp8uGIAjbrHmHSaNouHzpGgClssT7f15e+QpIvHCu5Zd6UCqVyecLGE0GVCoVhT5XSTa7FYvVRNAf7vt3doLL4yCbyfYdJm6MNnzmC51X+7sVDrB9onXbQavM47EV5DIX4HNfbvqVoVAul5lbmKqH1fvB43ViNImsr/pJpztfyzMX4MkfbpWf0mXropt4aC3RlF9r5yWaVpsZo0lkbWWz9dDIkSRk++pIHCTwTblxuu0oFArSqUyTDb3daSWXzZEZUb7PhL1jIhzeQBRLZTw+Z93V0e1xcOjIArPzPkLBKJcvLrOxFtiT5jWN5HMFpmY8pNPZkdjLthMNVFeKd5/e8hhY8de6F/ZPpVIhm8mh02kxGEWKxWLXbHCtTovL4yCZSG1buQ4TtUaN1+ckHIr1Ffa9YXFrb30zBJ/7SufPMAzhwDbxIGEzleuiAQmCMbi49ecaCplMDq1Oi9vjJB5LdM1T0Wo1TM96KZcrrK1s9nVvdtu6aO3Z0Us8MIQumjq9lqlpD+ur/r7e/6goFUty++54Co1Gw8LiDCaz3Jo9nc4iCAK+aTf+zcH8YSa8MZgIhzcQlXIFnU6L1WZietbHoaPzZDM5Ll9c5url1ZGu8AehVCpTLJZxue0k4smhRj46iYYabzu11eDq1aXBhUONfL6AIAhYrCbKlUrHQdrpsqPRqAn6w33nHewEU7WN9uZGsC+zrffdIU9wAJ/7cvekxGEJB6riQamAm1p8C/wRibefEnjuLIT7N7zsi0K+gMfnRKlUdixJNJuNTM96iUXjhAZsb57KwGZku3hw2+T/Nm5ddBMPu+2iKTeh8xIMRLtGSsZJLpcnFIiQSWUxmY0sLM6g0+nQ6TUUcsWJd8NPKRPh8AZDUCi47W2nKJVKXL28yuWLyyMxGtot+XwBjUaNyWLcUeJaO3qJBqpOfbXBHQSWukyYvSgWSxS6uE0aTQZcbjvRcHzkCWp2hw1Jkoh0KxOp0s1euh3DFA4ANjPccFBAbKhyvboB1zbAaoLnX2989u4p5IsolUpm56dIJdPbQuMujwOLzczGmn/H35Va3kPj1kUt72HWK7Di39q66CQeal00G/MdBumi6Z1yU8gX9mWFQjqVIRSMUMgXcbrtHDqywIVzV/qKjk144zHxcXiDkYgnuXzpGhtrAVaW1zuuhPcDAX+4WpZXs3TcOf2IBoAz57d+nvPsPtRRrLpNKpUKrHYLSqXcKKsWjcjn8mNZVYkGXd/VGo2iodHYaFzodQKBKE3uiQDZHBjF4XsZAKyv+kkmU/imPQiCfA61WsXMnA+1SsW1K2tD8daoGUY1dhad9bDNPbOTz0MiJfHMy/X/5e7TcjOsXtjsFlQq5a5KT0dNqVRmZXmdjbUAly9dG2t11YTxMhEOb0Bee+UiCqViTwyXBmVzI4TDZduVPXC/ogF23ra5G1JFIh5LUiwUsTutaLUaLFYTFqtJdqEcsXiT22jrt62k29Fq+PTkD4d/PXrx+mWJGQ9cXJU4f00WWv6Imnmfgpcujub9FApF1lf9+Kbd+KbdGIwicwvTZDM51tf8fW3v9Eut1XijKKsZYDUaRnUSD68uNYuqu0/LBlGdMBj0OFw2NjeG5KA1QsxmIwqlgtdeudh6aMJPEZOtijcgkiSRzxeYmvaQTmXalmfuFyrlCsViEbfXSTKR6ppo2I5BRAPVkPLJY/KWxU4TJDtRLBQpl8rYHBY8U25ikfhYyuEsFhM6vZbNjUDPTpt3v3WrmVUnw6dWhr1VEU2CyQB3vllg1S/hsKpxWiSW18v8l79sffbwSCXT6EUdh48dAElibdU/MsfC2tbFmfMCd79VfqxdyWanbYvWfIdOJZoqlZLpWS8Bf2goEZNRUks+3Vjz74uOuRNGxyTi8AYlm8kRDIT3vMFUPyQTaRLx5MDvdVDRUOPMua1V32yD5fEwyOcL1SRVDSqVCpPZgEolr6pHhWjQk0lnkXqILrNRGIm99E74T38O//f/lCiWYC2s4Vsvu/g/e+Ra7AatVoPL40Cj1WAyy0Ze4/ASOXOhfaOs3/4V+e9Bh8hDv5bUHp+LRDy549yMceLxuQgGwvte4EzYPZOIwxuYXC6PTq/DaDKMZZDcDZlMDpPZgFar6SvkvlPRILO1CkQYzAiqFzq9FqfbTtAfxr8ZQqVWYbIY0Wg1SJJsYz1MBEHA43OSSKR6Dsh3vLm3vXQ7hh1xqLG8Ad97Hs6ueiiqZrl2Za31KbvGZDbgcjuwO6zkcnmuXV0nl83j9jmJR8fjWNitZLNWddEu8tDOkvrM+a0STafLhlKpxD+sJh8jxONzUS6XCTfWp074qWUScXiD498IotVqsNqamzztR/wbIcwWEyZz9057uxMNzXkOFsNwV91Wm5lKuUI8lqRcLpNKpgn6w+SyOURRJ+dzGMWhtezWizr0YrPpVyeOL279/OTfNR7ZW2KROBaLaWj3qEqlxOG0cWBxFqvNTDKRZuniMqFAhGKhyPqan3KxxPRMQ/hlxGyG5AhPa95DY6OsdpGHV5e2umiC3EXT65QFkdliwv8GyGuw2sxotRr8QxaeE/Yvk4jDTwG5bJ7pGQ+ZTG7PzZ+6ITfDKuCddpNMptsaw+xWNFBdAX74vfJgPcw8B5PZgNvjIBKKbSsxLZXK5LJ5SqUyarUai9WESqVEqkgDWSG3YrVbUPWx6rztxi1zoW720u0YVcShRi6Xx+11UiqV6+ZlO0EU9Tjddrw+F8VCkVAoSqSNIVaxUEShVDJ/cIZ0KkO6D9E1LFpLNmlxm4xGt0ceWks0D88reHVtis31wLbPtt/Qizqmpt2srWzu61yrCcNlIhx+CiiXq4ZLHsfQDZeGzVYzLMu2hl3DEA01agmS7NIIqoagEHB5HBQLJUKBSJO1biOVcoVCvkAmnUWhUGAwioiiHgFhR9UXLredXC7fc4/73ae3DJ8e//pgHRhHLRwAzBYjRpPIxlqg9VBXFAoBi9WMxyfbRKdTGTbW/KSSma7XM5POYjYbMZoNBP3hjn+vUdBr6+LC5WbxEI1mCUTheLWM1uuAbCbPMy+OT/DsBNmQykcwEOkrIjbhpwfhHac+ML5vFPDoY49gd9r48Acerj926pbjfOJTH6mH7zKZLH/4mT/mqSeebvjNLe6693Y++vHfQqw6zLzw41d4+KFP149/7JEHufd9d0J1ovrTL36NLzzW2yi/9j6efeYMn/3056H6fk+95UTrU7u+x17nb3zNbq8zKC6PA5VKOfDgvBf4pt2US+V6XfowRQPItfEffq/88zMvwQ9f3t1tbrNb8PhcrK/6B65P12jU6EUdWq2GbDZHNpvvKzKkVCo5fOwAmxtBYl1W6jcsylbbNe747cE+68mbbwDgzPOvth4aGjNzPo5dv8j3vv1sXxn3Op0Ws8WIxWomlUqTiCUHjhx4fC5O3HSU868vsbK80Xp4LDTehzVq96PTbcfpshMKRggFItx2o7y1QUPJZ6NfxH7DN+2mVCoPpbFb6xxw9fJq0xzxwEP38esf+mXUahW0GfNbGfYY3GvOGfT1uj2/17XYDwxnI7ZPOk3C/+ifPgDAww9+ijtu/iDnzl7idz5yP6duOd76VE7dcpzf+cj9nDt7iTtu/iC//8nPcez4IT72yINQvcHeeddt/Nf/8ufccfMHeeqJp3n//fdw1723t75UE61/rBoPP/Rp7rj5g/V/v//Jz5HJZDl39lLbG6PX+T/2yIMcO36I3//k53p+1kEJ+sMolUrsDmvroX2HfyOIaNBjsZqGLhpoMYKqhfB3ikajxmIzE48lBxYNVD0G4rEk4VCMSkXuwGm1W9Dpta1PbUI06FCqlGR7TJinb9z6+TN/sj8nmmgkjlqjxtYjz8FsNjI772NqxkO5XOHq5RU21gIDiwaq99j6mh/ftKc+4I+bx/+qc9VFIRNtynlYWtewGZEnRrnKYut39ht2hxWlUjkU0UB1DkilMtxx8wd5+MFPYTSKPPrYI1CdtN9//z288uLrbcf8VoY9Bveacx597BFOvOm6+vm++qVv8A8f/lDHOafX+btdi/3CWITDAw/dx//60Zc4dvzQtrr3Bx66D7fXwTe+/h1eeO4sVCfr97/7QV547ix33Xs73/j+F+t/pHfd/TZEo54n//p7ADz1xNOcO3uJG248AsDtd95KYDNcV5ffevIHZFJZbjp1ff2crTz62IQdZWUAAD3sSURBVCM8+vlPQlX9deP+D7+PTCrLf//CX0D1JvjG979Yv0m6nf/ULce59fTJJtHx5F9/D7VGzck3y6u+3eLfCGJzWDDUNlj3KZWKxOZGkJvfcoLjNx0dqmhgyAmSFpsZtUpFvM/ui50ol+USwVAgIjfS0utweRwYTbKldSuiQSSbznbd575hcavsj2o1xX4kncoQjcSxtRG1ao0ap8vG4uF5zFVTrcuXrhEORdu2ax6EjbUAWq0G34y8HbMX1NwmWxMn7/sFicNeWTxMzXiwuWf6KtHcawxGEZvDMrRkyNoc8PS3nwXghefO8uwzZ5hbmObULceZmfMBcPZluZ3oU088TWAzjG9KLu8e9Rjcbc45dctx5hameeXF1+vn+8JjXyYaiXP3e94B1fnlq9/8PKduOd7z/L2uxX5hLMIB4GtffYp73v4hUi1lg8dvPEImleXMT9qHSZ964mnuefuH6lsHvikXmVS2SYBsrAdxex38zu/ej9EoEmlodPPCc2dJpTJ1YdGOWDTB73/yc/ynz32p9VAT7UTOZz/9ee55+4d46omnOXXL8a7nd7rtiEY9G+tbX7haJvjxLu9vEIrFEv6NEF6fa+T+ArtlatqDy+0glUx3bE60UzZDW2Fes1Fgpwn2oqjHajUTiyV6ispByOfyxCJxouEYggAOp9yaW6vV1J8jirqe52y0l96voqFGLBpvijgYjCJT0x7mD0yjUChYvbbB6rWNnvkcgxCNxFlf8zM17RmK9flO6VZ1cf1sknyugMlkQFCbePKZLaF792n5335BpVLi9bnwb4R2LepqOJw2AFavbW0nhUNRRKOek2++of54bYy8697bcXsd9XF01GNwtznnzT8nh/saX6+Gvfq5GhfCvc7f61rsF8YiHL7w2Jf53L95vPXhOqlUht944Ff47vNf4bvPf6WuzjqRSmXqEzfVC1ssbN3ErX/ExpuoHZ/6xL9ru+3QSquS7US38xcLpaZJsnZTD5NUMk0smhjYcGmc1LYnnvvRSzzz/eex2S24PY7Wpw2NnRpBWWxmiqUSsV1GGzpRKpVJJtIEAxGKhRIGo4jDacNqM2MwimTSnb0bWu2l99LwqR+ikQQOl42pGQ8LB2dwOG1kMlmWLiwT8Ie7RlZ2w/qqn3y+gG9676IONdptXdxyfYnbj10mtHkNp8uOP2nnbIP3yId/SehqST1OPD4XsWhiW1XRbmmdmFevbdTH9KeeeJrfe/izzC1M893nv8LHHnmQr37pG/XFZDuGPQZ3mnOuXl7l2tU13nnXbfWIxwMP3cd0l/3RXufvdi32C2MRDr1YODgDUM8jSKUyfOJTH+kqHsZNTeW+Wg2X7XfCoSiSJCdg7Tdacxpy2TzXrq6hVCmZnfeh1qhbf2VHNDlIdv4ed8Rs2epH0U9C326QJIlMJkskHCOZSGE0G+SKDIMOm92C2WLCaDKg02vRaNQolcpt0YYeFZtjQ61WIYp6zBYTTpcN75SL2fkpbHYzNrsFl8dBYDPMtatrxKKJkVc8ZDM51lflqMN+ENObIfjYv1fyP7+31WvGbIBfOBXDqt7A6bJzfs1CIiVfl/2S7+B025EkaejRwV488NB9/Os/+gTPPnOGO27+IJ/99Od5//337Jt9/4cf+jSBzTCf+NRH+O7zX+Ge976T868N0XVuH7IvhMPVy6tNGapPf/vZrqEZo1FsEhUOpw21Rk4qohpaaqQWMqrlWtQiG4//2aNNz+tGLUfipRdeaz20jU7nB1BrVPVwFNXEG+OI8hH8GyFMJkNPw6Vx0ioaalQqEhtrAVLJDPMHpofynhsbPA2a56BUKrFYTaRS6bF0v2ykUChSLlXYXA8Q9EdIpTIUCvJqXKPRYDCK2J3WJsOnZ1+XJ2WjyYBOpx2aAVU7FAoFOp0Wo8kgV5t4nUzPellYnOXIsQPMLUzjcNkQDToAMukcoWCEpQvLnHt1iVKx1HMLZtisr/oJBiNMTbvrmfl7hclsQGue4b99Q7Ft6+LEgTQz5nV0Rif/64WtfJCTR4S+umiOCpPZgMlkGJkhlWiUPTpqzMz56mP68RuPEI8m+NaTP4BqBOI7T/2QY8cPdUxA3OkY/Ohjj9Tnh1p0gz7mnA9/4OH6wvf9734Qo8nQMdLd7fz0uBb7hdGNLn2ysR7c9kfpxsZ6cNuF9U25CGyG+U9/9CVSqUzTTVL7o7z68gW+8NiX+YWfu7/+Bx6kxOWGG48Q2Ax33dKohZw6nT8UiJBJZZtuaqfbjlqjrif+DJNyuYx/I4TH50IzpFX8bugkGhqJRuJsrPpxuR04XVvXcbeYjUJTEmEvLFYTBqOeeDTRs0fEKDAY5W6Y5XKZYqFILpsnlZR7fkQjcU4tboUyX1lScOYCqNQqzBYj3ikXBw/PsXhknrmFaaamPTjddvkzGfR9RXTUGjWGatWL021natrD3MI0i0fmOXh4Du+UC7PFiEqtolAoEosmWF/Z5NKFqyxdXGZleZ3N9SChYJREPEk2k6NYLBGNxvck16BSqbC+6sfmsOKb3mHCyxBwumy43A42Vv1EI/FtWxdmo8BNh7LcvLCMzWHlpUtb1SB3n5YFxLjRaNR4qnkNozB5qkUwakmQVCfmbrlvndjtGNxaRffZT3++65zTbj5ozcFopNf5h3ktRsmeC4eaivyNB36l/tjtd97a8ULVMmRrGat33Xs7x44fqm8hPP3tZ3F7HTzw0H3QkBHbT6SgE+0SbjrR7fy1DNlGpXz3e95BsVBs+1mHQSaTJRyM7nmIth/RUCOdzrJ8ZQ1NtdveTpM8GxMkAcx9Rh1qbbNj0cRQE/X6RaevttHuUoLYGG344/9ZIRqJE/SHWV/1c/XyKpfOX+Xq0ioBf4hU1aVTp9dhd1qZmfVy5LqDHFicZXbeh8NlxeGyMjvv48DiLEeuO8jMrBe704pOr6NSrpBKpgn4Q1xdqr725VV5Fe8PE43ESacyFArFnt1PY5FEfetl3MjXZ5OpatvtcVLrcqnRali+stZUXlqrumiqqLCXeMvBFbKSfc9LND0+F+FgdGRRoi889mUCm2Fuv/NWqI63t54+ybWra7zw3FnOvnwBi83Mu+5+G1TH/HfedVvHkvhhj8G95pzGqgkaKu9qc1sjvc7f61rsF8ZuAFXbHuhmABUKRPj9T36OF6rlmB/9+G/xnad+WE+GqT3WyYyjl/lHJ9qdq9vjVM/1zrtuazLw6HX+buYfo8I75UKqSD2ti0fBIKKhFafLVvXsD+6oln8nRlBujwOTxcjayia5bL718MhxOG04XDYunr/SNtrRaPi0GYJf+2fbn9MPao0ajVrFyeqAd+a5sxSKpZHmcygUCm6/81auLF1jeQRNr3phtpg48aZjBDZCXDx/pfXwSDAY9PUul6EuTaC8Trj7tmbDqFRWQSxjYMax5R/y5DPj8+vweJ0ICoHNNqvnYdI6B7SaHrUaQDUeH8cY3GvOefzPHq3n6rW+3qOPPcLcwnR9Tqs91un8va7FfmDswmHC3iAIAnMLU8SiCeKxwU2MdspuREMNk9lQX/VEuzgotuPkEYE//Jj884ofvvJU99tdNOiZnvUSCcf2rNPfzLwcplzt4HbY2LL5M3/SvFLdCeNwjmzkppur+ULP7zwKuBsOLM4yd2CaV148RyQcaz08VGx2Cw6XDf9GsO/o1ckjQr3ZVSeG8XfvhcUqNya7dnV95AmsE95Y7PlWxYTxIElSPd+hl2PhsBiGaABIJtIsX1nDaBLxTbtRKPrf5x3UCMpqM1PIF8YqrhoRFAKiqCfboQzzjWL41I1YJI7NZhlpAmc3NtYCpJMZpnZq7tEHCoWAb9qN0SSyfGWtb9FAtUnZR/+guWSzlVGXaOr02npew0Q0TGhlb765E/aEXC6PfyOI1+dCEPqffHfCsERDjWKhyMryBuVSmbmF6b7Fz2Zoq0yxlxFUbYUVjyX76iUxCkRRj06nJZ1uX1feWILZmJH/RiIaSWA0iXuSJEn1e7C+5mdqxjMSbwedXsvcwjTlUpmV5Y0dbf20c5tsxOuEP/wno/kOC4JQNXkKksuNf6tuwv5nIhx+xojHkmTSWTy+0S1Xhi0aGgn4w0TCcebmp7D26HtQozHq0MkISqVS1kXDXkUbqG6VpNOZtrkVrYZPjeWmbyQS8STRaAKrvb+/3yjYWAuwsRZgasYz1Iojq83M3PwUkXC83sBtp9TcJjvlM3idcuRh2Hh8TjLp7J5+DybsbybC4WeQgD+MWq0ayYpvlKKhRiKe5NrVdSxWE54+4rX9GEFZbGa0Oi3xWHJPQ7OiqOvoFnn6pv1p+LQTatsVe4UkSWys+TGZjEx1uikGxON1YrGauHZ1fUfN0Drx5DNyAmy7v/ev3S3xF38An/s4/PxbWo8Ojs1uQa1W7Vr0TPjpZiIcfkbZ3AjhcNkwGIbXNXAcoqFGLpdn+coagkJgdn6q66qxsVNmuzwHnV6LxSpHG4ZtpTsIKpVSbmzVpuzNbBTeUPbSvYhGZD+Hxt4c4yYUjFb7WLgxm7dcHAdFo1EzOz+FoBBYvrI2kvB+p60LnUZArYSL1wR++1cFfvXOnUcgDAY9DpeNzRGZPE346WEiHH5GKRaK+DeCeHyutp0ZB2WcoqGRzfUgqWSa+QMzHQf/xq2KdiZQFqscMh9VP4p+EQ0iCqWirX/DbQ2ts9/o0Qaqfg5KlRLrCKJeg7Cx5keSwNct+aULZrOR+QMzpJLpkZcs1rYuZPGwdU8bDQKH5yT+5kfwmw2lnIOgVCqryZDBHeVkTPjZYiIcfoZJJmQnwt3mO+yVaKgRjcRZW9nE4bK17c3RagTVOEcYTQY5tyGaID+CleIgiAYdmaqRUiuNhk9P/l3jkTcmmUy2GnXYuzwHqt+BjWrUod290w2n247DZWNtZXPgMuHd8PhfSYRiAqn01j19fFHg0AwUSrATrzePz0kinhyo+mPCzy4T4fAzTigYRRCEHds777VoqJHJVN0m1WrZ272lH0FTnkM1QVIQBKw2M9lMbs+jDVQrKjKZ7fkNt9249d7PXJCaRNAbmWgkjnUP8xxqrK36icdTTE17+ir1VatVzMz50KjVLF9ZG5mjYjc2wxJ/97LAMy9tPXbTUQV2M0QGtKZwumwIgtDVnGrChEYmwmEC/o1gvfviIOwX0VCjUqmwvuYnm8kxtzDdZCvcmOdQy4Wz2MyYzEbiscRIPPgHQavVoDfoybQpwzy+uCUUfhqiDTVi1TyHcds/t1IsFNlY8+PxOXv2sTAYReYWpuWOm2t+KpVK61PGwl9+G04egUursiMqgEFXIV9UkN8esOqI0WSoO7NOmNAvE+EwgVKpXM13cPbVAIl9KBoaCYei+DdDeKdc2B1yh8FWIyi1Ro3FaiIeG6+TZif0Bj3lUnlbRcVPg+FTJ6LVduWjqO4ZlHp55rSno0eI3WHFO+VicyM49tbSrfztj+HLT8Gv3AFHF0CSIFdQoNNU+Jf/qH2uTytqjRqPz4l/I0iptLfCecIbC+WC74Z/3vrghJ89isUSSGB3WEjEU62Hm9jPoqFGoVAklUjLraaNBvzBLPe8FQx6Ca0GzCYt8ZyFoD8sf/Y9xu6wUi5XiEWb98rfdwdoNbJw+MyfSFxaaTo8FLxTsgnS5phXnZVyBZtj/5T/FYslpue8SBWpKWdBoVDgm3Kj0WpYX9kcSdXETnj9Cvzpk/D9F+E//0/4mx9KqPVWfuHNSQJpDxevdM9XmJ7xEI8lSSS6f98nTGhlEnGYUCcaiVMqlXF7HK2H6rwRREONYrHE6rUNiqUS97zTgdMOIAAC0+4yb79ulVJ+/PvT7TAYxG175T/N0YYa0fDetNluRzQSZ33Vj2/Gg8Uqd+/UizrmDkxTLFXvpX0gMlvZCEK+KCcB/9vHY3zt7yz8znvj3HLzVOtT67g9Dkql8liTOif89DARDhOa8G8EEQ36tm2P30iioZGgP8yv3xlheXPLMyCdVZJIlXn7qaan7gmiqEdv0G0rw2y0l/5pFA00+Dn06wI6ajZW/ZSLJaamPdjsFmZmfUSCUYL7ICLSL//28Rj/8r/Z+Y13Vzh4aK71MGaLCdGgn+Q1TNgxE+EwoYlKRWJzI4jX50Sn29rrfaOKBgCPA0Rdmedf21ot2kx5wjGJeV/vLPpRozfoyGZyZBsqKlrtpd/ohk+diEUTxOPJPfdzqJFOZwkGI7z5tpuYPzDDtatrb8hQ/nPPr/Pfv6ng1E2eJvGg02nx+pxsbgSptGnZPmFCP0yEw4Rt5LJ5Av5w3d/hjSwaAApF0KghltjKgNepJY4vQkXae+EginqymVyT1XVrtOGNbvjUCUmSqvbTex9xMJuNzM77EASB5SurUE0cfqPy3PPrvPCSv/79perXEPCH2/ZCmTChXybCYUJbYtEEuWyeW2676Q0tGgCiCTi/LHDjMR0/uri176tRgyQpcHkcGE2GoThoDoqgEOTGVqnmMsyfNsOnbkSqeQ57cf3VGjVOt53Fw/OYLEZi0QSXzl/l/KtLOF02pmaG3z1znNS+twcPzXHLbTeRy+b3hWfJhDc2E+EwoSP+6jI3Hk++YUVDjX//FS0zLpizh7i2WX1QknBayxyZiiEI4HBasdrMY+2fYDCIaDTqJuOnXzz902n41IlYNI5e1GNzjG+7wmAUmZrxMH9gGkEQWL22wdrKZt050b8ZYm3Vz9SMF1EcXj+XveDypWvEq023at/pCRN2w6Qcc0JX1lf9lEtlnC4b+VzhDRu6dfpmeN1/gJdeDXPucoFoQuDIgjxBm8UKiVSR5dUcgiBHAESjHkEQKJXLjW0Bho7VZkahVDQl373vji3h8JkvCGyOOC9vr8oxaxTyRdweB5VyhUh4QNvDAVAq5dbp3ik3er2OZCLF5nqQdCrT1gCsVCzhm3IjKISRvq9RotNpmZ71Eg5GuXDuSuvhCRN2xCTiMKEn/s0Q8ViSuYWpttUW+x2b3cLUtIeNtQDf/mGab/wA/vs3t1byZqPA6Rth2i2RzeSIhGMk4ilUKhVujxOzxdS3MdagiEaxyfTphoYtitYeGz/NRCNxrCPqW6EXdXh8LhaPzKPVafBvBLl2da1nC/VYNFE3hdovJaODYLaYmFuYIh5LTiINE4bKRDhM6ItYNMG15XXsDktXn4f9yNSMh2xWtgiusRmCz/zJVtKh2Sjw7tNbvgnFQpFEPEnAH6JUKmG2GLHZLehFXf01dotKrUIUdU0206cbumD+tFZStCMWSWCzW5oqeXaLxWpidn4Kj89FsVBk6cIym+vBpuqVXqyv+clmc0ztsHvmXuH2OLA7LFxbXp/kNEwYOhPhMKFvctk8166uoVQpmZ33jWwVPky8U656tKF1wtgMwUf/oLnl9n2/0DxZSxWJTDpLOBglk86i1WpwexyYzAZUqt0l89X2zmv5DT8Lhk+diERiCIKw6zwHjUaNy+Pg0NEFDEaRSDjG1aUVIuFY2+2IXmQzuXrUwTu1g7aTY0atUTM770OpUnLt6tqkemLCSJgIhwkDUalIbKwFSCUzzC1MDdwYa5yoNWqmpj0E/CHWV2sZkc3IkYdm8dCYnNhIPl8gFk0QDsWQJLA5rFjtFrQ7XCUbjHI3zGK1jXZjCebjX2944s8AuWx+V90yjSYD07NeZuenkCSJ5StrrK/6t1Wr7IT11U0C/hBT0559LZaNJgNzC1Okkhk21gITn4YJI2MiHCbsiGgkzuZaALfHseOW3KNmatqN1WZmvccg+uQzzRP18cXmVtatlMtlUsk0QX+YXDaHKOpwuGwYjCIKRf9fKb2or7tFtho+PfnDzu/3pxW5W2b/eQ4qlRKH08aBxVlsdjPJRJqli8uEApG6GBsGlYrE+loAq83M1PT+LM90umy4PQ421wITG+kJI6f/UW7ChBbS6SzXrq6h1WmZmvHsSR1+J4wmA75pD+tr/r7sgh//K6lFPEj0s61dWykn4ikUCgVOtx2L1YSmx8pUq9Miijqy1f4Up2/62TB86kY0Kuc59IpiiaIe37Sbg4fmUKmUbKwHWFneIFEtORwFQX+Y9TU/vmlPz/c3TpRKJVMzHrQ6LdeurpFusS2fMGEUTITDhF1RKpVZW9mkkC8wf2Aag2F/1LxPTbtRKhWsr2wlRPbiyR82V1o0Jkv2olgokkykCAbCFAslTGYjDqcNUZTLOlsRRR2lUol0KovZKPxM2Ev3IhqOkc3m20YdFAoBq83M/IFp3F4HuWyeSxeW8W+GxraPv77iR6lU7Juog8GgZ/7ANIV8gbWVzTdsqfSENx4T4TBhKISCUYKBML6ZvS9dczht+GY8rK/6B+oz0K7SojVZshdSRSKTyRIORUkmUqg1Klxuu5xMqVbVn2eolmFWKhVua6ik+FmNNlAVofJ2hbX+mE6nxe1xsHh4AVHUEwpEuHp5lWgkTqWyZSE+DhKJVL17psO5t9tzNrsF34yHYCBMKBhtPTxhwkiZCIcJQyOZSLN8ZQ2jScQ75Wq70h4Hvmk36WSG9dX+ow012lVafPCunX2OQqFIPJYkHIpRqUhYbWasdgs6vRa9qCNdLcP8WbKX7kXNz8FsNjIz52NqxkO5XOHq5RXW1/x7HopfX/WTTmbw7VHUQRAEvFMujCaR5StrdafLCRPGifCOUx8YbEn1BuRjjzzIradP8vuf/BwvPHcWgFO3HOcTn/oITre9/rxMJssffuaPeeqJpxt+W6b1+Vcvr/LhDzxcP37Xvbfz0Y//P+3de2yTd5ov8G8S23F8S3y348QxJA10cIEJMFDOkNLuNqJJNaerpSBFq6Uns6oSLTuaZcVohE6qI5DQ7umcaGYXnaC5IDoaMaJlNMNMoRWd0pb2tGVoM7RN2zQkkIvv8SV2HCexczl/2O+L/cb264RcHPJ8pErgn/HPSd/38ePf7fk+u8Wu6y9f4FjbKbY9m47Odqg0ypTX4/aX7b0h8TM2PfcUACAWm8ZvX7mMc50Xc25fajq9GhJpCVzOkRUbSgaAcpMej317M774a0/KuQ0LdWAv8OP/cT9h+PAz4KPPH/xWKRYXQ6UuQ/Uj8fofm8pHUbcpCgD4vK8A/9ZRiFjsfhXPlbB9xxYAwO1Pv+Q2LSuhUACBUAChUAiRKP5njVaFPd+tw4c3PsHwoCMvPxiX6hpbKHFJMQxGLSLjE/DksG5nsfhiWUdnO+q+8xiQQ1wCz/O5cY4bV7NJF9fB0x8XX/98v4v16qEfcUj+wEy2fecWRGMxHGs9if07DmH/jkNo3Hck4wX2gx+1IByOYP+OQzjWehIymQQdne1A4uJ78Wgzerr7sH/HIZx+6Qw2W2twvL2V+zLzJF/kyX7woxYAYN9fT3cfXjzajLpdVu5T0dJ2GE82PI5f//J32L/jEK5duYGDzY1oaKrPqX05eNw+BPxBmC0mlJatzGmTxcUiGCt0cNjcDxzQuTst9m7LvtMiV1OTU4hGo4mpHT9qKu+v/v/4KwXMFhNqN2+ApboSpkoD9AYNu2BQLC5e0K6N1VZYWAixuBgyuRRKVSn0Bg1MlQZYqitRu3kDzBYTNFoVJNL4oVqR8Un03xnEQP8wJiKTeZk0IHEoVHzKQrdidU1Ky+QwW0wI+IPLmjTwxbKOznY89u1H2Vhy6cJV/POxIxljyfH2Vmy21uD0S2fSxrFscTWbTHGdrz+ubP3z/S7Ws7UThRaooakeV99/BQ1N9Wk/RNQaJaJTsZRMlVG3y4pLb5xlL6CWtsPQGdS4cf0mAKDrVjdufngbZosJdbus+JsD34VEVoI3X38PAHDtyg30dPdhy9balNdN1tJ2GG99fAGbrTXwevzz2nQGNa7+8R32/R1rO4WDz7Si61Y3+7MxF3D9U7vhcfnYEYS33/wAkfAEttV9K6f25RIcHcPQPTvKlAroDfES3cvJWKGHXC5b1BRFOuf/NJdyCFOuOy34SKUSjIXCqK2MQSG5P4px4U+j6L8ziL7eATiGXRgNhBCNxiAQCqAolcFQrsXGR8yorq2C2WJCuUnP7uKQSktW5YwBoUgIqbQEpWVyaHQqGE06mC0mVNdWYeMjZhjKtVCUyiAQChCNxjAaCMEx7EJf7wD67wxieNABl2ME3pEAQsExTEQm4XZ5V32dDB+HzQ25XAbjUlwQPPQGDcqUCgzdix+TvZyyxbK6XVaYLSZ88dev2VhyrvMiAv4gDjz7BJD44Gbibt0uK3bv3Y6e7j72C9mbr78HoUiI7Tu38MbVdLLFdb7+ViKurxcPbeIAAB+/34Wn9zTDZfdwm2As10KlLsW7n76Kdz99lb0YkbiADj7Tyg5JMQuhbENO9t/7vAFIZCXYvnMLjOVaRMITKQmA0zECnUGdMRMHgMuXrqFx3xGEuSWVt9YiEp7A7U/SDx1fu3IDjfuO4OVTZ1G3ywqZTAK/9/4Cqa5b3QiHI+zNnq19uU1OTmFowIGCwgJUVpXzblNcLIVCBlOFHg6bC76kn/VBnf/T4ndapFNUVASJVIzI+ETK8dLJh1DNzs4hGo1hPBxBwB+MbwW0uTFw14a+bwYw0G+Dx+1FeGwcszOzEJeIodKUoaLSgNpHN2JDdSUqzEbojVqo1GWQK6QQlxQvartsUVERxCXFkCukUKnLoDdqUWE2YkN1JWof3YiKSgNUmjKIS8SYnZnF+FgEHrcXA/2J93rXBoctviU24A9iPBxBNBrLeq7GaCAIpboUwqTFpPnG5w3AYXPBVKGHQiHjNi8JkUiIyqpyFBQWYGjAgcnJ5Z/yyxbLdu6JX7BOx/xiaKpEjHz51Fl25FajU0EiK0l5PnPGhnVrLW9czSRTXOfrb6Xi+nrw0CYO167cwMkTP+M+zFIlRhySpwJ++OPvZ7wguBeQbciJWPT+XHQ4HEkZvfB5AyntXOc6L+LMT85zH2aFwxH8Q8vfsYnNpTfiSUIm3Js5OVFADu3LaW5uDi7HCMJj4zBvMEGuWPp98MbEIjpHmiTxQSzFTotkEqkYAoEAVdrxRR8vPTMzg8mJKYRCYfh9o3A7RzA86MS9/mH0fn0XtmEXAr5RTE5MorCoEHK5DDq9BpbqCtRssqBqgwnlFXpo9WqUKRWQyiWQyiUoUyqg1avZctM1myywVFdAp9dALpehsKgQkxOTCPhGYRt2offru7jXP4zhQSfczpF4cbBQGJMTU4s63pkR8IdQXCxCWb6POtg9mJmZXZZRB7lCCvMGE8Jj43A5RrIW41pqmWLZwF0bhgbseLLh8ZRpUFOlIelfp4pFp1MSeeZLC4MvrnLxxXW+/rj4+s/0u1jvHtrEgc8Lzx9jh/4B4Dfnfo9IeIIdclttlo0VAMCuvwiHIzhx8mjW5CHfBfxBOIbd0GhVKYtSH5RGp4KpQg+n3Y3w2NLPi6fbaZHpWGo+JZL4MdO1Vfc/WBeSNOQiFo1hfHwCwdExeD1+OOxuDA3Y0d87iLt3huB2ehEKhjEdm0ZxsQgSiRgSiRjFxSJMx6YxFgrD7fTi7p0h9PcOYmjADofdDa/Hj+DoGMbHJ5b0ZEau8Ng4Av4QlMr55znkk/DYOJx2N0wV8SmjpaLRqaDRquAYdufdKZDH2k7B4/LhxMmjePfTV9H4vSfxzVf93KeRh9y6TRy4+DJTiawkJThUmI0Qiu4PpcpkkpQPdbVGCaFIAOu2Tbj6/is5jxwwBu7aUlbv3rh+M+sQnpFTgIcZOmTwta+USGQCQwMOiERCmCoND1woqrCwAKYKfXzufIlHG5Jxa1rwHUudiURaApkwuGoHPs3OzmJycirx4RyE2+XFiNuPEbcfbpcXAX8QY6FxTE5Orfg5CclG/cG8H3FAYtRhNBCCqUKPwsKFXw/JBIIimCoNEImEGBpwIJI4VXSlZYpljBeeP8Z+oTn4TCtkcmnGEUyhSJBy5gUzdcrIFlfPv9bBxs23Pr6AlrbD7PMy4euPK1v/yOF3sV6ty8SBu7gQSRcYd0gfieEpJC4qhlqjZNchOB0j8y5AY7kWHpcPHad/gcZ9R1JutOShr3ScjpF5F2wmTMKTnAgwP8uXn/fytq+GmZkZOGxuTE5MoWpDBaRZbmw+5RUG6PQaOOzuZf0WjCXYaSEUCSGRiFGlu5+grucDn7IJBIJQLXEZ8+UQi8bgsLuh02tQXpF5yJ6PVCZB1YYKTE5MwWFzP9BUz4PIFsvS7ThraKqHzqBOGze9Hj8i4YmULy0anQpCkRDdn/fyxtXkBOXpPc2828f5+uPi63+hv4v1ZF0mDteu3IDH5cPuvdvZD+d/aPk7ILHjgOtc50V4XD7UP7UbSFq9OzRgR9etbnaXAjPN0dBUj83WmkV/MDPvgXlPSOyMyLRg8sb1m9AZ1GxGzqwG/qzrq5zaV4vPG4Db5YWhPL6Ib6FKJGIYTTo47G640gSu5ZB8LDUWuNNCIhFjbg6oTdqCud4PfMpk1B/CzOwslIuslrmSXI6RRB0L3aISHZW6DIZyLdwu75Iu7F0MvljW0dmeMmra/MJziIQn0sZNZpfCZmsNuybiwLNPIBaN4fYnX/LG1YXi64+Lr3++38V6ti4OgOrobIfZYpp3UMj51zrYtQTJB4XUJQ4FGRqws9MFzGNM9rmUB4Wcf60DSAwBMrj9eT1+9v0zfb1z7SO8fOoskMMBT3ztq0koFEBv1GJmZgZu50jWFffJqh+pgqnSgC9u96zoXLBBA/z03wrA7DANhedw8a0ChMLZ37fRpMde6zgsuvg6jDc/TJ3+WC2rdQAUn117tmF8PIKvvrjDbco7SlUpHtu+GfZhF/rvDHKb0yosLIDeqEVRURHczpEVP/grE75YliluIhFnnmx4POWxbAcyceMcN65mkymuZ+pvpeP6w2xdJA5kbdDq1ZDKJHA7RzARmeQ2pyhTKmDdtgku5wj6vhngNi+7dMnDL37PfVaq6toqPLd7iP37D19GyujFasnXxKFmkwV6gwb/771PuE15qWaTBQajFt2ffYPRQIjbnKJEIobeqMV4OJJT9VZC8sm6nKog+WnE7YPfO4pKsxFlPCvqjSY9YrFpOJfosKeFWuhOC3FJMWpM8aOlgXjCkA9JQz4b9QdRpixdtnMSlprT5kYsNg2jKfvcVZlSgUqzEX7vKCUNZE2ixIHklVBwDIP37FCUyqE3pu4EYegNGpQnjpZezaJHC9lpIZGUYKPu/ipIWtvAL+APITIeWRO7KwBgfHwCDpsb5RW6jCel6o1aKErlGLxnRyi4vKdAErJcKHEgeWdqKoqhATsAwGwxpdQDEAiKYDTp4RsZXbKjpR9Eup0WW5KqXTK2bJyDRHR/Dnupz254GM3MzMTPc1BlH33KJw6bG76RURhN+pStxsXFIpgtJgDA0IAdU1P3R58IWWsocSB5y+0cQSg4BrPFxA5XG016qLVlcNhcq7ZljYu702LvVqTstCgoKMDGpGmK5ESDZDcaiJ/n8KBnJKyU+FZjF9TaMnbKQqGQwWwxIRQcg9u5Mrt/CFlOlDiQvDYaCME27IRKq4wXdqrQw2HzLGuFwIVKdyx1ck2LGnMxNPL7iz3f/IjWNuQq4A+itFSOsjWwLZPhcfvgsHlQXqGH2WKCSquEbdjJu2CSkLWCEgeS9yYikxi6Z4eiVAa9QYPwWBgFBfn1DTTdYkmmpsXux1KPl6YDn3IXHB1DwB/M+2qZyQoKChAeC0Nv0EBRKsPQPTvvLiFC1pIii3HL/+I+SEi+mZubg8ftg9MxAqFAAL1RgyJBEWamZ/JmyiIcAW5/U4AD/y3+92IhsGdrAeTixNHNBcD//L9zyHKy+aowlOsAAK48HUZXlMogk0vgXMYjxZdCcbEIKk0ZjCYdopMx9Pbcw/CgY0ULVBGyEmjEgawpoeAYHHY3Bu/ZMTc7iwqzERVm47JU3FyM271z8TUMBQAKClBYyPwZiMXmEKU1cQsW8AehVJYuW0n2ByVXSNnrcG52FoP34kXBaNcEeVhR4kDWpFg0Bu9IAP13BhEaHUOZUoGNNeZ4ERrh6hah+eSrOYyFE1MpSV8279qB7z2RX1Msa8GoPwihSJhX0xVCYbyY0sYaM8qUCoRGx9B/ZxDekcCy10whZLVR4kDWvFAojOFBJxw2NwSCIlg2VsJo0kEqjR8Tu9KMWsDumcOw637WMOyaQ7+tAEn1dEiOxscnEMiTaplSaQmMJh0sGyshEBTBYXNjeNCJUCjMfSohDy1KHMhDY3JyCm6XF/13BjA5MQWNToWqDSYoV3g7n2MEKJMBb35UgPGp+F7+L+8CWjUw6KD57sWIT1esznkOhYUFUKpKUbXBBI1OhcmJKfTfGYDb5cXk5BT36YQ89ChxIA+d2dk5BPxBDN6zw+vxQ1xSjOpH4nUPxOJi7tOX3Jf9wIAL+M6WQnwxXI5wBBAJgEcqgD+u72q8izaaGHFYyVEksbgYeoMG1Y9YIC4phtfjx+A9OwL+YM6F2Ah5GFHiQB5q4+MTcNo9uNc/hOnpGRhNOlRWGZe9/sGP/3MOnrFibK9yolgEyKUFOPZ/5kBb+Rcn4A9iZnpmRaYrFAoZKquMMJp0mJ6ewb3+ITjtnlU93pyQfELVMcm6I1dIoSiVQywuRjA4huDo2LIsaLNu2wSxuBif3Pyc25RX8rU6JtfO3VsxOTmF7s++4TY9MKFIiNIyOUpL5ZicnEIoOIaxULz8OSEkFY04kHVnLDQO+7ALtiEnCgoKULUhfiKlVCbhPvWBlCkVCASC3IfJIgUCQd6qqQsllUlQXqFH1QYTCgoKYBtywj7soqSBkCwocSDr1tRUFCNuH/p7BzEejkCtUcJSXQmlqhRFRfcLFC2GolQOpaoUAR8lDksl4IufIKkolXObFqSoqAhKVSks1ZVQa5QYD0fQ3zuIEbePik8RkgNKHMi6Nzc3h+DoGIYG7HA7R1AsFqG6tgp6oxYlEjH36TlRqUsxFhrHKI04LJnRQBBjoXGo1Itb51AiEUNv1KK6tgrFYhHczhEMDdgRHB2j0x0JWQBKHAhJMhGZhMsxgv7eQcSiMeiNWlRWlaO0bGHfcsuUpQgEaPX9UpqdnUtMVywscSgtk6Oyqhx6oxaxaAz9vYNwOUaofgQhi0SJwyo63t6KS2+cRd0uK7cJANDQVI+r77+C4+2t3CZW3S4rLr1xFu9++ire/fRVnH+tI6WdeQ2mvaOzPaU9m47O9nmv19J2GG99fIF9vXR9JuPr/3h7K9v21scX0NJ2OKV9tczMzMDvG8VA/zAC/iCkMgmqa6ug1at5jz4uLCyEUqXAqJ9GG5baqD8IpUqBwsLsoUskEkKrV6O6tgpSmYT9f+n3jeZNbRNGQ1M9Lr/9q3nX/kLvjY7Odvb5V99/BQ1N9WwbX5zIJlucShcjuPj65osRJP9kv/vIsjne3oqm557iPpyi+YXnIJFk37f+gx+1IByOYP+OQzjWehIymYS98ep2WfHi0Wb0dPdh/45DOP3SGWy21mRNRBgdne2o+85j3Idh3VqLL/76NfbvOMT+98Lzx7hPA3Lov6XtMJ5seBy//uXvsH/HIVy7cgMHmxtTAl4+CI+Nw2FzY2ggXrCosqocpkoDZPL09TGUqlJIZRJa37AMAr54Epfp+GmZXApTpQGVVeWYm5vD0IADDpsb4/lWWSyhoakeP/zx9yHhnE+x0HvjeHsrNltrcPqlM9i/4xB6uvvw4tFm9sM+W5zIJlucyhQjuLL1zRcjSH6ixGGFMdl1Q1M9HHY3t5l1vL0VMpkEkcj9veNM5s7cdC1th6EzqHHj+k0AQNetbtz88DbMFhPqdlnxNwe+C4msBG++/h4A4NqVG+jp7sOWrbXsa3IxIwqbrTXwevzcZqg0Sjgd6asockdI+Pqvf2o3PC4fznVeBAC8/eYHiIQnsK3uW0mvmj9i0Ri8Hj/67wxiLDQOpUqBDYkFdgLB/cWUSnUpAoEQHUO8DEKhMAKBEJRJ6xwEgiKoNUpsqK6EUqXAWGg8XjfC41+WbbZL5fxrHThx8ihGAyHEYqnvk+/e6OhsZ0cB6nZZsXvvdvR09+HalfgJY2++/h6EIiG279zCGyfSyRanssWIlYhRZPVR4rAKPn6/C0/vaYYrQ5nghqZ67N67HVcuX095vOtWNw4+04pjbacAAGqNEgBgG3Kyz/F5A5DISrB95xYYy7WIhCdSbm6nYwQ6gzrjNxcAuHzpGhr3HUGY8y2tbpcVomIhnmx4PO2w47UrN9C47whePnUWALL2/+K/NEMmk8DvDbBtXbe6EQ5H1kTQCAXHMDzohNPhgUBQhI01ZhhNOkgkJVAqS2maYhmNJqplSiTxuhEba8wQCIrgdHjidSPWSFVKh82NY60n8ec3Pkh5vG6XlffeONZ2CgefaUXXrW5odCpIZCUpCT2TNFm31vLGiUyyxalMMWKlYhRZXZQ4rLBrV27g5ImfcR9OceDZJzA0YId92MVtmod709mGnIhFp9m/h8MRdN3qZv/u8wZS2rnOdV7EmZ+c5z4MANDoVChTKthhRWbYkTtnmYyvf+7oRXKwXAsmJ+L1Mfp6BzE5MYUKswEVZgMEQgE0WiUUpXKUSMSrXrFzLRMKBSiRiKEolUOjVUIgFLC/58mJKfT1DsbrRkysrboRJ/71P1LuDa6F3Bux6DR8aRINBl+c4MoWp7LFiHT4+uaLEST/UOKQZ1raDsNg0uE3537PbVp1zIgC822i61Y3rv7xHegMat6FWw+72dlZBPxB9Pbcw/vv/AVOW3x4VyorgUargtliwiObNsBSXQlTpQE6vRpKVSlkcimKi0W8i/0eZoWFhRCLiyGTS6FUlUJv0MBUaYCluhKPbNoAs8UEjVYFqSy+DsBpc+P9d/6C3p57iboRs9yXJIQso/UbrfJQ3S4r/vaZ7+LPb3yQ9ZtIMomsBBqdiv17hdkIoej+t1uZTJIyj6nWKCEUCWDdtillJXOmVdN8uN8euDL1zzCWa9k/I7GGYq3zjgTgcfvgHQnAafdgeNCB/juD6L8zAKfNnZjTnoZQKICiVAajSYfqR6pQXVsFs8UEo0kHjU6F0jI5JJISCHl2cawFQpEQUmkJSsvk0OhUMJp0MFtMqK6tQvUjVTCUa6EolUEoFCAajWE0EILT5kb/nQH03xnE8KADTrsn5Xf7sFvIvSEUCdhpASRNdzCyxYnzr3UsaPfGQmXrGznECJJ/KHHII9t3boFWp8Y//tPf491PX8WJk0chkZSg6bmn0q6AZoYmK8xG9jG1RolIeAK3P/kSTsfIvJvWWK6Fx+VDx+lfoHHfEXZnBDNfms3x9tZ527yYvpPnMBnZ+v/5f11AOBxJCYZMsPvy8172sYfJ7OwcpqaiGA9HEPAH4XH74LC5MXDXhjvf3MPgXRs8bi/GxyKYm52DuEQMtbYMlWYjah/diA3VlagwG6E3aqFSl0GukEJcUvzAp1wuhaKiIohLiiFXSKFSl0Fv1KLCbMSG6krUProRlWYjVJoyiEvEmJudw/hYBB63F4OJn33grg0Omxsetw8BfxDj4QimpqLr8hwMZpoh13vD6/EjEp5ISTQ0OhWEIiG6P+/ljRMvPH+MjQNP72lmF2QuBb6+s8UIZqEnyT+UOOSRc50X8fSeZvYmPv3SGUQiE7jyh+vs9AD3+R6XD/VP7QYSwWX33u0YGrCj61Y3uxL7wLNPAIlFl5utNWmDTy4+6/oKSKzBQKK/xu89if7egbQ3OV//N67fTJnmYFZYM/2sN9PTM5icmEIoFIbPG4DbOYLhQSfu9g3hTs892IZdCPhGMTU5hcKiQsjlMugNGliqK1CzycLW3NDq1ShTKiCVSSASCVFQUMDtasEKCgogEgkhlUlQplRAq1ezNR5qNllgqa6A3qCBXC5DYVEhpianEPCNwjbswp2ee7jbN4ThQSfczhH4vAGEQmFMTkxhejq/zlTIFwu5N5idCputNWxSf+DZJxCLxnD7ky9548Ry4uubL0aQ/ETVMVdRR2c7zBYTTr90Ju0NzOzxfufaR3j5VHwq4cTJoxgasLOJBPMYk7EP3LWlnKvA7hNPnAfR9Zcv0iYh6TCLHrO9XnJ/3Peb7vnc/pP3icdi0/jtK5eX9BvPelFYWAiRSAihSACBQJD4sxACoQAioQDT0zOIxaYRi8UQi04n/TkG67bNAIDuz3ogFAkhFAohFAogFAnYPwsERYjGpjEdm0YsGkM0GsP09DRi0WlEozFaZ/AAWtoO42BzIy5duJpy7We7N9LFjuRzFSKRCfz033/FJvR8cSKbdH0xuDFipWMUWR2UOBCyDgiF8SRAIBRAJBLEk4pEgvGotQYA8HV3X1JCEEM0mkgUYjHEYpnXsRBC1hdKHAhZ5woL41MZ63E9ASFk4WiNAyHr3OzsHCUNhJCcUeJACCGEkJxR4kAIIYSQnFHiQAghhJCcUeJACCGEkJxR4kAIIYSQnFHiQAghhJCcUeJActbQVI/Lb/9qXhGc4+2tbJEcbi2LdDo62zM+v26XFZfeOMu2ZyvZzXW8vTVrsa6Gpnpcff8VHG9v5Tax+PpnXoNpT1dDhKyubNdBR2f7vP+nXMt5DaTrn/t63HYu7vO5/Sffj8tRtIoQShxITthjYaXxY2EZx9tb0dBUj1//8nfYv+MQerr78OLR5rRBG4nnb7bW4PRLZ9I+/wc/akE4HMH+HYdwrPUkZDLJvMCYTvLxvJk0v/Ace6xtJtn6r9tlxYtHm9HT3cfWEtlsrcmaiJCVle06SD6SOZvlugbS9c/cV8zrcfvj4uu/pe0wnmx4nL0fr125gYPNjbzJPCELQYkD4XX+tQ6cOHk0UQ46ltK2ZWst7MMu9gz97s97IZGVYPvOLUAiWDLf/uoSBW56uvvYM/TffP09CEVCbN+5BS1th6EzqHHj+k0gqXiP2WLKmIgw374amurhsLu5zazj7a2QySSIRCbYx5hvlkyQ5uufKTT05uvvAQCuXbmBnu4+bNlay74mWR3ZroOWtsN46+ML2GytgdfjT2lbiWsgW//b6r4FJO4DpOmPO0rG13/9U7vhcfnY+5EpIsX0Q8hSoMSB8HLY3DjWehJ/fuMDbhNeeP5YSsEa69ZatmQuABxrO8WW7NboVJDISuB0jLDP93r88UJLW2uhTpQRTi7R7fMGUhKRdD5+vwtP72mGy+7hNgGJD5Xde7fjyuXrKY933erGwWda2YI6fP0by7WIhCdSgr/TMQKdQU3f6PJAtuvg8qVraNx3BOFwJOXxlboGMvX/8qmzaNx3JKW6bHJ57GtXbqBx3xG2aFy2/l/8l2bIZBL4E6WskVSiO1tiQ8hCUeJAeJ341/+YVxWPi5lXfezbj+LqH9/J+PxYdBq+NIGNwQ2KtiEnYtHMBZauXbmBkyd+xn04xYFnn8DQgB32YRe3aR6+/sPhSMrP5vMGsr4/sjKyXQfnOi/izE/Ocx/OaKmvgYX035AoK33zw9sZ7yG+/pMTcwApiQQhS4ESB7IkXj51Fvt3HMLLp87iYHNjTnO+K6Gl7TAMJh1+c+733CZC8gqz3sHj8rEjDITkI0ocyJK6duUGPC5fxqFRoUjADgcjMccsk0nYv0tkJdDoVOzfK8xGCEUCILHWYiGrxet2WfG3z3wXf37jg4zf3riy9Q8AMpkkZb2FWqNMaV+ohgw7VZJ3nvD9rMw8faZV+Xzt2aTbBcB9vUwL+RhrbRfAYq8B67ZNKT9npp0d6SQnDclTf+lk6p+RPNUBAKqk+42QpUCJA1k07sIyPl6PH5HwREpg0+hUEIqE6P68l53CqDAb2Xa1RsmumXjh+WPYv+MQ9u84hKf3NLMLwDLZvnMLtDo1/vGf/h7vfvoqTpw8ComkBE3PPZX2PfP173SMzPtQMZZr4XH5Uuaoc8V8WHB3qnR0tqfsPOFbGZ9tF0Au7Zmk2wVQt8uKEyePsq/HXdXPVbfGdgE8yDXQcfoXaNx3hL1GmbU9fFraDuN4eyt6uvt4k4Zs/f/8vy4gHI6kJApMYv7l573sY4Q8KEocyKIxK8A3W2vYQH+8vRWmSgO7Kp3v+QeefQKxaAy3P/kS5zovwuPyof6p3UAi6O3eux1DA/acAjDXuc6LeHpPMxvIT790BpHIBK784Tq7GI77/Gz9MyvUDzz7BJA0H72YoJxpp0rdLivMFlPKzhPuyvjknSp8uwD42tPJtgtg+84tkMhK2NfjjjBxk8m1tgtgJa8BJP79weZGfPHXr9Nek1x8/d+4fhM6g5odtWF+/591fZXyOoQ8CEocyAN5+dRZ9HT34cTJo3j301fR0FSP375ymf0gSP6QS/f8zdYa/PzMBTYx+M//fQ4ymSQ+pH32JYTDkZwC6mJwP+TA03/XrW78/Ez8A5UZwejp7lvUfHSmnSpdnFX+SIzKSGT3RyWSd6rw7QLga88k0y6Ac50X0bjvCPv/t6GpHjqDmv3g4r7/fN8FsJrXABKJs0RSgrrvPMZOcbybdDAaM83DjNDw9X+u8yLeufYRO8rW0FSPSxeuLmpEjJBMCp6oe36O+yAhZGW0tB3GweZGXLpwNePUS0dnO8wWE06/dGbeyMvx9lbs3rs9pa2hqR7/fOwILl+6BrVGmbU9U58MZn0DdwidmbLQ6FQYuGub187o6GyHSqNMaW9pO4z/frABV/7wNhoa63Hzw9spH7zp/g0hJH/QiAMheayjs513i+tqYEYW9u84BL83sKCFgISQtY0SB0LyFJM0JE/9pMNdLMfdBZCtfaE7VdLhnhbKRbsACHm4UOJASB46/1oHNltr8PKps1mTBr5dAHztC92pcry9dV5hsmxoFwAhDx9KHAjJMx2d7dAZ1Pjpv/+Kd1Eb3y4AvvaF4q7qr9tlReP3nkzZGZHt+bQLgJC1jxZHErKKuIsjG5izHdJU8ez6yxc41nZq3mLJ5IWKAOYtVuRrzybd4kjue0x+PaavoQE7uxOB+3zm52AkV7SMxaZ5p2YIIauLEgdCCCGE5IymKgghhBCSM0ocCCGEEJIzShwIIYQQkjNKHAghhBCSM0ocCCGEEJIzShwIIYQQkjNKHAghhBCSM0ocCCGEEJIzShwIIYQQkjNKHAghhBCSM0ocCCGEEJIzShwIIYQQkjNKHAghhBCSM0ocCCGEEJIzShwIIYQQkjNKHAghhBCSM0ocCCGEEJIzShwIIYQQkjNKHAghhBCSs/8PgiBSChL5PZoAAAAASUVORK5CYII=;" vertex="1" parent="OAs59v_ub1j7-5ITEAdP-4">
          <mxGeometry x="15" y="37.5" width="526" height="425" as="geometry" />
        </mxCell>
        <mxCell id="OAs59v_ub1j7-5ITEAdP-35" value="" style="group" vertex="1" connectable="0" parent="1">
          <mxGeometry x="180" y="550" width="890" height="360" as="geometry" />
        </mxCell>
        <mxCell id="OAs59v_ub1j7-5ITEAdP-6" value="Table" style="swimlane;whiteSpace=wrap;html=1;fillColor=#dae8fc;strokeColor=#6c8ebf;" vertex="1" parent="OAs59v_ub1j7-5ITEAdP-35">
          <mxGeometry width="890" height="360" as="geometry" />
        </mxCell>
        <mxCell id="OAs59v_ub1j7-5ITEAdP-7" value="" style="shape=table;startSize=0;container=1;collapsible=0;childLayout=tableLayout;fontSize=16;" vertex="1" parent="OAs59v_ub1j7-5ITEAdP-35">
          <mxGeometry x="20.5" y="60" width="849" height="120" as="geometry" />
        </mxCell>
        <mxCell id="OAs59v_ub1j7-5ITEAdP-8" value="" style="shape=tableRow;horizontal=0;startSize=0;swimlaneHead=0;swimlaneBody=0;strokeColor=inherit;top=0;left=0;bottom=0;right=0;collapsible=0;dropTarget=0;fillColor=none;points=[[0,0.5],[1,0.5]];portConstraint=eastwest;fontSize=16;" vertex="1" parent="OAs59v_ub1j7-5ITEAdP-7">
          <mxGeometry width="849" height="40" as="geometry" />
        </mxCell>
        <mxCell id="OAs59v_ub1j7-5ITEAdP-9" value="ID" style="shape=partialRectangle;html=1;whiteSpace=wrap;connectable=0;strokeColor=inherit;overflow=hidden;fillColor=none;top=0;left=0;bottom=0;right=0;pointerEvents=1;fontSize=16;" vertex="1" parent="OAs59v_ub1j7-5ITEAdP-8">
          <mxGeometry width="122" height="40" as="geometry">
            <mxRectangle width="122" height="40" as="alternateBounds" />
          </mxGeometry>
        </mxCell>
        <mxCell id="OAs59v_ub1j7-5ITEAdP-10" value="Ticker" style="shape=partialRectangle;html=1;whiteSpace=wrap;connectable=0;strokeColor=inherit;overflow=hidden;fillColor=none;top=0;left=0;bottom=0;right=0;pointerEvents=1;fontSize=16;" vertex="1" parent="OAs59v_ub1j7-5ITEAdP-8">
          <mxGeometry x="122" width="121" height="40" as="geometry">
            <mxRectangle width="121" height="40" as="alternateBounds" />
          </mxGeometry>
        </mxCell>
        <mxCell id="OAs59v_ub1j7-5ITEAdP-11" value="Interval" style="shape=partialRectangle;html=1;whiteSpace=wrap;connectable=0;strokeColor=inherit;overflow=hidden;fillColor=none;top=0;left=0;bottom=0;right=0;pointerEvents=1;fontSize=16;" vertex="1" parent="OAs59v_ub1j7-5ITEAdP-8">
          <mxGeometry x="243" width="121" height="40" as="geometry">
            <mxRectangle width="121" height="40" as="alternateBounds" />
          </mxGeometry>
        </mxCell>
        <mxCell id="OAs59v_ub1j7-5ITEAdP-20" value="Price" style="shape=partialRectangle;html=1;whiteSpace=wrap;connectable=0;strokeColor=inherit;overflow=hidden;fillColor=none;top=0;left=0;bottom=0;right=0;pointerEvents=1;fontSize=16;" vertex="1" parent="OAs59v_ub1j7-5ITEAdP-8">
          <mxGeometry x="364" width="121" height="40" as="geometry">
            <mxRectangle width="121" height="40" as="alternateBounds" />
          </mxGeometry>
        </mxCell>
        <mxCell id="OAs59v_ub1j7-5ITEAdP-23" value="Time" style="shape=partialRectangle;html=1;whiteSpace=wrap;connectable=0;strokeColor=inherit;overflow=hidden;fillColor=none;top=0;left=0;bottom=0;right=0;pointerEvents=1;fontSize=16;" vertex="1" parent="OAs59v_ub1j7-5ITEAdP-8">
          <mxGeometry x="485" width="122" height="40" as="geometry">
            <mxRectangle width="122" height="40" as="alternateBounds" />
          </mxGeometry>
        </mxCell>
        <mxCell id="OAs59v_ub1j7-5ITEAdP-26" value="Type" style="shape=partialRectangle;html=1;whiteSpace=wrap;connectable=0;strokeColor=inherit;overflow=hidden;fillColor=none;top=0;left=0;bottom=0;right=0;pointerEvents=1;fontSize=16;" vertex="1" parent="OAs59v_ub1j7-5ITEAdP-8">
          <mxGeometry x="607" width="121" height="40" as="geometry">
            <mxRectangle width="121" height="40" as="alternateBounds" />
          </mxGeometry>
        </mxCell>
        <mxCell id="OAs59v_ub1j7-5ITEAdP-29" value="Strategy/Wallet" style="shape=partialRectangle;html=1;whiteSpace=wrap;connectable=0;strokeColor=inherit;overflow=hidden;fillColor=none;top=0;left=0;bottom=0;right=0;pointerEvents=1;fontSize=16;" vertex="1" parent="OAs59v_ub1j7-5ITEAdP-8">
          <mxGeometry x="728" width="121" height="40" as="geometry">
            <mxRectangle width="121" height="40" as="alternateBounds" />
          </mxGeometry>
        </mxCell>
        <mxCell id="OAs59v_ub1j7-5ITEAdP-12" value="" style="shape=tableRow;horizontal=0;startSize=0;swimlaneHead=0;swimlaneBody=0;strokeColor=inherit;top=0;left=0;bottom=0;right=0;collapsible=0;dropTarget=0;fillColor=none;points=[[0,0.5],[1,0.5]];portConstraint=eastwest;fontSize=16;" vertex="1" parent="OAs59v_ub1j7-5ITEAdP-7">
          <mxGeometry y="40" width="849" height="40" as="geometry" />
        </mxCell>
        <mxCell id="OAs59v_ub1j7-5ITEAdP-13" value="" style="shape=partialRectangle;html=1;whiteSpace=wrap;connectable=0;strokeColor=inherit;overflow=hidden;fillColor=none;top=0;left=0;bottom=0;right=0;pointerEvents=1;fontSize=16;" vertex="1" parent="OAs59v_ub1j7-5ITEAdP-12">
          <mxGeometry width="122" height="40" as="geometry">
            <mxRectangle width="122" height="40" as="alternateBounds" />
          </mxGeometry>
        </mxCell>
        <mxCell id="OAs59v_ub1j7-5ITEAdP-14" value="" style="shape=partialRectangle;html=1;whiteSpace=wrap;connectable=0;strokeColor=inherit;overflow=hidden;fillColor=none;top=0;left=0;bottom=0;right=0;pointerEvents=1;fontSize=16;" vertex="1" parent="OAs59v_ub1j7-5ITEAdP-12">
          <mxGeometry x="122" width="121" height="40" as="geometry">
            <mxRectangle width="121" height="40" as="alternateBounds" />
          </mxGeometry>
        </mxCell>
        <mxCell id="OAs59v_ub1j7-5ITEAdP-15" value="" style="shape=partialRectangle;html=1;whiteSpace=wrap;connectable=0;strokeColor=inherit;overflow=hidden;fillColor=none;top=0;left=0;bottom=0;right=0;pointerEvents=1;fontSize=16;" vertex="1" parent="OAs59v_ub1j7-5ITEAdP-12">
          <mxGeometry x="243" width="121" height="40" as="geometry">
            <mxRectangle width="121" height="40" as="alternateBounds" />
          </mxGeometry>
        </mxCell>
        <mxCell id="OAs59v_ub1j7-5ITEAdP-21" style="shape=partialRectangle;html=1;whiteSpace=wrap;connectable=0;strokeColor=inherit;overflow=hidden;fillColor=none;top=0;left=0;bottom=0;right=0;pointerEvents=1;fontSize=16;" vertex="1" parent="OAs59v_ub1j7-5ITEAdP-12">
          <mxGeometry x="364" width="121" height="40" as="geometry">
            <mxRectangle width="121" height="40" as="alternateBounds" />
          </mxGeometry>
        </mxCell>
        <mxCell id="OAs59v_ub1j7-5ITEAdP-24" style="shape=partialRectangle;html=1;whiteSpace=wrap;connectable=0;strokeColor=inherit;overflow=hidden;fillColor=none;top=0;left=0;bottom=0;right=0;pointerEvents=1;fontSize=16;" vertex="1" parent="OAs59v_ub1j7-5ITEAdP-12">
          <mxGeometry x="485" width="122" height="40" as="geometry">
            <mxRectangle width="122" height="40" as="alternateBounds" />
          </mxGeometry>
        </mxCell>
        <mxCell id="OAs59v_ub1j7-5ITEAdP-27" style="shape=partialRectangle;html=1;whiteSpace=wrap;connectable=0;strokeColor=inherit;overflow=hidden;fillColor=none;top=0;left=0;bottom=0;right=0;pointerEvents=1;fontSize=16;" vertex="1" parent="OAs59v_ub1j7-5ITEAdP-12">
          <mxGeometry x="607" width="121" height="40" as="geometry">
            <mxRectangle width="121" height="40" as="alternateBounds" />
          </mxGeometry>
        </mxCell>
        <mxCell id="OAs59v_ub1j7-5ITEAdP-30" style="shape=partialRectangle;html=1;whiteSpace=wrap;connectable=0;strokeColor=inherit;overflow=hidden;fillColor=none;top=0;left=0;bottom=0;right=0;pointerEvents=1;fontSize=16;" vertex="1" parent="OAs59v_ub1j7-5ITEAdP-12">
          <mxGeometry x="728" width="121" height="40" as="geometry">
            <mxRectangle width="121" height="40" as="alternateBounds" />
          </mxGeometry>
        </mxCell>
        <mxCell id="OAs59v_ub1j7-5ITEAdP-16" value="" style="shape=tableRow;horizontal=0;startSize=0;swimlaneHead=0;swimlaneBody=0;strokeColor=inherit;top=0;left=0;bottom=0;right=0;collapsible=0;dropTarget=0;fillColor=none;points=[[0,0.5],[1,0.5]];portConstraint=eastwest;fontSize=16;" vertex="1" parent="OAs59v_ub1j7-5ITEAdP-7">
          <mxGeometry y="80" width="849" height="40" as="geometry" />
        </mxCell>
        <mxCell id="OAs59v_ub1j7-5ITEAdP-17" value="" style="shape=partialRectangle;html=1;whiteSpace=wrap;connectable=0;strokeColor=inherit;overflow=hidden;fillColor=none;top=0;left=0;bottom=0;right=0;pointerEvents=1;fontSize=16;" vertex="1" parent="OAs59v_ub1j7-5ITEAdP-16">
          <mxGeometry width="122" height="40" as="geometry">
            <mxRectangle width="122" height="40" as="alternateBounds" />
          </mxGeometry>
        </mxCell>
        <mxCell id="OAs59v_ub1j7-5ITEAdP-18" value="" style="shape=partialRectangle;html=1;whiteSpace=wrap;connectable=0;strokeColor=inherit;overflow=hidden;fillColor=none;top=0;left=0;bottom=0;right=0;pointerEvents=1;fontSize=16;" vertex="1" parent="OAs59v_ub1j7-5ITEAdP-16">
          <mxGeometry x="122" width="121" height="40" as="geometry">
            <mxRectangle width="121" height="40" as="alternateBounds" />
          </mxGeometry>
        </mxCell>
        <mxCell id="OAs59v_ub1j7-5ITEAdP-19" value="" style="shape=partialRectangle;html=1;whiteSpace=wrap;connectable=0;strokeColor=inherit;overflow=hidden;fillColor=none;top=0;left=0;bottom=0;right=0;pointerEvents=1;fontSize=16;" vertex="1" parent="OAs59v_ub1j7-5ITEAdP-16">
          <mxGeometry x="243" width="121" height="40" as="geometry">
            <mxRectangle width="121" height="40" as="alternateBounds" />
          </mxGeometry>
        </mxCell>
        <mxCell id="OAs59v_ub1j7-5ITEAdP-22" style="shape=partialRectangle;html=1;whiteSpace=wrap;connectable=0;strokeColor=inherit;overflow=hidden;fillColor=none;top=0;left=0;bottom=0;right=0;pointerEvents=1;fontSize=16;" vertex="1" parent="OAs59v_ub1j7-5ITEAdP-16">
          <mxGeometry x="364" width="121" height="40" as="geometry">
            <mxRectangle width="121" height="40" as="alternateBounds" />
          </mxGeometry>
        </mxCell>
        <mxCell id="OAs59v_ub1j7-5ITEAdP-25" style="shape=partialRectangle;html=1;whiteSpace=wrap;connectable=0;strokeColor=inherit;overflow=hidden;fillColor=none;top=0;left=0;bottom=0;right=0;pointerEvents=1;fontSize=16;" vertex="1" parent="OAs59v_ub1j7-5ITEAdP-16">
          <mxGeometry x="485" width="122" height="40" as="geometry">
            <mxRectangle width="122" height="40" as="alternateBounds" />
          </mxGeometry>
        </mxCell>
        <mxCell id="OAs59v_ub1j7-5ITEAdP-28" style="shape=partialRectangle;html=1;whiteSpace=wrap;connectable=0;strokeColor=inherit;overflow=hidden;fillColor=none;top=0;left=0;bottom=0;right=0;pointerEvents=1;fontSize=16;" vertex="1" parent="OAs59v_ub1j7-5ITEAdP-16">
          <mxGeometry x="607" width="121" height="40" as="geometry">
            <mxRectangle width="121" height="40" as="alternateBounds" />
          </mxGeometry>
        </mxCell>
        <mxCell id="OAs59v_ub1j7-5ITEAdP-31" style="shape=partialRectangle;html=1;whiteSpace=wrap;connectable=0;strokeColor=inherit;overflow=hidden;fillColor=none;top=0;left=0;bottom=0;right=0;pointerEvents=1;fontSize=16;" vertex="1" parent="OAs59v_ub1j7-5ITEAdP-16">
          <mxGeometry x="728" width="121" height="40" as="geometry">
            <mxRectangle width="121" height="40" as="alternateBounds" />
          </mxGeometry>
        </mxCell>
        <mxCell id="OAs59v_ub1j7-5ITEAdP-40" style="edgeStyle=orthogonalEdgeStyle;rounded=0;orthogonalLoop=1;jettySize=auto;html=1;exitX=0.5;exitY=0;exitDx=0;exitDy=0;entryX=0;entryY=0.5;entryDx=0;entryDy=0;strokeWidth=4;fillColor=#d5e8d4;strokeColor=#82b366;" edge="1" parent="1" source="OAs59v_ub1j7-5ITEAdP-36" target="OAs59v_ub1j7-5ITEAdP-38">
          <mxGeometry relative="1" as="geometry" />
        </mxCell>
        <mxCell id="OAs59v_ub1j7-5ITEAdP-36" value="" style="shape=image;verticalLabelPosition=bottom;labelBackgroundColor=default;verticalAlign=top;aspect=fixed;imageAspect=0;image=data:image/png,iVBORw0KGgoAAAANSUhEUgAAAVYAAAHPCAYAAAAIxvIIAAAAAXNSR0IArs4c6QAAAARnQU1BAACxjwv8YQUAAAAJcEhZcwAADsMAAA7DAcdvqGQAAEsFSURBVHhe7Z15YBT13f/fs7mzuYDcCZfcp9xBEFEExQMRtfaySqvWq9be1trLo9r2+T3tU1ue1qqtYNWn1dqq2AqIEg8KSkgIhxKIJBBCDo7c124yvz++M5OZ2d1kk0ySndn3S4fPvr+f3SUbdt772c985zuSLMsyCCGEWIbLPEAIIWRg0FgJIcRiaKyEEGIxNFZCCLEYGishhFgMjZUQQiyGxkoIIRZDYyWEEIuhsRJCiMXQWAkhxGKkUDylNQR/JEKIg5EkyTw0IIbdWPV//TD/KISQMEdvsAMx22E1VlmWDZs6RgghQ41qpJIkaZt+vC8Mi7Gqf2VXV5dmqhEREXC52PK1gr2nT5mHSBgxLzXLPESCQPWirq4uQDFU1ZP6aq7D5mRdXV2asUZFRdFUCSHDimqkqhepHoV+fJMecjfTfyp0dXUhKirKfBdCCBk2VHNVPUo1174wpMaqN9XOzk5WqYSQkMTlciEiIgKdnZ0+x4GCYcidTTVWr9eLiIgIc5oQQkICl8sFr9ertSz7wpAbK5TeBStWQkgo43K50NnZaZ9WgP7Im9XU1NTi1tvvRWrmBKRnT8JtX70XlZVVWv5cXR2+9d0HkZ49CamZE7D6qhuwf/9Bw3MAQEtLCx780SNYvuIqnKg4aU4HZOd/dmPpRZfjtxv+GPBTzuPx4pvf+QHu+fp3zKmwZsPBD5H3ylOGbf07/0STpwMA0NHViScP7cHFr/4ZF/zjaVy/5a9491Q5ZPj/Pe+trcSaN19A0Znuf/+e+KDqOK7b8lf878GPAj5nR1cnfrB7O763a6s55Uiam1twzbovIDVzgs92zbovoLm5Rbtvb/uMLMt4c8tbWL7iKlRX15jTPpSWHsPqq25AauYEZI2eggd/9AgaG5u0fENDI+762reRnj1J29dramoNzzFQ1GrVFq2AwTLW5uYW3H3vd/Dq6/8ClF/KP1/7F77x7QfQ1tYGAGhqasb7H+zS/v49BYX46l3fRG3tae15GhoacdMtd2DTX/6K22+7BWmpo7RcT7y++U1ce/1NGD06F1dcvtLvFI3Ozk5s+P1TeO4vfzWnSC/8+ZNCPHu4CK2dXnTJMiqaG/Dwnh34+Fz3v53Kpw3n8FBBPpo6hCn3xuvlJbh/1zakxcZjVe4ESPD9t+uSu/DHQ3vwTuUxcyosuWbNarjd8UAQ+0z58RNYf+vduOmWO1Bf32DI+aOysgo33XIH9hQUAkox8uRTz+LRx/4fZFmG1+vFj3/6GF56+Z/aASaxr/9A29etQG+sfWHIjFX/g/XnBw2G+Pg4XHnFKjz4wLdRUXYQRQXvYeKE81BSclT7xxydm4MPd27H6apSHPmkAIvzFqDiZCUqT4mqRpZl/OK//gflx09g+9Z/4qYv3IjY2FjT3+TLJ4eP4Lvf/zG+862v4blnn8TEieeZ7wJZlvG/f3gGjz72/8wpouOhhZdg93W3Y/d1t+PZS65FQlQ0AOCCzNFYkjEGf7/8s3jv2q9gZc55aPR04HhTveHxx5vq8c2db6Kqpbu66YmPz9Xid/t3Y934afjtsisxKXmk+S6QIeMPhwrw/JH96BqE926o4nbH47V/vIDTVaU4XVWKUycOY+2aKzF1yiRce81VQBD7THNzC+6973688a+tfosNf6SlpeLqqy7Hb379c1SfLMFbW/6J5OQkfPxJCVpaWlFxshJb33oHM2ZMw96P8nHsyD6svPRivPf+f3C45Kj56fqN2auC9a0hM9ahQJIkfGX9TfjmfXcjNjYWCW43EhLcmDp1MlJSks1315g+bQrGjxsLACjefxCb/vJXnDhxEkuWXY4JU+bi6T9tQmdnp/lhGl6vF3948k84ffoM/vvXG5A1egrWXvcFHD9RYbjf5je24InfPqn9fOHK93Zt7fGr9MMF+dpX/eKz1dr47JEZ+O8llyHXnYRoVwSSYmKRFB2D8xJHaPdp6GjHT/fswJiEZMwelaGNB8Lb1YlNh/ehwdOOfx77GMtf/TO+/M4/cbzRaNaby4/gH8c+xrXjpyEuItKQCycKCgqxZdvbuO0rNyNVqUqD2WfOP38m3nzjZVyweJHu2QITFRWJBx/4Nr74+c8gIiICKSnJiImJwYzpU+B2x6O+vgGNjU2YOWMqxozORWJiApZcsAitra2oqup+zwwXjjJWM9veegcHDh7CnV/9MmJiYgy5J373JCZNnY/Dh4/ioZ88gKSkREAxv9bWVq1VUF/fgO//4CG89vq/DY/Xo356QvmqDwAf7NyN2++4Dw0NjQCAvYX78ORTf8Ybr/8VV191edCf3OFIZ1eX9lX/kT35ONvear4LPm04hx0nj+HCrLGYlCIqzI6uTvxX0fs4f1QG/nvJ5RgR0/uHV0VzIwpPn0KXLKND+XsPnavF93e/hYaOdkDp1f6t9AA2XHgVLh89IWz/7dra2vDEhj9idG4OrrryMm28t33G7Y7HIz/9AaZNnaI9pi/IsowX/+9leL1e3HLzFwAAcXGxiI2JwUd7CnHsWDlaWlrwyeEj5ocOG4411r2F+/D9Bx/CTV/8LC5cutic1jhXV4c77voGysqPAwAqT52CJEn4/e/+G1UVh/HUk0/A5XLhtc3/htfrNT8cUN5IjY1NWJy3AJ8c+BBHPinAhUsXY1/xfhz6+DBKjhzF7Xfeh12792DJsstx6WVr0drair/+7R9hcwCrqqUJV//reeS98hTyK8uRX1mOvFeewiWvPasdXEqLdeOacVOwY+2X8foVX8TklFE43dbi81W/oaMdj+59F7ERkbht2jxIkNDR1Ynf7t+Nt04ewwtH9mPZP/+E/MpytHg9+OYHbwY8gFXX0Yb2rk5MThmF16/4Iv591U2YPjIdJ5rqcfBcDUrqzuAnBTtQUncGX3r7FdyR/zpavB7kV5b3WHU7kV279+Ct7Ttw61duQlpaqjben32mL2x+Ywt+89s/4Bv33ompUyYBAMaPG4eLli3Bp5+WYeEFKzDmvFn420v/QHRUFEaO9G3lDDWONNYTFSdx5z3fQlZmBr7/3W8gMtL3q9vXv3YHjn+6H1+97RacrDyF/PwPtFxsbCwmT56IyMhILFm8ENlZmThz5hza23s+EDJ27Gikpo7CiJQUrLjkIni9naivr8ebW7ajvPyE+e5hRWZ8AjZf+UXsvu52LM8ei+XZY7H7utvxzjXrMWdUJgDgxgkz8OC8ixAXEYn0uHjMHeV7zntHVyd+Xvg+SupO477Zi5ETL75pnG1rxTsnj/W7/5kVn4D0uHiMjInDgrQsdHR1or6jHdtOlqKmpdl897DD6/Xi+RdfQkZGGlatvMSc7vc+0xt7C/fhG99+ACsuWY6vfPkmbTwqKhKP/+zHWLvmSkB3Lv+CBfMwfVr/KmMrcZyxNje34Jvf/gEqTpzE//vFI1ofyB9RUdE+n27ZWVloa2tDSclReL1e7Nz1ESpPVWHUqBGIiREHUcwkJychMTEB5eUncPr0GZyrq8Pb77yLyMgIJCcn4+tfu0Nr/p+uKsX2ra8iLi4On71xHTY8wQNZ/jjeWI//1JxApMuF+Iju057//Ekh3qk8hrXjp2F5tuiLw2Tc6rY8eyziI6Pw66WrNfM2kxIdixhXBE61NKGmtQVn21uxp/YUol0RSI6OwT0zFhme88nlaxAfGYXl2WPxy8XdX4edzsFDn+DNLdtx5erLMGZ0riHXn30mGCorq3DPvd9FbGwsfvbwD32OS6Snp+GZp36L2lNH8eMffg+RkRH41jfu1mYqDCeOMlZZlvGnZ/+CHfnvo8PjwdXXfk6bc6d+5d5buA8TpszV5sb9/Je/xsiRI5CXtwAAcM3Vq5GUlIi7vvZtZOZOwe13fB0A8NnPrENkZCQOHPwYk6cvwPIVV2nzY3NzsnHlFauwa/ceTJ25CJOmzsf7H+zChUsvwKyZ03U/IQGAXy6+zMeUZMj43YHd2vzVz2z7G4431mNi0kiMThQHHvfWVuKl0oPokmW8XHoQi195GnmvPIWr//V8UDMAmjwd+Gr+67jo1T/hzRPiyHGuOxEL07NRUncGa/79PK544y84dLYGk1NSMWtk7we/woXNb2xBp9eLG65f69Nj7m2f6Q1/+5TH48V//eoJHDlaiurqGiy8YIW2Lz/xuye1x1ZWVmH9rXfj4Ud/iR8/+D0sv2ip7pmHD0cZa01NLZ7503PmYQPJSUmGJvqC+XPx979u1Ho3s2bNwHPP/kHTyclJ+MVjP8Xll12qPcZMZGQkHv7JA7jzq19GVJR4Iy1dkocnfv2LkPj0tAuzR2Ui150ElyQhyuXCBRmj8dMFl2hH4f+v9AAalZMFrCLSFYHvz12Gq8ZMRkxEBFyShOkj0vDwoku0aV7hTm3taWx+Y0vAr9n92Wd649DHn+Dlv79mHvahYG8Rior2449/+A3uuvNWH9MfLoZsPVZ1PlhnZyc6OjrQ2tqK1NTuBjixDq7HGt5wPVbrOH36NOLi4hAdHY2IiAjDAtg94aiKlRBCQgEaKyGEWAyNlRBCLIbGSgghFkNjJYQQi6GxEkKIxdhuutWWrTsAAJdfdrFhvGjfQew/8DG+9MUbDOMqdXUNePe9XbhmTffE9L+9/DoWLZiDceNGG+7bH8rKTuDPm/6Gjo4OREdH48s336g9b9G+g/jrS2JOXm5OFm798ucRG9u9KIz5NdXVNeD3T25Eg7Ko72c/cw3mnD9Du39v2HW61YaDH2LT4X0AgGkj0vC7C69EQlQ0qlqacNuOV1HbJhZVfmjhJVg9eqLPYwHgnhn+V0/SP7dKWmw8nr54LQBoz68/U+t7u7Yiv7JcO8uqqqUJzx0pxnfPX2J4nlCjL9OtAr039e9Bf+9ZPVu27sCOd/+j6b6+X/0RKvtTWEy3eu75lw3/gCpbtu7QftGBqKurx9HSY6irE+uytrW1o7b2DOqCWHQ3GA6XlGLd2tV4/NEHsG7tarzx7+1oa2tHXV0D3n7nfdxx2034yQ+/BQDI170Gf6/p9Te2Ijc3C48/+gA++5lr8O8339Z+bqfS5OlAeWMdXl39eey+7nakx8VjY0kRAKDoTBWuGDtJO6X0mU/2Gs60+t6urT6maUZ/aur2Nbdg2og0XDF2EjLjE/Cr4p3a898wYTr+p3gX/lN9AvGRUdh93e1Ii0vQTPVLk2abn9q29PTe3PpWPj7/2Wt9xs0U7TuIvYX7cf937sHjjz6AO267Cf96822UlfW8NsaWrTvw3PMvm4c17L4/2cZYt2zdgVkzp2H6NHF2h0rRPnFZlYsvusAwbqauvgG1p8+iTFkMpaqqBjW1Z1Bdbc2lHC6/7GLtUzAlOQnt7e1oa2vH7g/3Ii1tFMaNG43Y2BgsXbIQR0vL0NbWHvA16UlJThrQ+dZ2ISEqGr9cfBky4xMAAGMTU1DeWAcAWD16olaJZsaJfFWrMNYNBz/EipzzDOsG9MbRhrNo9nbg+vHTUXSmCsca63D9eHHq8fXjp6PZ24GKZrHco0rRmSpkxLq1n88J9PTevPGGNdr4xAnjUKO7woZKW1s7Ptj5Ea5YvQIpKUkAgHHjRmP+3Fl474Pd5rv3CbvvT7YxVv0vWs+c82f4tAX8UV1di/POG4uSI58CyifivLkzUa+sl1pWdgI/efi/8cAPH8cDP3xc+zph/mQtKzuBX/3Pkz1+4h0uKUVMTAxiY2P8viFVAr2mZUvzcLS0HE/96QW88e/tmDF9ivbGdQpVLU343q6t2vWs9DR5OvBRTSXGJqaYUyg6U4VWj0cz2HtmLPJpC/TGC0eKMT4xBZnxohJt9XjMd8Gk5JFo8XqQ98pTONZwDsVnqnHdedPMd7M1Pb03Vdra2nG0tAyzZvq+9qqqGrS3t2PcWGMrLSMjDQ0NTWhrE2a44ffPGvarsrIT2LmrAIc+PmLY1wJhx/3JNsY6UGpqT2PWzKmIiYlGW1s76hsaMXZMrvZJOG7caDz0429rX2cKCvejrOwE8hbNQ23tGe2rzeGSUqSljQr4D1NX14C9hfuxdMlCre+Trlu7Esr1gdraxCLKPfHpp+WoOHkKGRlp5pSjeb/qOE63NmtVpEqTpwP/d/SA9hW+P1S1NOFYYx2+oPtKnxrnNqwL0OrxoKqlCb9cfBl2X3c7rhk3BbNHZThy7YCe3pt1dQ349W/+iKVLFvo1rECoFWZ9fSOe+fOLmDhhHB5/9AE8/ugDiI2NRWZmOpYsno/p0ybh8Ucf6LEwsuv+FBbGWlfXgNraM8hMT0N7ewc+OXxU+6Rta+9AVZW4YuRzz7+MB374OJ58+i/aOpIpKUmYMX0KDpeUoq2tHccrKrFsaZ7pb+hG7eeob8T0tFSfT9mkpMSABwLa2trxxr+3Y8ni+X3qWdkFdcHrtW++iPzKclz6+kbDlVirWprwu/278bVZeT7mqfZcb5k8xzDeF/5+7BDckdGYmCSWi8yMT0Czt8NQOcdFRWl/d1VLE/afrUFpw1mfq8band7emykpSXjg/nux/8DHAfuhbe0dqKszLkReV9+AmJgY1Nc3oL6hEVMmT9Byyy9aHPC97w+77k9hYqziHz4lJRmTJ52Hjwr2YczoXKSkJCE2Jhp19Q3YsnUHGhqa8JMffgv3f+ceJCd179R5i+ahpva01p/NzEzXcnqK9h3E0dJyH+NVvxZBaUkkJSX0+EZob2/X3oyZmelITkq07CDbcKOum/rq6s9jefZYbF9zi+GCgb8q3onUODcuzBxjeFzRmSq8XHoIn5s4s9+Vo9piMD9Hi8ej9WzVqLYatp4oxQUZOWj2eLB9zS1YkT0eRxvOao+1O8G8N5ctzRMHek3tr0DvTfV5oqO719HtD3ben8LDWJVP0NjYGIwbOxqNDY0YOyYHUD4Bq6trUVN7GhMnjENsbAzKyk+g9vRZ7ZefkpKEmJgYvPfBhxiTm+33H7GurgH/fvNtLFk83zB9a8rkCahvaERVVU2P/SqV2NgYxMTE4HBJKaD0seobGpGS7L/14CTePHEUH9VU4huzFxuMr8nTgf8p3oWF6dlB91OLzlThktee1dZdhe6glX7R64lJI5EW58YHVeLSPB9UHTf0XxOiojDHz5UMnECg92ZbWzuee/5lzUj1PU49scrBI/1R9qJ9B7FzVwGWLc3za2L57+7STFFvkGbsvj9F/PSnP/2peXAwUeeyer1exMf3fa3S4v2H4HbHY+KEcYbx0tIyNLe04PzZvgtL7ys+BG+nF/PnzUZsbAxqa89iypSJiI2NQWlpGWpqT2PZ0jy8/sZb2LotH7LchbS0UaipOa09n8fjRXHxIVy79gqfNxiUKR+Hj3yKsvIKbH/7fWx/+310ejuxYP75aGlpxd//8S/kv/sf5OZm4fJVxp6S/jVFRkYiPW2U9rMU7C3GurWrMXVqcIYCAKeCWPR5uEmIisaq3AmIjogAFPP8ZdEHONXSiM3lJXj647144ch+zEnNxKFztXip9CDKG+vx9Md78fTHe3Gk/gxW5XZ/xdxWUYqUmFgsShcfmFWtTdhy4iguzBqDicrlrP9+7BAkAOvGd++I0RERGJeUgl/v+w9+f/AjVDY34vG8VQCAnxe9hxsnzMTI2DgUnanCt3duQZO3AzdNmq393KFIlnK5mt5ISUn2+96MjIzE2DG5+P2TG/GvN9/G2bN1+Mr6zyMhwW1+CmRmpqOlpRXPv/gKtr/9Po4cPabNOY2MjMTkSefhxb/+E/96821sf/t95OZkYeqUiUgdNRIf7PwQW9/Kx+HDpZg9a5phUexQ2Z9aWloQFRWFiIgIuFyuoOex2u4EgeFiy9YdqKk9HfAEhFDCricIEGvoywkCpGfC4gSB4aCurgGP/+K3OFpahs9cv8acJoQQH1ixOhBWrOENK1brYMVKCCEhAo2VEEIsZtiMVZIktLf7n2pBCCHDTXt7e1Bf+/0xZMaq/oBqj0KSJLS0iGXgCCEk1FCNVd9XDdZoh8xYYTJXl8sFj8eD1tZW890IIWRY8Xq9aG5u1uauog+miqE2VuhMVT3Cdu7cOZw5c8Z8N0IIGRZaW1tRWVmJiIgIw4kBfWHIplvBNOXK4/Ggo6MDbW1tWq81JiYGEbozWobwR+uV2tpapKUN/qo4VlDTzm8B4Ux6TJx5KCQJlX1KX5G2t7fD6/UiJkacChsTE6OdeaVvCfTGkBorFLPs6uqC1+uF1+tFR0cHOjo64PF40NnZia6uLs2AQ4kDBw5g5syZ5mFCSD8JpX1K/SYdGRmJyMhIREdHIzo6GlFRUYiMjOxz1Tosxqqaq7pmgLrpjTXUKC4uxuzZzrksByHDTSjtU/oWZUREhGaofV0jQGXIjRUmc1U3c7U6DD9WjxQVFWHOnP6vA0oIMRIq+5RqmKqB6nur/TFVDJexQmeugbZQo7CwEHPnzjUPE0L6SajtU6qB6s20P6aK4TRW6A5OmaM5Hwrs3bsX8+bNMw8TQvpJqOxTeuNUb5tjXxlWY9UTIj9GQAoKCjB//nzzMCGkn4TyPtVfQ1UJGWMNdUL5TUCIHXHyPjXkJwgQQojTobESQojF0FgJIcRiaKyEEGIxNFZCCLEYGishhFgMjZUQQiyGxkoIIRZDYyWEEIuhsRJCiMXQWAkhxGJorIQQYjE0VkIIsRgaKyGEWAyNlRBCLIbGSgghFkNjJYQQi6GxEkKIxdBYCSHEYmishBBiMTRWQgixGBorIYRYDI2VEEIshsZKCCEWQ2MlhBCLobESQojF0FgJIcRiaKyEEGIxNFZCCLEYGishhFgMjZUQQiyGxkoIIRZDYyWEEIuhsRJCiMXQWAkhxGJorIQQYjE0VkIIsRgaKyGEWAyNlRBCLIbGSgghFkNjJYQQi6GxEkKIxdBYCSHEYmishBBiMTRWQgixGBorIYRYDI2VEEIshsZKCCEWQ2MlhBCLobESQojF0FgJIcRiaKyEEGIxNFZCCLEYGishhFgMjZUQQiyGxkoIIRZDYyWEEIuhsRJCiMXQWAkhxGJorIQQYjE0VkIIsRgaKyFkWJg/f755yDHQWAkhxGJorISQIeP5gx5c/VILJv6hCRP/0ISrX2rB8wc95rvZHhorIWRIeP6gBz96tx2HTnehSwa6ZODQ6S786N12x5krjZUQMiS80IN59pSzIzRWQsigsbFkn3b7kzNdhpyennJ2hMZKCLGcssY6RP3xYdy241VtTDbcw0hPOTtCYyWEWEpZYx0mvfiEpovPVAMApqVG6O5lRM3JDnFYGishxDLyK8sMppoa50Z5Ux0A4PPTInX3NKLmTjcAHq85az9orIQQS8ivLMPKzZsMY3dPX4D2zk40ejpw08woPHxRDKaO6radqaNcePiiGNw0MwodXqDyLFBWbX9zlWTZKcX34FJQUODoM0UIGSgTX3wC5Y2iOk2Nc+Ou6QswfUQaACAhKhpLM8cgMSoa0H3llyQRZRloaZfx6SkJXbKMmCgJY9KB+BjlyW0GK1ZCyIC5dcerBlP93dIrMH1EGhTfRLOnA1tOHMXBszWo72iDJAlT7ZJFddrWAbgkCeMzgKhICW0eoLwa8HYa/hrbQGMlhAyIRwrysUk3rerirLGAJAlTNcVP6s/grYpP8fdjH+O/XnsJ7R2Ap1OUrzJkREQA4zJkxESK8Rrh1baDxkoI6TcbS/bh4YJ8TU8fmY4bJswwmKkUwGRF2QpI4g8RIWLGCKCzU0J9M9DUqj29baCxEkL6zSN6Ux2Rhh/PuwiQZciyrEV1M49reciQZVGxqv/FRstISZTR5hEHsxpbDH9tyENjJYT0i7LGOq2vCgA/WXAxXJIESZLgklwBYndeVK7qf6JS1f+XmSJhVCLg6QSO1wKdNjo5i8ZKCOkXt+W/pt3+zHnTAd0ZVLJyyzca82qd2n3LqNOSZcTHyOjqAs41Kg+xATRWQkifeaQgH/mVZZpenj0OALRZAMFGtU7tvmXUgISRiRI6ZeBMo31mCdBYCSF9oqyxznDA6jPnTUdarFvpmYpJqUHHIP5zx8qIipDR7gHKaww/SshCYyWE9InndFOrZoxMx2cmzITLJUGSXH2PSt+1t21MmgRZBlragIrThh8nJKGxEkL6hL5avWv6AtENFSVonyO0P0XsHjXGqEhgdJo4kFXXBLSH+PKtNFZCSNDop1elxbmREZfg0yftixZj3VHdzOOAOL012S3O1jrXpAyGKDRWQkjQ6KvVS7LGAWJuvxLVif7Ba32VKuay9qyT3WLaVX1zaE+/orESQoLCXK1+ZuIMIXRm2SdtqlKVE7F61AmxQHQk0OEBTp5RniQEobESQnrFPBPgkqxxhnJSPcpv1L3kdXfR3+5N56SKaVf1zWILRWishJBeMc8E+OykmeIMKpdyJpXhaL95PEBe67gK9NVpTzo2CsgeKcw1VKtWGishpFf0FwW88bzpPkf3+x2hK2T7EJMShMF2dobmOgI0VkJIj+jXBEiLc2PGyPQejvLrx4PJ63qpfYzJCUAXgLoQbAfQWAkhPaJvA6THuQFlJSotQpwhJZqhuvHe8kIpt7pvB6uT4gGvV/RZ20JsXiuNlRASEPNBq5kj0iG5lNWq1KisVuUz3lteXa9VeW71drA60gWMSgI6ZaCitvuAWChAYyWEBERfrabFuXHjhBmi4pRlQFtXdQBa6Zn2N6anAJES0NIOVIfQ1QZorIQQv5ir1RsnzOxOStofQpp0sHlJyfU3uiQx/aqzCzjTEDonDdBYCSF+MVerl+aME1/fJWGJkgRNw6SDyUMy9k39VaTB5GOiAXcs0NUVOjMEaKyEEL/knyrXbl+aPV6rMK2O2uanIg02nxQneq0NNFZCSKhS1lhnWMj6xokzRE9U640qcaDaUIGq2hx7zyfEA12dMhpagNYOw0sZFmishBAf9NeySotza0fz1c0ybahAVW2OvecjXcDIJHGlgZMhsF4rjZUQ4sO7pjaAejRf3azS/ivS/um0ZBkREtDaDlSdM7ycIYfGSgjxQd9fnTEyXTkAJapDS6PfirR/OsIlIVdZoOVMgzjddbigsRJCDJj7qzNHpkFWSkNZ3LBQ6ytPkTfqvuVjosQ1srq6gIZWw8saUmishJCApMe5IalnSblcym2rtG4KFkTpKambpvueT4qX0CUP79QrGishxIB+/uqK7PGiiQlZaWYqmyXa2CuFvhIdgE6IExVrYyvQNkwzBGishBAN89lWs0alAxK0Cf2S0tC0TBt6pdbEyAgJIxLFWViVZw0vb8igsRJCNMwrWc0cmRFgWr8VUak2ZVmsf6Xe9rf1MZ+aJCrj5jZxIGuoobESQgA/1ernJs4y5AcDSeuZSjD0UEXztN/5yAgJWSMldHYBNcOwOAuNlRAC+KlWL80ZZ8iLjqiVGt2VJkSFaaVOiJMRFSnD2zX0p7rSWAkhgFKxqqzMOU9co0qpAEW0Wovocg1eHBEvQR6GGQI0VkIIAGCT4YKBaaICVI7iD17EoG7uOHEQq7FtaE8YoLESQgzVanqcG7NGZQqhnSI1OFFplQoZIA4kH6ssKejxAFVD2GulsRJCDKewZsQliHIPYm7oYEatuoRowcqyEnV6oPnMEeI013ONQHOb+OsHGxorIQTv6k5hnTUyXeuBqttgaEhSd8Vpql6t1DFR4hIunV1A5RnDyx40aKyEhDlljXWG/uqKnPFKxdddXQ6W1irOQd5GJQEuF9DmEatfDTY0VkLCHP00q1mjMpARnyCEJPqggxm1ClOC3x6plfnEeNEeqB+CGQI0VkLCGPNJAV+YMFN8jVbOj+reBkfrq0pDj1QXrconxorLtwzF1CsaKyFhjPGkgATMSs0UtidBiYoNKlotBa3LG6vKwdwS4kRs9wz+4iw0VkLCGONJAd0rWckBovV5Y1U52FtSHNA1BO0AGishYYz+oNXsURmGI/dDs+kKWShxEHWyWxhrQ7PQgwWNlZAwxXhSQAJmjcwQQlYGhyDK+kIWg6/jY4AIScwOOF0vxgYDGishYYr+SqyAqOzUqLRAB11Lus2szZtV+exRYk5rdR3Q4VV+JouhsRISpuivxLpK7a8qm3ouf7dWyj+L8/q7qZVloM2qvDsWSIwDvF3AqUFaCJvGSkgYYp5mtXL0BN31qPxtkp8xK/LdlSQQIA5CPmskIClTr9o9YsxKaKyEhCHmaVYZcW5R0g3xpq8kgQBxEPIuCUhyCz0Ya7XSWAkJQzbqjHVV7nhluj5EeQcMmZb89EADbVbnk93ihIH6QZghQGMlJMwoa6zTDlylxyXgpknnA4rZCf/pNr/B1rIMyLoerF6bo9X5uGgZURFAa7uMWotnCNBYCQkz9G2Ay3LPEzeE1w15lCQhhivmjAK8XRJq6qw9G4vGSkiYoV97VcxdlUXLcxiiPMwxNhpITZLR2QVUnIZl0FgJCTPydWuvnp+aaTpqP3QRELMCxBi0SlIyVZaDnU9PkRDhAlo7gBaLlhSksRISRujPtsqISwAgi0PjwxEhK/1OfSWpXmlVp4cgnxQPdHXJlh3IorESEkbo+6uzR6UDkCD6ncMQIapJGCrI4dHJbkCGhPpmcVbWQKGxEhJG6KdZZcYlQLGZYYvdlaMa1UrWPD64+ehIwB0jw+MFTtSK389AoLESEibop1kBwE2Tz4ficGKD7vYQacmn5ylst1sPXT5rpIQuAI2tQM0Ar+hKYyUkTNC3Ab40aTYA5ei8LKJs0kOR7+55qpXk8OnICBnZI2R4vUBtPdDZqf26+gyNlZAwwGdtgNwJpjJSVG56bY6DkVev3upyKXGYdbJbgjsO6Ooa2GLYNFZCwgB9tZoRn4Ast9JfVY4lDVeUlZ9JVm6Egk5RFsM+26gk+wGNlZAwQD/N6jK1WpWgRGnYtCSJnymUYmI8ICnzWqv72WulsRISBhguwTIyvbvPKcu6bei1rFaKIRRdEpA1QvRYa+vEway+QmMlxOHoq1UAmJOaBUnpKQ5vVIpYfcUYIjrZDYxMEnNaT54WrYG+QGMlxOHop1hlxCeIG6pRDHPUZAjqjBQgOgrwdIoFsfsCjZUQh6O/BMvluRMMueHGX48zlOLIRGGydU1CBwuNlRCHo59mlRGvnm0lUG9rhqLbhiLvr8cZSjEpXsSGVuBcH8yVxkqIg3nEZKqXj56oOZ2kOp64IcxOUhqfQ5VX0N0MKe2SgNzU7l5rc5vpjgGgsRLiYPRrA1yeO0GUYrJSkmnRdHh+KPMKupshp92xyiyBLrGOQDAHsmishDgU89oAN6trA0CpHP3Goc373D1E9YhEICYa8HiDu/ggjZUQh6I/2+qWyecDYrkRMd0JUDRMemjzavGnFbQhrEcoZ2SdaVAGe4DGSohD0V+CJT0+UavCVIZbQz+P1TflN6qYx4cin+QWr6GlrfelBWmshDgU/SVYVo829VcRIA5xXrmlRRXzeCjkXRIwNl1UrXXNwKmzugeYoLES4kAMl2CJT1DOdnKJM55cyrWn/MWhzis/o11iXDQwOk2c7nqmAWj3KAkTNFZCHIi+DZAZnyCqQ1kcnQ+lKCpCJZq1OYZI3h0rY0Rizytg0VgJcSDv6toAc0ZmAMqBpNCLuttaE9Y3hlpeXVqwrsn/lV1prIQ4jLLGOsNqVqvHTIIkCXuQJOUofYhoFbUy1KvuGHr52GhgRIKMDi9QXgO0mVoCNFZCHIZ5UetMdeGVbh8LGW2sDVWrNcfQzGeOkJAYJ+a2llcbTxygsRLiMPRrA6yfPAeQZUCG0tv0jcOZVytBGeJ+dtM5qUBUpIwOj3EtARorIQ7CvDbA6jETRb2lfvX2E4c1D5EXd7OnTk0SV3c90wB4lQsQ0lgJcShXjJ4ISdn/QzUKuitBO+qkeBkxUUBbh2gJdHbRWAlxFPppVnNGZUKxMGWDSZu3oc+LUfvHsWlAVKSYIXC8hsZKiGMoa6wznG11/qhMUV3JshJh0uY49HkZstK7tHd0uWSMSZUBSUZTG42VEMegX8kqMz4BLuX6UqEcAUnpCdg/RkZKSEuSIMs0VkIcg/4SLFeMngiIwlDblEIx4DYceUnxJUkCJNhfj0wCIiJorIQ4BsMlWNyJ4oakDCg7vl6b43DkDVK9j831qEQaKyGOQD/NKjM+AVcql2AxGEAIRhlKNeugmOKmsRLiCPSXYLli9CTAcORaCkmtod50SHS5aKyE2B79JVgy4xPw5SlzTGWUHMJah4M0jZUQm6NfG+CK0ZOUysnP9+4QjBIEhpQDNI2VEJujPylgbqo4KcCww4ew1opYh0UaKyE2R39SwNzULJ2JqTYW2lo34JhIYyXExugvwaItDyjqJnFWkB20cdgRkcZKiI3R91evHDMJkiRBksQ1pVxKDFmtlni6tqtTNI2VEBujPykAMgBZORffDlH7mZViT7ntBE1jJcSmGE8KSMRXps7VVU9KB1MSp1sadIjlxQ3dbQdoGishNkV/UsBVYyYqZiUWOJGAbq0eJgq1vIrsvEhjJcSGbCzZpzspIBFfmTbPaFZqZWgHrVWxztE0VkJsyHHdbIArlZWsZFkGoPYwbaChVHkyIFLKoAM0jZUQG6I/aDUvLVscZXe5IEkuJfrXUL+K67T5/vq8/vFiC6zN9+9Na1WetimlnwM0jZUQm6GfuwoA81IzAX9H3ZWobrIsQ1IfpNfm++vy+sf7jOseqx83x0B5DfWmUu0ZtDnaJE9jJcRm6E9hzYxP1KolCf5jSOcBkVejupnHbZansRJiM/QnBVw1ZqIo/rR5oX5iSOfFbadFGishNsJ8wcCrxk6GS1J6ojaLkq6adVqksRJiI27Lf027fevUuciKVy7BAihH3UXRpNehmjdUeg7TNFZCbIK/alWPJEkimnSo5g2VnsM0jZUQm6Dvrd42dR6y4hO7TcymUVR5YjPPIjBvdsrTWAmxCfpTWOelKeuuSgGOttsoqpvouQbe7JSnsRJiA/TXtQKAealZolfpc5TdflFs+tv21zRWQmyAfu5qVnwiJJ+j7C6fo+59i709fqB5/7G74jNWr3bXNFZCbIB+bYCrxkwCgO6j7KL002lzFI/zHe/L4wea9zcuzvxy4kZjJcQG6NcGmJ+WBQCQJEmJYrxbm2MI5yV0b9DdtrmmsRIS4ujXBsiKT8Tc1CxAVio/n6genTaPh25e26C7bXNNYyUkxNFPs8p2J4prR7mkANEVYDw084aKz0EbjZWQEKassc64RGBqpri6qSxDVvqadtZqhacMOUbTWAkJYfTValZ8Im6fNh+SovVFkl21XjhJ01gJCVHM1eqP5y9XDvyI6UpOiJCVF+ewSGMlJETRV6vz07KxID0bgP4ouwOifoNzNI2VkBBFX63ePnWe6E8qG2Qo0ajtl1eqPOWmUzSNlZAQxDDFyp2IBek5cEniiLpLUq4hJSnXkNJpO+UldVYARJUnKdEJmsZKSAhiaAOkZgHimLqjIqCWeYp0UKSxEhJimA9arRk7GYCyGpSDohbUzUGaxkpIiLFy8ybt9vy0bMxLzVZ6lWqfEo7QkEWFJ7RS7DlE01gJCSEeKcjXlgfMcifij8vXiNWgXBJckgSXEp2gJUk0JiWIKs9JkcZKSAihXx5wzZjJSiUkyiGnRkBUek6KNFZCQgTzNa3umL4AAPx0Jx0UxU3HRRorISHCI7oDVgvSxMkA6o6qTqp3nPZTwToh0lgJCQE2luzDJt0Uq6vHTYFoQUqKCYnoNA1lTIsi4ztuszyNlZBhpqyxDrfteFXTa8ZOxjVjJmtHz50dlRcta38YtU3zNFZChhnDClbuRDy8cIV2FF1yiSPpBm2Ots2LihVQo6j8nKBprIQMI+aTAR5acAlkiGpOi0p15zNu+zxE5apUfiI6Q9NYCRlGzNXqwrRsSEq3zvkROiVuOUXTWAkZJjaW7DNUq9eMmQxAhizLYRLVVy5uyEp0gqaxEjIMmA9YLUjPwV0zF4rVoFzKqlA+UQowbtO8mCYAwHhU3aBtmqexEjIM3Jb/mnY7y52Ipy5aI/qOsqjo/G8Oy0Pfo1QiAozbLE9jJWSIya8sM5xh9fRF1yhzPHVbmGgoPUmnRRorIUNIfmWZYfWqu6YvQE5CktgpJUlZmETZSZ2uIUGRkIR0jKaxEjJElDXWGUw1252INeOmQlJ0uEUDkmnc5prGSsgQYTbVhxdcguz4BD+9yPDYuo+miz8Mx9htrmmshAwBKzdv0tZZBYA3r/oSFqXnwOUSR8ldLnGUPJy0aAd0V3pOijRWQgYR9eu//mDVXdMXKEeRIaI4XA4Z6K7mwiUPU+XnkEhjJWQQuS3/NZOpLsRdMxYCUne9JgGaVg/rhE8ejow0VkIGgfzKMkx88QmDqT6z/BrcOWMBRMEmi6jOftTrcMkrvxcnRhorIRazsWSfT0/17hkLsSgjV+kzihWetKhu5nGn5yVR4/mr+OweaayEWIQ6R1V/qioAPLxwBe6asbC7apNFbSOLEs6gwy6vQ1XmqGIeD+U8jZUQC1i5eZPPQaqF6TnYf+PdWDd+KgBAktQJ8aK2EZPljTrs8jpUZY4q5vFQztNYCekn+ZVluHXHqz69VABYO24K/nTxWsMY8Y9W6Sk3fKIN85JsrseJXwoKCjB//nzzMAkzNpbsw/HGOuSfKvcxUyhV6qMLVyDHnaTb5aDUMdR6fbCoCNcsu1Q35hxorEFCYw1PNpbsw7uKgeafKjcckDLzp+VrsTAjB1BtRFZuUPvVBwr3Ye1Fl0IddlSksQYHjdX5bFRW83+3sqxXE1W5dtxULMjIwbpxoo9Kgudg0T6suXCFedgR0FiDhMbqPMoa6/BIQX7QJqqydtwULEzPxcK0bN1Xfp+ahbGXqLYCZBmQJECWZUiS5AxNYw0OGqsz6KuZLkzPQU58IhZk5GBRajZyEpLM/sDYz3iwcB/WLGPFGtbQWO3NrTteDcpM1a/2eWnZyHYnaeOqH1Bbpw8orQBZzauVn+7+hminPI01OGis9qQ3Q7123FQszMjForRs5LgTlV1ERd1lqAdDHygqYo813KGx2otHCvINV0DVc+24qbh2/FQsTBNH8AFlf9fvCdSDrg8W7sPVy1YAWm9Sa1baX9NYg4PGah/MZ0Cp/CzvUh69DyHUVoATcZVUACdPA3VN5hQh9uLWHa8i6o8PG0x1UXoOfpa3Eoc++zXFVCXdBuph1xCVnsOiq90DnG0EKk4DJRU0WGJPVm7ehE3KPFSVRek52LhiHa4bNxWSBLEWqDh9nTpENABIkvOi1NzWJdc1AacbxMuUJCA6EhiRCKQlgyiwFRCa+OulLkrPwdrxU/m1P8Q5ULQPV194CSALM5JlWbhud6tSp22W93hF/erxAs1tQH0z0NJOgzVDYw09bt3xqk+V+ljeSlw3Xv3Kr3vnM4ZcPFBUhKuWXmL493MKLkCGLMuIigSS3TLGZsgYlSQjwgW0eWRUnxM9WI/X/FBChgd13VO9qea4k7DxknVYN34qZBndK9UrUbzPfceZH968GJcBqD1KZ2gXIJl6BBLSUyRMygHSkiXIMnC2CThWBdTWg5BhRTVV8wGq7WtuQV5GDiSIb1vmfp54n3dr5kMjL8YlAND8xwlaawVAAiBuCRTt8QJ1zcJUJchIjJeQlgy4Y3X3DQOsaAWoi3wc9zNZ/aKssRibmIJxiSnmFFFQTVXP12YuwtdmLtK9gRntEg2tAHVYxeZa8nYqxtoLHi9QVgV4ugCXBKSnhFfvtT/Gqi4519OZP/5Ynj0OP5p3EY1Wh7lKzXEn4ed5l2JReq42pu62gWA+tPIHiopw1YXO7LFK3k5xioCkHOXqKXZ4gPoWoKYOcLmAEW5hsFGR5qd1HsEaa35lGTaV7PM5qNJflmePw9PLrwlrgzWbKgBsWrEOi9J1Z06ZSwbqkNcHiopw9YWX+PiMI2KwFasejxc4clL8rmLCZOZAb8aaX1mGW/Nf67EyXZSeixx3InLdieYUdtdU4mRzA042N5hTAICbJ5+PH81fHlYGW9ZYh9vyXzOY6rrx0/DzvJWG+xF74uiKVeux9hF979UlARkjnG2uJSUlmDx5snkYG0v24bmSfT4VFRQjzUvPxqL0HMNX1p74sKYCH9acDGi04VLBljXWYdKLTxjGaKrO4kBREa506HSrflWseuqagMozogSOjgRyUsPnwJa/r6gAcN34aVg3firy0nO7vwFp3xFUbY6++YqmBjzw4Xbsrq4wPP/YxBT8aP5yLM8a61iDnfjiE4bq/zrVVH1+b4F/f8yHdv5AYRGudGrF2pcea6B4rhE4XQ94OmXEREmOMtfKxi6UN8gAgLFJErITxYVtHyrIx6OmM37WjZ+Gr81chFzdOp5W8GFNBX574CN8WGM0WAA48vmvO8pczUf+/R2kIs5AbQWY/cQRcaAVq4rWGqgDYqKc0Xf95vZ2vFriMYytnRyFX18aAwCY8n+/xacN55CXkYuf56203FDN7K6uwP273/JpDzx98VpHVK8bS/bhth2vGsb+suI65GXQVJ3I/qIiXLn0YvOwI+h3j9Uf3X1XGS5JQnQkMD7TnrMGHtvZjqf3GU1V5bbzo/CDJTH4w6E9KKk7jXtn5uk+qsxfgQJ/Fepv/u+ffozfHfjQx2DtXL0GqlTzMnJ9Xn9vvx/m7ZE/UFiEK9hjDR79nNcYm/Zdlz7XjFNN/n81WQkSPviSG81eD2pbm7Vx9X00FLqiuQE3bX/Fx1ztWL2ae9U57iTsuGZ9j6+f2v7ayRWrS5bFBwmUaIWOjADGZQCRLqDdK9YasNPpsJ0yApoqIHKdMuCOjDKM6980g61zFfP5y4rrlCuFCm7b8SpWbt6Esh6mfYUS/kz1L5deB/Ty+qntrwH//uEE7ZIkUaVDiVbpqCjRBkhLBto9QHWdfcw1QgJiI/29DQSxkRIilLQkqcstDk9cnDkaz19qNNfyxjqs3LxJO4U2FClTfka9qV43fhry134Zo91JPq+T0alRbOjFT+ymLe2xBsLjBY5U2mu+682vt+L9ik7zMADgwtwIbFoTh7ZOL6paQmdl8L8f+xi/3b/b0B4IxXmv5n4qFFP9xeJVhjHibPYXFeGKJQ5tBRhcdpC26CggZ5QokavPhe6VCjxeoKFF3L5zXrQ5raHmGj0d4lNX2aC7PRz6+vHT8Mu8lYbq1d9qUMOJWqnquW78NPxSMdWeXh+1A7Ufv3DEplaskmgTaAyGPtck2gFeZb5rKE3Jam4DyqqBLhnITQVGJACfnOnCK4c9OFonXsnEFAnXTYnC1FEuNHk7cKa1RfwWZfUFyyGjv7drK3bXnAyp6tV8imqOOwm/XLxKdyJF4NdD7Ty9v7AQq5WKVYIYVrG9HoxZAT1hXIZQnK2VngKkJJjvOTR4vGJRmbpmoKsLiI8V1XVMlHgP+KPJ04Gz7a3m4ZDjif278PKnHxvMdWxiCp5Zfg2WZ48z3Hew8bfa/wuXXs85qmHM/sIirF663DzsCJSKVftIGbJYWy+hrkmGtxPDVr3W1gtT7VKO5KUly0hL7v45JUlcL1wCcLruLGLcbrR4PWjvtM/lFCqaG/DE/t3DWr36a0U8z4n/Yc/+oiKlYvX1B7tHY8XqmxdxkPIeD1DXIs7WklxAdMTQnLGlGqqsGqq6tqz559b9/Ft2vouZc86HBAkyZEMExFccWTaOh1L+N/t34+VPD/lUr7dMPh9fmnz+oBisvyp1cUYuvj4zD4szRvfp52feefniwkJjxWre73rxj1DOaxWr+oL9P3Jw83VNMuqbpUG9iKHagjjXCHR4haFGRogKNSWh558PkLFl57uYNXeO+WltRUVzA54o3oVdpuoVFp9YEGjFr/tm5eHrsxYbxkj4sr+wCJcvWd6rP9gxP+Q91p7QztjqNFaw8TH9P3NLNdSaOvFrkLuAqAggu49ng2354F3Mmnu+eViH+osOROjkd1VX4Lu7tvmYKwbYIvB3rj+0KnUxFmfoF6Y2E/zP7x/m7ZbfX1iEy8Onx6qlFG2Og5vvvgy3qGABWaliJbhjhRlGRQY2RfXxnk79133x/JERMlIS1ErY/9/fjXF86873FGM131/SPcY8Htr5XdUnejTY5Vlje7wWl3oCgr/qVOWFS2/AYq2Xav65ev75mHd2fn9hIS5TKtbucRV/z2OfvKhY/eVDINY1As3tQItilJBEWpJE1akSHSUuG+NR5vOrHxWQxf1SEsQWFeH/7wkmbv3Pu5g5Zw78zR5RCTS7JNTzvynehZeOHcLJJl+D1TNWMdeerpIAADkJSfjGrMXIS8/F6ITuObWB/n7mwzNfvLcIly+9SPcA58SQ6LEGk69vktDcJsPTKaG5XdzfH5ERgDtGRlSUhPgYGe7Y4J6/t3zPFasz4q7qE3jiwG7sMi2sHSzXj5+GvMzRuGH8NL/Pz8ioj/qKtbf9z275kOqx9gWPbsZTh1cc8BrM5Qm37nwXs+boDl75//06Ir+rugIVLQ042dSAl44dAmT4bRcszshFjjsJizNyccN504N+fub9jIdhfv/eIly29CLdoHOQPN4u/cslAdj2n/eEsZrfKGEUK5RWQa47yW+ekbEvcf/eIqxassy8qzkCl5gALykT4RkDRUC8GaQwjrkJSaJnGiDPyNjnGGB/s3sUF3CSIGAMHGWxyYyMjJZFn/3MIVHq7ArdWQGhFLcqrQD9UU4tr0rTUVCr873p3h7PfM/53vRgPz7c8sV7i3DZ0mXd93NQFFcQgHjRjD1HQIYsqxsgm/Rg53vTvT2e+Z7zvenBfnx45uGznzkhivVYIT5JGHuIACC6KEqkpqYesDbvZw6JrFiDjJDEL42RkdG6aN7PnBJZsQYbta37M5eRkXGA0byfOSXa9QSBoWbbzvcw2+arWxESShQXOnkeK7qdFupt6sCakZHRuqhuDtMuGd29Aai3qX00tF+eaLgzMjIOPAba3+yu2WMNNgIAjP0hamrqgWg/+5lDImcFBBshhDY3DzI1NfWANOCznzkkBu6xqp8ozENSSnvJJcEluRgZGS2Jwe9/dssH7rEqD2RezYuPIkZGRgtj0PufvfLssfYhgpqaetC0k6Kpxyorkdqsge6jmVAiNTX1wHSg/c3u2iVBIKLuaB21QaujxnFGRsaBRzhOu0Q1JlxWeK5em2P45gEZMB3dZGRkHGjU72dmbY72yUud6imtku5e/gjz/Nu7P8DsuXO1u+mjinmceeaZD5wvKizEpXlLRVJNBMJmeWVWgNobEI7rN4Z9XvmE9RPVzTzOPPPM95IPev8LMB6ieaXHau55MPpEcUPRfiLz/seZZ77XvJ/9zeZR6bEKp2XsIYobivYTmfc/zjzzveb97G82j909VtIj77DH6jPOPPMDyRcVFmKF2mN1GJK3s0vWVKDfBDXe2fUBzp87V5ckhAyEfYWFuGSxzlh72P/spl2iKyCJ7oByTWxqP1ppEolITU1tiQ60v9lcu0RXQN8jULU5hnceUN8UgBKoqakHqIPd/+yWdwmPFT6rOm/3iFGFd777Hn6j+qYxjzPPPPM95sV/RiVGjMpOeZeSByQRqP1rGTLE/wGiHGCceeaZD5gPtL/ZXRvXClCT1D7aBXU9VkZGRkuipFZ6vvub3bVprQDGHqOszGdlZGQceBR1q+9+5oDYfQUBZYC6Jy2JxrukRGpq6oFpoIf9zb5arBWgtDugRGp/WgYgK70iJVJTUw9MA5Bl+Nnf7K1Fj1XtDTD2EF2iJ6RsLomamnpAWqlY/e9v9o7GHqvqvNQ+2pzUjmpSU1P3T4ub3dF4F1trY49VdVyTZr570HA/RkbG/kdxU9vM46q2Y95vj9UcmQegfm1hZGS0JELsYkHtf/7GQznPHmuw0TRgOMqpi8z7H2eeeb9547Bjov8eqzkyrx3FFOWr6SinLjLvf5x55v3mg93//I2HcN5/j9UUmYd2pog4uunSjnJSU1P3Xwe7//kbD+W8b49V9nVk5vV5cScRdVq5M/PMM9+HvM/+1dv+Z4+8b49VsV+fceYFal6Jmmaeeeb7nJeUMS0GGrdZXvRYTQ7M6CfqB1StflQxzzzz/crrh50UfStWRr/R5YLoDbmUXqtLoqamHpB28qwAGbpPDtn0SUKtaS3KAJRIPbjaHM353rQ5mvPUw6wBIf3sbzbXLtETUD85JKVHQO1fa3+IGXjUg6uVWwHzvemBPp560HXP+5t9tanHqjovtVmL94H4BWpvCohfpEEzzzzzQebV/cx3f7O7NvVYxQun9qfFoCSZtDky73+ceeb95lUNoMf9z17a1d37UByXOoDuaRzMM898n/OBxu2vpc4uWVZMFjK6oTbqDz7chTnz5ulGCCEDoWjvXixdtBjws7/ZXbsgQzgtRKT2r6FqMSC0OTLPPPO+4z3lZTEuq3mHaM4KCFJD1ZAA5U+fyDzzzPuO95SX1HElOkV3dnbJIL3CVgAh1qJvBTgN9liD1B98tBtz587tTkiSKP2pqan7pQsLCpzbY5WUQShTBqgDaFn5tam/PWpq6gHrgPubzbXSY9UlqQNrcZORkdGqKAkhKYNO0cpaAcoHCGPACK1Brf4SqampB6rN+5lToguSeLHi1epu+9vCOQ8A2seTMkBNTT0wrQxBGTJo82ajvDKPVdmgu+1vC+u88nHEjRs3C7dg9z975bt7rIw9RpdLuUaPElVtjsz7H2eeeX95837mlMgea9BRVj6RRFS1OTLvf5x55v3nEWB/s3fUeqySJF63qmHS4Z4nhAwCQe5/dstrPVZZVhKKhkmHe16SxFFM/1EKMM4888z3lA92/7Nbnj3WYCOgCBFVLSLzzDPfr7yk5J0Wu5RTWknP/Oej3ZjLtQIIsYzCvXtxwcI887AjED1WCJdl7CH6DDAyMg44Bhi2exQ9Vph6Bow+UZIg+kKMjIyWRfN+5pQYcFYAtVGbMQ9RU1P3Q0tiM+9vdtemWQGycFxqHy02VXdf44aamnqgWtwUN5yhpS5ZFtcVkMQAo/+4a89HmDdvns84JHRjHmeeeeYD5vcW7MXihQt9xp0Q2WMNNqpCfNQq44pWP3mZZ575PuYhcFg0zmOF4rjo1swreS0pNpGnpqYeiJaUIaGVNPzsfzbLK2sFKD0PdH+SqJp5kYfyO5M0k6Wmph6oDnb/s1temceqvlrdSzaPh3velGZkZBxg1G4Hsf/ZLK/0WLudVqDT5hiueTVw48bNmk3btYLY/2yW1ypWyey8phjueQ31pj6qm3mceeaZ7z0fxP5nt7xLaRIo6yPKatPDJ4Z7XkJ3f8gnqpt5nHnmmQ+cB4Le/+yWd2kvUTL8CqjNGsonEjdu3CzadPuUeX+zuXYBqtNCRGr/GvD5lNKi9pgAkXn/48yHd17sVMpYL/ufzbQkixqW9MJHe/Zg7vx5yieS7BMlSOjpFDbmmWfeOL63YA8WLVho3tUcgcs8QPwjy8qnUoDIvP9x5pnvMe9QaKzBIlFTUw+adhg01iCRIKZUaGtJUlNTD1g7FRprn1DfCYyMjNZF50FjDRpZ6QspGzU19cC1Q6GxBo0kPmDF9xhqamortEOhsfYBCZJ4bzAyMg44QvnTidBYg0V9DzAyMloXHQqNNVhkKP0hRVBTUw9cOxSeeRUkewoKMH/+fPMwIaSfFBQUYIFD9ylWrEEjK5+4ykZNTT1w7VBorEGjP6opUVNTW6EdCo01SMRbQT2qSU1NbYV2KjRWQgixGB68IoQQi2HFSgghFkNjJYQQi6GxEkKIxdBYCSHEYmishBBiMTRWQgixGBorIYRYDI2VEEIsxjHGum3bNmzbtk3T1dXVuO+++9Dc3Gy4H7GW6upqrFy5EsXFxeaUgfvuuw8bNmwwD5NeuO+++5CdnY3s7Gxcf/31fD9bTHNzM+677z5UV1drY8G+p3vCMcZaUlKCzZs3a7q6uhoHDx5EU1OT4X6E2IVt27ahoqICR44cwZEjR7B27Vq43W7z3cgAqaiowGOPPWYeHhCOMtadO3dqnzzvvfcejh07ZvgkIsROlJSUIDc3F263G263GzfffLP5LsQiXnrpJcM33oHiCGNtbm5GQ0MDZs6cieLiYjQ3N6OkpASf+9znNGPdsGGD9pVqwoQJKC4u9lvy8ytr/9m2bRsWLlyo/c7NmvSNZcuWYfPmzX7fj/r3s/o7bm5uxvXXX6+NZ2dn47777jM/lPjh5z//OX7xi1/4/frv73e9YcMGQ2umuLgYK1eu1N7rjjDWpqYmNDQ04Atf+AJOnTqlff1fsGABSkpKAAD33HMPKisrUVlZiW9961t46KGHkJCQgHXr1uGZZ54BdO2DZcuWGZ6fkOFg9uzZ+Mc//oFf/epXyM7O1iqqDRs2oKSkRHs/P/bYY7j77rvR0tICANi4cSMqKytRWFiInTt3+jVmYiQrKwv3338/HnroIe33CKU4ePbZZ1FYWIjKykqsX78ed999N6688krU19ejtLQUAPDMM89g3bp1yMjIAJxirOqnzMSJE1FQUICdO3di8uTJmDBhAvbs2YPm5mZUV1dj4cKFyM7Oxs9+9jPtsTfccAMqKipQXV2N4uJizJgxA7Nnz9Y9OyHDx+zZs1FaWoqNGzfizjvvxO7du/H222/jpZde0qqoW265BcePH/c5npCRkYH169drxQXpmVWrViE3NxdPP/20NrZ582YsWbJEM8xly5ahvr4e8fHxWlFWXV2NiooK3HDDDdrjHGGsai9q/PjxSEhIwI4dO7Bs2TJkZGSgoaEBNTU1uPvuu7F+/XpUVlZi48aN2mMzMjKwYsUKFBcXY/Pmzbj66qsNz01IKLBkyRLMmTMHNTU1AIAHH3xQq1grKyvx0UcfIT093fww0kcee+wxfPLJJzh27Jg55YNalD3xxBNYsWKFZr5wkrFOnjwZAHDxxRejoqICEyZMQEJCApKSklBeXo76+nrtK/7mzZsNn/DLli3DCy+8gIqKClarQaDvnao9pYyMDGRkZECWZW3MXCmZNemZ4uJibNq0CQBQWlqK8vJyjB07FitWrMCzzz7ba++6uroazz77LIuFPuB2u/GTn/wEI0aMAABcffXVhoPizzzzDJKTk5GQkICMjAzk5uZi69athmoVTjDW5uZmVFRUaMY6e/Zs5OXladNSGhoa4PF4sG7dOqxevRrZ2dna1VbVFsKECRPQ0NDg86lD/LNq1SosWbIEc+fOxerVq3H//fcjIyMDs2fPxtKlS7Xf8yuvvKI95tZbb8XmzZt5MKUPvPfee/j+97+P7OxsrF69Go8//jhmz56Ne+65B+vXr8fcuXO1doD+iPYtt9yC7OxszJ07F+vXr8eqVasMz0t6Zvbs2fj6178OKO91/e96586d+N///V/NX2699Vbce++9Pr7BKwgon+xf/OIX8atf/YoVK7Etzc3NuPnmm3HnnXfSTIcZ21esA2XDhg2YO3cu7r//fpoqIcQSWLESQojFhH3FSgghVkNjJYQQi6GxEkKIxdBYCSHEYmishBBiMTRWQgixGBorIYRYjNTW3sl5rIQQYiGsWAkhxGJorIQQYjE0VkIIsRgaKyGEWAyNlRBCLIbGSgghFkNjJYQQi6GxEkKIxdBYCSHEYmishBBiMTRWQgixGBorIYRYDI2VEEIshsZKCCEWQ2MlhBCLobESQojF0FgJIcRiaKyEEGIx/x/ocLNpzGkKBwAAAABJRU5ErkJggg==;imageBorder=default;" vertex="1" parent="1">
          <mxGeometry x="300" y="-30" width="342" height="463" as="geometry" />
        </mxCell>
        <UserObject label="Delta ToolTip" link="http://localhost:5173/src/combined-examples/delta-brushable/" id="OAs59v_ub1j7-5ITEAdP-38">
          <mxCell style="rounded=0;whiteSpace=wrap;html=1;" vertex="1" parent="1">
            <mxGeometry x="550" y="-130" width="120" height="60" as="geometry" />
          </mxCell>
        </UserObject>
        <mxCell id="OAs59v_ub1j7-5ITEAdP-3" value="Marcador" style="shape=callout;whiteSpace=wrap;html=1;perimeter=calloutPerimeter;fillColor=#f8cecc;strokeColor=#b85450;" vertex="1" parent="1">
          <mxGeometry x="540" y="40" width="90" height="60" as="geometry" />
        </mxCell>
        <mxCell id="OAs59v_ub1j7-5ITEAdP-39" value="Marcador" style="shape=callout;whiteSpace=wrap;html=1;perimeter=calloutPerimeter;fillColor=#d5e8d4;strokeColor=#82b366;" vertex="1" parent="1">
          <mxGeometry x="330" y="220" width="90" height="60" as="geometry" />
        </mxCell>
      </root>
    </mxGraphModel>
  </diagram>
</mxfile>
